%TF.GenerationSoftware,KiCad,Pcbnew,(5.1.8)-1*%
%TF.CreationDate,2021-02-10T16:30:01-05:00*%
%TF.ProjectId,PNG_PCB,504e475f-5043-4422-9e6b-696361645f70,rev?*%
%TF.SameCoordinates,Original*%
%TF.FileFunction,Soldermask,Top*%
%TF.FilePolarity,Negative*%
%FSLAX46Y46*%
G04 Gerber Fmt 4.6, Leading zero omitted, Abs format (unit mm)*
G04 Created by KiCad (PCBNEW (5.1.8)-1) date 2021-02-10 16:30:01*
%MOMM*%
%LPD*%
G01*
G04 APERTURE LIST*
%ADD10O,1.400000X1.400000*%
%ADD11C,1.400000*%
%ADD12O,1.700000X1.700000*%
%ADD13R,1.700000X1.700000*%
%ADD14O,1.600000X1.600000*%
%ADD15R,1.600000X1.600000*%
%ADD16C,1.300000*%
%ADD17C,1.600000*%
%ADD18R,1.300000X1.300000*%
G04 APERTURE END LIST*
D10*
%TO.C,R66*%
X224282000Y-51816000D03*
D11*
X229362000Y-51816000D03*
%TD*%
D10*
%TO.C,R59*%
X224282000Y-55626000D03*
D11*
X229362000Y-55626000D03*
%TD*%
D10*
%TO.C,R52*%
X212598000Y-103124000D03*
D11*
X217678000Y-103124000D03*
%TD*%
D10*
%TO.C,R45*%
X212598000Y-106934000D03*
D11*
X217678000Y-106934000D03*
%TD*%
D10*
%TO.C,R38*%
X212344000Y-80264000D03*
D11*
X217424000Y-80264000D03*
%TD*%
%TO.C,R31*%
X217424000Y-84074000D03*
D10*
X212344000Y-84074000D03*
%TD*%
%TO.C,R24*%
X173228000Y-134874000D03*
D11*
X173228000Y-129794000D03*
%TD*%
D10*
%TO.C,R17*%
X177292000Y-132334000D03*
D11*
X177292000Y-127254000D03*
%TD*%
D10*
%TO.C,R10*%
X176784000Y-114300000D03*
D11*
X181864000Y-114300000D03*
%TD*%
D10*
%TO.C,R3*%
X176784000Y-118110000D03*
D11*
X181864000Y-118110000D03*
%TD*%
D12*
%TO.C,J30*%
X252222000Y-63500000D03*
D13*
X252222000Y-60960000D03*
%TD*%
D12*
%TO.C,J29*%
X252222000Y-57150000D03*
D13*
X252222000Y-54610000D03*
%TD*%
D12*
%TO.C,J28*%
X252222000Y-69850000D03*
D13*
X252222000Y-67310000D03*
%TD*%
D12*
%TO.C,J27*%
X252222000Y-76200000D03*
D13*
X252222000Y-73660000D03*
%TD*%
D12*
%TO.C,J26*%
X252222000Y-82550000D03*
D13*
X252222000Y-80010000D03*
%TD*%
D12*
%TO.C,J25*%
X252222000Y-88900000D03*
D13*
X252222000Y-86360000D03*
%TD*%
D12*
%TO.C,J24*%
X252222000Y-139700000D03*
D13*
X252222000Y-137160000D03*
%TD*%
D12*
%TO.C,J23*%
X252222000Y-146050000D03*
D13*
X252222000Y-143510000D03*
%TD*%
D12*
%TO.C,J22*%
X252222000Y-133350000D03*
D13*
X252222000Y-130810000D03*
%TD*%
D12*
%TO.C,J21*%
X245872000Y-149860000D03*
D13*
X248412000Y-149860000D03*
%TD*%
D12*
%TO.C,J20*%
X239522000Y-149860000D03*
D13*
X242062000Y-149860000D03*
%TD*%
D12*
%TO.C,J19*%
X233172000Y-149860000D03*
D13*
X235712000Y-149860000D03*
%TD*%
D12*
%TO.C,J18*%
X252222000Y-101600000D03*
D13*
X252222000Y-99060000D03*
%TD*%
D12*
%TO.C,J17*%
X252222000Y-95250000D03*
D13*
X252222000Y-92710000D03*
%TD*%
D12*
%TO.C,J16*%
X252222000Y-107950000D03*
D13*
X252222000Y-105410000D03*
%TD*%
D12*
%TO.C,J15*%
X252222000Y-114300000D03*
D13*
X252222000Y-111760000D03*
%TD*%
D12*
%TO.C,J14*%
X252222000Y-120650000D03*
D13*
X252222000Y-118110000D03*
%TD*%
D12*
%TO.C,J13*%
X252222000Y-127000000D03*
D13*
X252222000Y-124460000D03*
%TD*%
D12*
%TO.C,J12*%
X220472000Y-149860000D03*
D13*
X223012000Y-149860000D03*
%TD*%
D12*
%TO.C,J11*%
X226822000Y-149860000D03*
D13*
X229362000Y-149860000D03*
%TD*%
D12*
%TO.C,J10*%
X214122000Y-149860000D03*
D13*
X216662000Y-149860000D03*
%TD*%
D12*
%TO.C,J9*%
X207772000Y-149860000D03*
D13*
X210312000Y-149860000D03*
%TD*%
D12*
%TO.C,J8*%
X201422000Y-149860000D03*
D13*
X203962000Y-149860000D03*
%TD*%
D12*
%TO.C,J7*%
X195072000Y-149860000D03*
D13*
X197612000Y-149860000D03*
%TD*%
D12*
%TO.C,J6*%
X182372000Y-149860000D03*
D13*
X184912000Y-149860000D03*
%TD*%
D12*
%TO.C,J5*%
X176022000Y-149860000D03*
D13*
X178562000Y-149860000D03*
%TD*%
D12*
%TO.C,J4*%
X188722000Y-149860000D03*
D13*
X191262000Y-149860000D03*
%TD*%
D12*
%TO.C,J3*%
X169672000Y-149860000D03*
D13*
X172212000Y-149860000D03*
%TD*%
D12*
%TO.C,J2*%
X163322000Y-149860000D03*
D13*
X165862000Y-149860000D03*
%TD*%
D12*
%TO.C,J1*%
X156972000Y-149860000D03*
D13*
X159512000Y-149860000D03*
%TD*%
D14*
%TO.C,U9*%
X210820000Y-68834000D03*
X195580000Y-61214000D03*
X208280000Y-68834000D03*
X198120000Y-61214000D03*
X205740000Y-68834000D03*
X200660000Y-61214000D03*
X203200000Y-68834000D03*
X203200000Y-61214000D03*
X200660000Y-68834000D03*
X205740000Y-61214000D03*
X198120000Y-68834000D03*
X208280000Y-61214000D03*
X195580000Y-68834000D03*
D15*
X210820000Y-61214000D03*
%TD*%
D14*
%TO.C,U8*%
X241808000Y-71882000D03*
X224028000Y-64262000D03*
X239268000Y-71882000D03*
X226568000Y-64262000D03*
X236728000Y-71882000D03*
X229108000Y-64262000D03*
X234188000Y-71882000D03*
X231648000Y-64262000D03*
X231648000Y-71882000D03*
X234188000Y-64262000D03*
X229108000Y-71882000D03*
X236728000Y-64262000D03*
X226568000Y-71882000D03*
X239268000Y-64262000D03*
X224028000Y-71882000D03*
D15*
X241808000Y-64262000D03*
%TD*%
D14*
%TO.C,U7*%
X241808000Y-138430000D03*
X224028000Y-130810000D03*
X239268000Y-138430000D03*
X226568000Y-130810000D03*
X236728000Y-138430000D03*
X229108000Y-130810000D03*
X234188000Y-138430000D03*
X231648000Y-130810000D03*
X231648000Y-138430000D03*
X234188000Y-130810000D03*
X229108000Y-138430000D03*
X236728000Y-130810000D03*
X226568000Y-138430000D03*
X239268000Y-130810000D03*
X224028000Y-138430000D03*
D15*
X241808000Y-130810000D03*
%TD*%
%TO.C,U6*%
X199136000Y-89662000D03*
D14*
X183896000Y-97282000D03*
X196596000Y-89662000D03*
X186436000Y-97282000D03*
X194056000Y-89662000D03*
X188976000Y-97282000D03*
X191516000Y-89662000D03*
X191516000Y-97282000D03*
X188976000Y-89662000D03*
X194056000Y-97282000D03*
X186436000Y-89662000D03*
X196596000Y-97282000D03*
X183896000Y-89662000D03*
X199136000Y-97282000D03*
%TD*%
%TO.C,U5*%
X241808000Y-113030000D03*
X224028000Y-105410000D03*
X239268000Y-113030000D03*
X226568000Y-105410000D03*
X236728000Y-113030000D03*
X229108000Y-105410000D03*
X234188000Y-113030000D03*
X231648000Y-105410000D03*
X231648000Y-113030000D03*
X234188000Y-105410000D03*
X229108000Y-113030000D03*
X236728000Y-105410000D03*
X226568000Y-113030000D03*
X239268000Y-105410000D03*
X224028000Y-113030000D03*
D15*
X241808000Y-105410000D03*
%TD*%
D14*
%TO.C,U4*%
X208280000Y-135890000D03*
X215900000Y-118110000D03*
X208280000Y-133350000D03*
X215900000Y-120650000D03*
X208280000Y-130810000D03*
X215900000Y-123190000D03*
X208280000Y-128270000D03*
X215900000Y-125730000D03*
X208280000Y-125730000D03*
X215900000Y-128270000D03*
X208280000Y-123190000D03*
X215900000Y-130810000D03*
X208280000Y-120650000D03*
X215900000Y-133350000D03*
X208280000Y-118110000D03*
D15*
X215900000Y-135890000D03*
%TD*%
D14*
%TO.C,U3*%
X158496000Y-131318000D03*
X143256000Y-123698000D03*
X155956000Y-131318000D03*
X145796000Y-123698000D03*
X153416000Y-131318000D03*
X148336000Y-123698000D03*
X150876000Y-131318000D03*
X150876000Y-123698000D03*
X148336000Y-131318000D03*
X153416000Y-123698000D03*
X145796000Y-131318000D03*
X155956000Y-123698000D03*
X143256000Y-131318000D03*
D15*
X158496000Y-123698000D03*
%TD*%
D14*
%TO.C,U2*%
X190754000Y-135890000D03*
X198374000Y-118110000D03*
X190754000Y-133350000D03*
X198374000Y-120650000D03*
X190754000Y-130810000D03*
X198374000Y-123190000D03*
X190754000Y-128270000D03*
X198374000Y-125730000D03*
X190754000Y-125730000D03*
X198374000Y-128270000D03*
X190754000Y-123190000D03*
X198374000Y-130810000D03*
X190754000Y-120650000D03*
X198374000Y-133350000D03*
X190754000Y-118110000D03*
D15*
X198374000Y-135890000D03*
%TD*%
D16*
%TO.C,U1*%
X148590000Y-47466000D03*
X146050000Y-47466000D03*
D17*
X152400000Y-92456000D03*
X149860000Y-92456000D03*
X147320000Y-92456000D03*
X144780000Y-92456000D03*
X142240000Y-92456000D03*
D16*
X148501600Y-59706000D03*
X148501600Y-61706000D03*
X150501600Y-61706000D03*
X150501600Y-59706000D03*
X152501600Y-61706000D03*
D18*
X152501600Y-59706000D03*
D17*
X139700000Y-87376000D03*
X139700000Y-89916000D03*
X139700000Y-92456000D03*
X139700000Y-94996000D03*
X139700000Y-84836000D03*
X139700000Y-82296000D03*
X139700000Y-79756000D03*
X139700000Y-97536000D03*
X139700000Y-100076000D03*
X139700000Y-102616000D03*
X139700000Y-105156000D03*
X154940000Y-105156000D03*
X154940000Y-102616000D03*
X154940000Y-100076000D03*
X154940000Y-97536000D03*
X154940000Y-94996000D03*
X154940000Y-92456000D03*
X154940000Y-89916000D03*
X154940000Y-87376000D03*
X154940000Y-84836000D03*
X154940000Y-82296000D03*
X139700000Y-77216000D03*
X139700000Y-74676000D03*
X139700000Y-72136000D03*
X139700000Y-69596000D03*
X139700000Y-67056000D03*
X139700000Y-64516000D03*
X139700000Y-61976000D03*
X139700000Y-59436000D03*
X139700000Y-56896000D03*
X139700000Y-54356000D03*
X139700000Y-51816000D03*
X139700000Y-49276000D03*
D15*
X139700000Y-46736000D03*
D17*
X154940000Y-79756000D03*
X154940000Y-77216000D03*
X154940000Y-74676000D03*
X154940000Y-72136000D03*
X154940000Y-69596000D03*
X154940000Y-67056000D03*
X154940000Y-64516000D03*
X154940000Y-61976000D03*
X154940000Y-59436000D03*
X154940000Y-56896000D03*
X154940000Y-54356000D03*
X154940000Y-51816000D03*
X154940000Y-49276000D03*
X154940000Y-46736000D03*
D15*
X142750800Y-53035200D03*
D17*
X142750800Y-55575200D03*
X142750800Y-58115200D03*
X142750800Y-60655200D03*
X142750800Y-63195200D03*
X152400000Y-49276000D03*
%TD*%
D10*
%TO.C,R70*%
X200660000Y-57404000D03*
D11*
X195580000Y-57404000D03*
%TD*%
D10*
%TO.C,R69*%
X200660000Y-49784000D03*
D11*
X195580000Y-49784000D03*
%TD*%
D10*
%TO.C,R68*%
X185420000Y-49784000D03*
D11*
X190500000Y-49784000D03*
%TD*%
D10*
%TO.C,R67*%
X200660000Y-53594000D03*
D11*
X195580000Y-53594000D03*
%TD*%
D10*
%TO.C,R65*%
X190500000Y-57404000D03*
D11*
X185420000Y-57404000D03*
%TD*%
D10*
%TO.C,R64*%
X185420000Y-53594000D03*
D11*
X190500000Y-53594000D03*
%TD*%
D10*
%TO.C,R63*%
X205740000Y-57404000D03*
D11*
X210820000Y-57404000D03*
%TD*%
D10*
%TO.C,R62*%
X205740000Y-49784000D03*
D11*
X210820000Y-49784000D03*
%TD*%
D10*
%TO.C,R61*%
X220980000Y-49784000D03*
D11*
X215900000Y-49784000D03*
%TD*%
D10*
%TO.C,R60*%
X205740000Y-53594000D03*
D11*
X210820000Y-53594000D03*
%TD*%
D10*
%TO.C,R58*%
X215900000Y-57404000D03*
D11*
X220980000Y-57404000D03*
%TD*%
D10*
%TO.C,R57*%
X220980000Y-53594000D03*
D11*
X215900000Y-53594000D03*
%TD*%
%TO.C,R56*%
X199136000Y-101092000D03*
D10*
X194056000Y-101092000D03*
%TD*%
D11*
%TO.C,R55*%
X199136000Y-108712000D03*
D10*
X194056000Y-108712000D03*
%TD*%
D11*
%TO.C,R54*%
X204216000Y-108712000D03*
D10*
X209296000Y-108712000D03*
%TD*%
D11*
%TO.C,R53*%
X199136000Y-104902000D03*
D10*
X194056000Y-104902000D03*
%TD*%
D11*
%TO.C,R51*%
X209296000Y-101092000D03*
D10*
X204216000Y-101092000D03*
%TD*%
D11*
%TO.C,R50*%
X204216000Y-104902000D03*
D10*
X209296000Y-104902000D03*
%TD*%
D11*
%TO.C,R49*%
X183896000Y-101092000D03*
D10*
X188976000Y-101092000D03*
%TD*%
D11*
%TO.C,R48*%
X183896000Y-108712000D03*
D10*
X188976000Y-108712000D03*
%TD*%
D11*
%TO.C,R47*%
X178816000Y-108712000D03*
D10*
X173736000Y-108712000D03*
%TD*%
D11*
%TO.C,R46*%
X183896000Y-104902000D03*
D10*
X188976000Y-104902000D03*
%TD*%
D11*
%TO.C,R44*%
X173736000Y-101092000D03*
D10*
X178816000Y-101092000D03*
%TD*%
D11*
%TO.C,R43*%
X178816000Y-104902000D03*
D10*
X173736000Y-104902000D03*
%TD*%
D11*
%TO.C,R42*%
X183896000Y-85852000D03*
D10*
X188976000Y-85852000D03*
%TD*%
D11*
%TO.C,R41*%
X183896000Y-78232000D03*
D10*
X188976000Y-78232000D03*
%TD*%
D11*
%TO.C,R40*%
X178562000Y-78232000D03*
D10*
X173482000Y-78232000D03*
%TD*%
D11*
%TO.C,R39*%
X183896000Y-82042000D03*
D10*
X188976000Y-82042000D03*
%TD*%
D11*
%TO.C,R37*%
X173482000Y-85852000D03*
D10*
X168402000Y-85852000D03*
%TD*%
D11*
%TO.C,R36*%
X178562000Y-82042000D03*
D10*
X173482000Y-82042000D03*
%TD*%
D11*
%TO.C,R35*%
X199136000Y-85852000D03*
D10*
X194056000Y-85852000D03*
%TD*%
D11*
%TO.C,R34*%
X199136000Y-78232000D03*
D10*
X194056000Y-78232000D03*
%TD*%
D11*
%TO.C,R33*%
X204216000Y-78232000D03*
D10*
X209296000Y-78232000D03*
%TD*%
D11*
%TO.C,R32*%
X199136000Y-82042000D03*
D10*
X194056000Y-82042000D03*
%TD*%
D11*
%TO.C,R30*%
X209296000Y-85852000D03*
D10*
X204216000Y-85852000D03*
%TD*%
D11*
%TO.C,R29*%
X204216000Y-82042000D03*
D10*
X209296000Y-82042000D03*
%TD*%
%TO.C,R28*%
X153416000Y-135128000D03*
D11*
X158496000Y-135128000D03*
%TD*%
D10*
%TO.C,R27*%
X153416000Y-142748000D03*
D11*
X158496000Y-142748000D03*
%TD*%
D10*
%TO.C,R26*%
X168402000Y-142748000D03*
D11*
X163322000Y-142748000D03*
%TD*%
D10*
%TO.C,R25*%
X153416000Y-138938000D03*
D11*
X158496000Y-138938000D03*
%TD*%
D10*
%TO.C,R23*%
X163322000Y-135128000D03*
D11*
X168402000Y-135128000D03*
%TD*%
D10*
%TO.C,R22*%
X168402000Y-138938000D03*
D11*
X163322000Y-138938000D03*
%TD*%
D10*
%TO.C,R21*%
X148336000Y-135128000D03*
D11*
X143256000Y-135128000D03*
%TD*%
D10*
%TO.C,R20*%
X148336000Y-142748000D03*
D11*
X143256000Y-142748000D03*
%TD*%
D10*
%TO.C,R19*%
X133096000Y-142748000D03*
D11*
X138176000Y-142748000D03*
%TD*%
D10*
%TO.C,R18*%
X148336000Y-138938000D03*
D11*
X143256000Y-138938000D03*
%TD*%
D10*
%TO.C,R16*%
X138176000Y-135128000D03*
D11*
X133096000Y-135128000D03*
%TD*%
D10*
%TO.C,R15*%
X133096000Y-138938000D03*
D11*
X138176000Y-138938000D03*
%TD*%
D10*
%TO.C,R14*%
X148336000Y-119888000D03*
D11*
X143256000Y-119888000D03*
%TD*%
D10*
%TO.C,R13*%
X148336000Y-112268000D03*
D11*
X143256000Y-112268000D03*
%TD*%
D10*
%TO.C,R12*%
X133096000Y-112268000D03*
D11*
X138176000Y-112268000D03*
%TD*%
D10*
%TO.C,R11*%
X148336000Y-116078000D03*
D11*
X143256000Y-116078000D03*
%TD*%
D10*
%TO.C,R9*%
X138176000Y-119888000D03*
D11*
X133096000Y-119888000D03*
%TD*%
D10*
%TO.C,R8*%
X133096000Y-116078000D03*
D11*
X138176000Y-116078000D03*
%TD*%
D10*
%TO.C,R7*%
X153416000Y-119888000D03*
D11*
X158496000Y-119888000D03*
%TD*%
D10*
%TO.C,R6*%
X153416000Y-112268000D03*
D11*
X158496000Y-112268000D03*
%TD*%
D10*
%TO.C,R5*%
X168656000Y-112268000D03*
D11*
X163576000Y-112268000D03*
%TD*%
D10*
%TO.C,R4*%
X153416000Y-116078000D03*
D11*
X158496000Y-116078000D03*
%TD*%
D10*
%TO.C,R2*%
X163576000Y-119888000D03*
D11*
X168656000Y-119888000D03*
%TD*%
D10*
%TO.C,R1*%
X168656000Y-116078000D03*
D11*
X173736000Y-116078000D03*
%TD*%
M02*
