M48
; DRILL file {KiCad (5.1.8)-1} date 02/10/21 16:30:38
; FORMAT={-:-/ absolute / inch / decimal}
; #@! TF.CreationDate,2021-02-10T16:30:38-05:00
; #@! TF.GenerationSoftware,Kicad,Pcbnew,(5.1.8)-1
FMAT,2
INCH
T1C0.0157
T2C0.0276
T3C0.0315
T4C0.0394
T5C0.0433
%
G90
G05
T1
X7.12Y-4.34
X8.63Y-4.85
X8.69Y-4.75
X8.96Y-4.85
X8.97Y-4.75
T2
X7.24Y-3.98
X7.44Y-3.98
X5.24Y-5.32
X5.44Y-5.32
X7.7Y-2.11
X7.9Y-2.11
X8.04Y-3.23
X8.24Y-3.23
X7.7Y-1.96
X7.9Y-1.96
X5.64Y-5.47
X5.84Y-5.47
X6.82Y-5.11
X6.82Y-5.31
X8.36Y-3.16
X8.56Y-3.16
X7.24Y-3.38
X7.44Y-3.38
X7.24Y-3.23
X7.44Y-3.23
X7.24Y-4.13
X7.44Y-4.13
X5.64Y-4.57
X5.84Y-4.57
X8.04Y-4.28
X8.24Y-4.28
X6.96Y-4.65
X7.16Y-4.65
X6.04Y-5.47
X6.24Y-5.47
X8.5Y-2.11
X8.7Y-2.11
X6.44Y-4.42
X6.64Y-4.42
X7.64Y-3.23
X7.84Y-3.23
X6.83Y-3.23
X7.03Y-3.23
X8.04Y-3.38
X8.24Y-3.38
X5.24Y-4.42
X5.44Y-4.42
X8.5Y-2.26
X8.7Y-2.26
X6.43Y-5.32
X6.63Y-5.32
X8.5Y-1.96
X8.7Y-1.96
X8.36Y-3.31
X8.56Y-3.31
X6.04Y-4.72
X6.24Y-4.72
X6.04Y-4.42
X6.24Y-4.42
X7.64Y-3.08
X7.84Y-3.08
X6.83Y-3.08
X7.03Y-3.08
X6.63Y-3.38
X6.83Y-3.38
X7.64Y-3.98
X7.84Y-3.98
X5.64Y-4.42
X5.84Y-4.42
X8.1Y-2.11
X8.3Y-2.11
X6.98Y-5.01
X6.98Y-5.21
X6.43Y-5.47
X6.63Y-5.47
X8.1Y-2.26
X8.3Y-2.26
X6.64Y-4.57
X6.84Y-4.57
X8.37Y-4.21
X8.57Y-4.21
X8.83Y-2.19
X9.03Y-2.19
X7.64Y-3.38
X7.84Y-3.38
X7.24Y-3.08
X7.44Y-3.08
X8.83Y-2.04
X9.03Y-2.04
X5.64Y-4.72
X5.84Y-4.72
X8.1Y-1.96
X8.3Y-1.96
X5.24Y-5.47
X5.44Y-5.47
X7.3Y-2.26
X7.5Y-2.26
X6.04Y-5.32
X6.24Y-5.32
X8.04Y-3.98
X8.24Y-3.98
X6.96Y-4.5
X7.16Y-4.5
X6.44Y-4.72
X6.64Y-4.72
X7.24Y-4.28
X7.44Y-4.28
X6.84Y-4.13
X7.04Y-4.13
X6.43Y-5.62
X6.63Y-5.62
X5.24Y-5.62
X5.44Y-5.62
X7.3Y-1.96
X7.5Y-1.96
X5.24Y-4.72
X5.44Y-4.72
X7.64Y-4.13
X7.84Y-4.13
X6.04Y-4.57
X6.24Y-4.57
X5.24Y-4.57
X5.44Y-4.57
X8.37Y-4.06
X8.57Y-4.06
X8.04Y-4.13
X8.24Y-4.13
X6.84Y-3.98
X7.04Y-3.98
X5.64Y-5.32
X5.84Y-5.32
X7.3Y-2.11
X7.5Y-2.11
X5.64Y-5.62
X5.84Y-5.62
X7.7Y-2.26
X7.9Y-2.26
X6.04Y-5.62
X6.24Y-5.62
X7.64Y-4.28
X7.84Y-4.28
X8.04Y-3.08
X8.24Y-3.08
X6.84Y-4.28
X7.04Y-4.28
T3
X5.64Y-4.87
X5.64Y-5.17
X5.74Y-4.87
X5.74Y-5.17
X5.84Y-4.87
X5.84Y-5.17
X5.94Y-4.87
X5.94Y-5.17
X6.04Y-4.87
X6.04Y-5.17
X6.14Y-4.87
X6.14Y-5.17
X6.24Y-4.87
X6.24Y-5.17
X5.75Y-1.8687
X5.8465Y-2.3506
X5.8465Y-2.4294
X5.85Y-1.8687
X5.9253Y-2.3506
X5.9253Y-2.4294
X6.004Y-2.3506
X6.004Y-2.4294
X8.82Y-2.53
X8.82Y-2.83
X8.92Y-2.53
X8.92Y-2.83
X9.02Y-2.53
X9.02Y-2.83
X9.12Y-2.53
X9.12Y-2.83
X9.22Y-2.53
X9.22Y-2.83
X9.32Y-2.53
X9.32Y-2.83
X9.42Y-2.53
X9.42Y-2.83
X9.52Y-2.53
X9.52Y-2.83
X8.2Y-4.65
X8.2Y-4.75
X8.2Y-4.85
X8.2Y-4.95
X8.2Y-5.05
X8.2Y-5.15
X8.2Y-5.25
X8.2Y-5.35
X8.5Y-4.65
X8.5Y-4.75
X8.5Y-4.85
X8.5Y-4.95
X8.5Y-5.05
X8.5Y-5.15
X8.5Y-5.25
X8.5Y-5.35
X8.82Y-5.15
X8.82Y-5.45
X8.92Y-5.15
X8.92Y-5.45
X9.02Y-5.15
X9.02Y-5.45
X9.12Y-5.15
X9.12Y-5.45
X9.22Y-5.15
X9.22Y-5.45
X9.32Y-5.15
X9.32Y-5.45
X9.42Y-5.15
X9.42Y-5.45
X9.52Y-5.15
X9.52Y-5.45
X7.51Y-4.65
X7.51Y-4.75
X7.51Y-4.85
X7.51Y-4.95
X7.51Y-5.05
X7.51Y-5.15
X7.51Y-5.25
X7.51Y-5.35
X7.81Y-4.65
X7.81Y-4.75
X7.81Y-4.85
X7.81Y-4.95
X7.81Y-5.05
X7.81Y-5.15
X7.81Y-5.25
X7.81Y-5.35
X8.82Y-4.15
X8.82Y-4.45
X8.92Y-4.15
X8.92Y-4.45
X9.02Y-4.15
X9.02Y-4.45
X9.12Y-4.15
X9.12Y-4.45
X9.22Y-4.15
X9.22Y-4.45
X9.32Y-4.15
X9.32Y-4.45
X9.42Y-4.15
X9.42Y-4.45
X9.52Y-4.15
X9.52Y-4.45
X7.7Y-2.41
X7.7Y-2.71
X7.8Y-2.41
X7.8Y-2.71
X7.9Y-2.41
X7.9Y-2.71
X8.0Y-2.41
X8.0Y-2.71
X8.1Y-2.41
X8.1Y-2.71
X8.2Y-2.41
X8.2Y-2.71
X8.3Y-2.41
X8.3Y-2.71
X7.24Y-3.53
X7.24Y-3.83
X7.34Y-3.53
X7.34Y-3.83
X7.44Y-3.53
X7.44Y-3.83
X7.54Y-3.53
X7.54Y-3.83
X7.64Y-3.53
X7.64Y-3.83
X7.74Y-3.53
X7.74Y-3.83
X7.84Y-3.53
X7.84Y-3.83
T4
X9.93Y-5.4
X9.93Y-5.5
X9.93Y-4.9
X9.93Y-5.0
X9.93Y-4.4
X9.93Y-4.5
X9.68Y-5.9
X9.78Y-5.9
X9.43Y-5.9
X9.53Y-5.9
X7.93Y-5.9
X8.03Y-5.9
X9.18Y-5.9
X9.28Y-5.9
X8.93Y-5.9
X9.03Y-5.9
X6.18Y-5.9
X6.28Y-5.9
X8.18Y-5.9
X8.28Y-5.9
X8.43Y-5.9
X8.53Y-5.9
X9.93Y-5.65
X9.93Y-5.75
X9.93Y-3.65
X9.93Y-3.75
X7.43Y-5.9
X7.53Y-5.9
X6.68Y-5.9
X6.78Y-5.9
X9.93Y-3.9
X9.93Y-4.0
X8.68Y-5.9
X8.78Y-5.9
X9.93Y-2.4
X9.93Y-2.5
X7.68Y-5.9
X7.78Y-5.9
X9.93Y-4.65
X9.93Y-4.75
X9.93Y-2.65
X9.93Y-2.75
X9.93Y-3.4
X9.93Y-3.5
X7.18Y-5.9
X7.28Y-5.9
X9.93Y-3.15
X9.93Y-3.25
X9.93Y-5.15
X9.93Y-5.25
X9.93Y-4.15
X9.93Y-4.25
X9.93Y-2.15
X9.93Y-2.25
X6.93Y-5.9
X7.03Y-5.9
X6.43Y-5.9
X6.53Y-5.9
X9.93Y-2.9
X9.93Y-3.0
T5
X5.5Y-1.84
X5.5Y-1.94
X5.5Y-2.04
X5.5Y-2.14
X5.5Y-2.24
X5.5Y-2.34
X5.5Y-2.44
X5.5Y-2.54
X5.5Y-2.64
X5.5Y-2.74
X5.5Y-2.84
X5.5Y-2.94
X5.5Y-3.04
X5.5Y-3.14
X5.5Y-3.24
X5.5Y-3.34
X5.5Y-3.44
X5.5Y-3.54
X5.5Y-3.64
X5.5Y-3.74
X5.5Y-3.84
X5.5Y-3.94
X5.5Y-4.04
X5.5Y-4.14
X5.6Y-3.64
X5.6201Y-2.088
X5.6201Y-2.188
X5.6201Y-2.288
X5.6201Y-2.388
X5.6201Y-2.488
X5.7Y-3.64
X5.8Y-3.64
X5.9Y-3.64
X6.0Y-1.94
X6.0Y-3.64
X6.1Y-1.84
X6.1Y-1.94
X6.1Y-2.04
X6.1Y-2.14
X6.1Y-2.24
X6.1Y-2.34
X6.1Y-2.44
X6.1Y-2.54
X6.1Y-2.64
X6.1Y-2.74
X6.1Y-2.84
X6.1Y-2.94
X6.1Y-3.04
X6.1Y-3.14
X6.1Y-3.24
X6.1Y-3.34
X6.1Y-3.44
X6.1Y-3.54
X6.1Y-3.64
X6.1Y-3.74
X6.1Y-3.84
X6.1Y-3.94
X6.1Y-4.04
X6.1Y-4.14
T0
M30
