%TF.GenerationSoftware,KiCad,Pcbnew,(5.1.8)-1*%
%TF.CreationDate,2021-02-10T16:30:01-05:00*%
%TF.ProjectId,PNG_PCB,504e475f-5043-4422-9e6b-696361645f70,rev?*%
%TF.SameCoordinates,Original*%
%TF.FileFunction,Legend,Top*%
%TF.FilePolarity,Positive*%
%FSLAX46Y46*%
G04 Gerber Fmt 4.6, Leading zero omitted, Abs format (unit mm)*
G04 Created by KiCad (PCBNEW (5.1.8)-1) date 2021-02-10 16:30:01*
%MOMM*%
%LPD*%
G01*
G04 APERTURE LIST*
%ADD10C,0.010000*%
%ADD11C,0.120000*%
%ADD12C,0.100000*%
%ADD13C,0.150000*%
G04 APERTURE END LIST*
D10*
%TO.C,G\u002A\u002A\u002A*%
G36*
X186006291Y-68963769D02*
G01*
X186029571Y-69063199D01*
X186029600Y-69068820D01*
X186020243Y-69157905D01*
X185982752Y-69161053D01*
X185958340Y-69142899D01*
X185892577Y-69110790D01*
X185860750Y-69149379D01*
X185841181Y-69155176D01*
X185830497Y-69078117D01*
X185830410Y-69075300D01*
X185839624Y-69011800D01*
X185877200Y-69011800D01*
X185902600Y-69037200D01*
X185928000Y-69011800D01*
X185902600Y-68986400D01*
X185877200Y-69011800D01*
X185839624Y-69011800D01*
X185845653Y-68970255D01*
X185911613Y-68936149D01*
X185928000Y-68935600D01*
X186006291Y-68963769D01*
G37*
X186006291Y-68963769D02*
X186029571Y-69063199D01*
X186029600Y-69068820D01*
X186020243Y-69157905D01*
X185982752Y-69161053D01*
X185958340Y-69142899D01*
X185892577Y-69110790D01*
X185860750Y-69149379D01*
X185841181Y-69155176D01*
X185830497Y-69078117D01*
X185830410Y-69075300D01*
X185839624Y-69011800D01*
X185877200Y-69011800D01*
X185902600Y-69037200D01*
X185928000Y-69011800D01*
X185902600Y-68986400D01*
X185877200Y-69011800D01*
X185839624Y-69011800D01*
X185845653Y-68970255D01*
X185911613Y-68936149D01*
X185928000Y-68935600D01*
X186006291Y-68963769D01*
G36*
X166493702Y-66143728D02*
G01*
X166738254Y-66152170D01*
X166904090Y-66170007D01*
X167002625Y-66200324D01*
X167045276Y-66246204D01*
X167043459Y-66310730D01*
X167019432Y-66373983D01*
X166955781Y-66472813D01*
X166858432Y-66546006D01*
X166713657Y-66596920D01*
X166507725Y-66628913D01*
X166226905Y-66645343D01*
X165892422Y-66649600D01*
X165631041Y-66648378D01*
X165410037Y-66645016D01*
X165247209Y-66639968D01*
X165160358Y-66633689D01*
X165150800Y-66630657D01*
X165169577Y-66577383D01*
X165217568Y-66462035D01*
X165254777Y-66376657D01*
X165358754Y-66141600D01*
X166159017Y-66141600D01*
X166493702Y-66143728D01*
G37*
X166493702Y-66143728D02*
X166738254Y-66152170D01*
X166904090Y-66170007D01*
X167002625Y-66200324D01*
X167045276Y-66246204D01*
X167043459Y-66310730D01*
X167019432Y-66373983D01*
X166955781Y-66472813D01*
X166858432Y-66546006D01*
X166713657Y-66596920D01*
X166507725Y-66628913D01*
X166226905Y-66645343D01*
X165892422Y-66649600D01*
X165631041Y-66648378D01*
X165410037Y-66645016D01*
X165247209Y-66639968D01*
X165160358Y-66633689D01*
X165150800Y-66630657D01*
X165169577Y-66577383D01*
X165217568Y-66462035D01*
X165254777Y-66376657D01*
X165358754Y-66141600D01*
X166159017Y-66141600D01*
X166493702Y-66143728D01*
G36*
X185572400Y-65684400D02*
G01*
X185421537Y-65684400D01*
X185327733Y-65674189D01*
X185269199Y-65626567D01*
X185222585Y-65516045D01*
X185200467Y-65443100D01*
X185130261Y-65201800D01*
X184741730Y-65186963D01*
X184353200Y-65172126D01*
X184353200Y-66040000D01*
X184557657Y-66040000D01*
X184697539Y-66029086D01*
X184772874Y-65984349D01*
X184810400Y-65913000D01*
X184887199Y-65809936D01*
X184961542Y-65786000D01*
X185012765Y-65794195D01*
X185043461Y-65832427D01*
X185058812Y-65921166D01*
X185063999Y-66080881D01*
X185064400Y-66192400D01*
X185062326Y-66394785D01*
X185052650Y-66516069D01*
X185030192Y-66576722D01*
X184989768Y-66597216D01*
X184961530Y-66598800D01*
X184875437Y-66563545D01*
X184828201Y-66446505D01*
X184828180Y-66446400D01*
X184800137Y-66351155D01*
X184745528Y-66306948D01*
X184632311Y-66294455D01*
X184575450Y-66294000D01*
X184353200Y-66294000D01*
X184353200Y-67259200D01*
X185157834Y-67259200D01*
X185242200Y-67005200D01*
X185298127Y-66855362D01*
X185351291Y-66779547D01*
X185424064Y-66753335D01*
X185474882Y-66751200D01*
X185623200Y-66751200D01*
X185623200Y-67513200D01*
X184581800Y-67513200D01*
X184231478Y-67512731D01*
X183969861Y-67510534D01*
X183784057Y-67505417D01*
X183661172Y-67496192D01*
X183588312Y-67481668D01*
X183552585Y-67460656D01*
X183541098Y-67431967D01*
X183540400Y-67417107D01*
X183586506Y-67327019D01*
X183668426Y-67288881D01*
X183796453Y-67256748D01*
X183782726Y-66203874D01*
X183777882Y-65851917D01*
X183772749Y-65588468D01*
X183765760Y-65400446D01*
X183755350Y-65274768D01*
X183739950Y-65198351D01*
X183717996Y-65158111D01*
X183687919Y-65140967D01*
X183654700Y-65134766D01*
X183563134Y-65089598D01*
X183540400Y-64995066D01*
X183540400Y-64871600D01*
X185572400Y-64871600D01*
X185572400Y-65684400D01*
G37*
X185572400Y-65684400D02*
X185421537Y-65684400D01*
X185327733Y-65674189D01*
X185269199Y-65626567D01*
X185222585Y-65516045D01*
X185200467Y-65443100D01*
X185130261Y-65201800D01*
X184741730Y-65186963D01*
X184353200Y-65172126D01*
X184353200Y-66040000D01*
X184557657Y-66040000D01*
X184697539Y-66029086D01*
X184772874Y-65984349D01*
X184810400Y-65913000D01*
X184887199Y-65809936D01*
X184961542Y-65786000D01*
X185012765Y-65794195D01*
X185043461Y-65832427D01*
X185058812Y-65921166D01*
X185063999Y-66080881D01*
X185064400Y-66192400D01*
X185062326Y-66394785D01*
X185052650Y-66516069D01*
X185030192Y-66576722D01*
X184989768Y-66597216D01*
X184961530Y-66598800D01*
X184875437Y-66563545D01*
X184828201Y-66446505D01*
X184828180Y-66446400D01*
X184800137Y-66351155D01*
X184745528Y-66306948D01*
X184632311Y-66294455D01*
X184575450Y-66294000D01*
X184353200Y-66294000D01*
X184353200Y-67259200D01*
X185157834Y-67259200D01*
X185242200Y-67005200D01*
X185298127Y-66855362D01*
X185351291Y-66779547D01*
X185424064Y-66753335D01*
X185474882Y-66751200D01*
X185623200Y-66751200D01*
X185623200Y-67513200D01*
X184581800Y-67513200D01*
X184231478Y-67512731D01*
X183969861Y-67510534D01*
X183784057Y-67505417D01*
X183661172Y-67496192D01*
X183588312Y-67481668D01*
X183552585Y-67460656D01*
X183541098Y-67431967D01*
X183540400Y-67417107D01*
X183586506Y-67327019D01*
X183668426Y-67288881D01*
X183796453Y-67256748D01*
X183782726Y-66203874D01*
X183777882Y-65851917D01*
X183772749Y-65588468D01*
X183765760Y-65400446D01*
X183755350Y-65274768D01*
X183739950Y-65198351D01*
X183717996Y-65158111D01*
X183687919Y-65140967D01*
X183654700Y-65134766D01*
X183563134Y-65089598D01*
X183540400Y-64995066D01*
X183540400Y-64871600D01*
X185572400Y-64871600D01*
X185572400Y-65684400D01*
G36*
X179284741Y-64898024D02*
G01*
X179517160Y-64902430D01*
X179685061Y-64912217D01*
X179806982Y-64929385D01*
X179901460Y-64955933D01*
X179987031Y-64993862D01*
X180018221Y-65010149D01*
X180218720Y-65148230D01*
X180365747Y-65329094D01*
X180475109Y-65575622D01*
X180523348Y-65741288D01*
X180577278Y-66088512D01*
X180569287Y-66439149D01*
X180503724Y-66767711D01*
X180384942Y-67048710D01*
X180274075Y-67201708D01*
X180160621Y-67309483D01*
X180035047Y-67389673D01*
X179880734Y-67446117D01*
X179681059Y-67482655D01*
X179419403Y-67503125D01*
X179079145Y-67511366D01*
X178930300Y-67512084D01*
X178620269Y-67511429D01*
X178397849Y-67507598D01*
X178249066Y-67499245D01*
X178159947Y-67485025D01*
X178116518Y-67463593D01*
X178104807Y-67433601D01*
X178104800Y-67432587D01*
X178147735Y-67360434D01*
X178251615Y-67296611D01*
X178257200Y-67294450D01*
X178409600Y-67236925D01*
X178409600Y-65186339D01*
X178381089Y-65176400D01*
X178968400Y-65176400D01*
X178968400Y-67259200D01*
X179209700Y-67259121D01*
X179400612Y-67239302D01*
X179583379Y-67189909D01*
X179628800Y-67170221D01*
X179788771Y-67057724D01*
X179900206Y-66896801D01*
X179968410Y-66673535D01*
X179998685Y-66374010D01*
X180001268Y-66193033D01*
X179983437Y-65837416D01*
X179930112Y-65569503D01*
X179833972Y-65379383D01*
X179687695Y-65257144D01*
X179483960Y-65192875D01*
X179250322Y-65176399D01*
X178968400Y-65176400D01*
X178381089Y-65176400D01*
X178253232Y-65131829D01*
X178137975Y-65068286D01*
X178114402Y-64987159D01*
X178128922Y-64953686D01*
X178167125Y-64929642D01*
X178243558Y-64913495D01*
X178372767Y-64903710D01*
X178569299Y-64898752D01*
X178847702Y-64897088D01*
X178969269Y-64897000D01*
X179284741Y-64898024D01*
G37*
X179284741Y-64898024D02*
X179517160Y-64902430D01*
X179685061Y-64912217D01*
X179806982Y-64929385D01*
X179901460Y-64955933D01*
X179987031Y-64993862D01*
X180018221Y-65010149D01*
X180218720Y-65148230D01*
X180365747Y-65329094D01*
X180475109Y-65575622D01*
X180523348Y-65741288D01*
X180577278Y-66088512D01*
X180569287Y-66439149D01*
X180503724Y-66767711D01*
X180384942Y-67048710D01*
X180274075Y-67201708D01*
X180160621Y-67309483D01*
X180035047Y-67389673D01*
X179880734Y-67446117D01*
X179681059Y-67482655D01*
X179419403Y-67503125D01*
X179079145Y-67511366D01*
X178930300Y-67512084D01*
X178620269Y-67511429D01*
X178397849Y-67507598D01*
X178249066Y-67499245D01*
X178159947Y-67485025D01*
X178116518Y-67463593D01*
X178104807Y-67433601D01*
X178104800Y-67432587D01*
X178147735Y-67360434D01*
X178251615Y-67296611D01*
X178257200Y-67294450D01*
X178409600Y-67236925D01*
X178409600Y-65186339D01*
X178381089Y-65176400D01*
X178968400Y-65176400D01*
X178968400Y-67259200D01*
X179209700Y-67259121D01*
X179400612Y-67239302D01*
X179583379Y-67189909D01*
X179628800Y-67170221D01*
X179788771Y-67057724D01*
X179900206Y-66896801D01*
X179968410Y-66673535D01*
X179998685Y-66374010D01*
X180001268Y-66193033D01*
X179983437Y-65837416D01*
X179930112Y-65569503D01*
X179833972Y-65379383D01*
X179687695Y-65257144D01*
X179483960Y-65192875D01*
X179250322Y-65176399D01*
X178968400Y-65176400D01*
X178381089Y-65176400D01*
X178253232Y-65131829D01*
X178137975Y-65068286D01*
X178114402Y-64987159D01*
X178128922Y-64953686D01*
X178167125Y-64929642D01*
X178243558Y-64913495D01*
X178372767Y-64903710D01*
X178569299Y-64898752D01*
X178847702Y-64897088D01*
X178969269Y-64897000D01*
X179284741Y-64898024D01*
G36*
X176288700Y-64879576D02*
G01*
X176608065Y-64888213D01*
X176843376Y-64899126D01*
X177012179Y-64914392D01*
X177132020Y-64936091D01*
X177220444Y-64966302D01*
X177278479Y-64996864D01*
X177448240Y-65152020D01*
X177552624Y-65357293D01*
X177590980Y-65587532D01*
X177562657Y-65817583D01*
X177467003Y-66022297D01*
X177308943Y-66173073D01*
X177206749Y-66237131D01*
X177150767Y-66272292D01*
X177149130Y-66273328D01*
X177163738Y-66319779D01*
X177215750Y-66437161D01*
X177296239Y-66605982D01*
X177365241Y-66745310D01*
X177480508Y-66966159D01*
X177570781Y-67113132D01*
X177650994Y-67205774D01*
X177736082Y-67263636D01*
X177774811Y-67281414D01*
X177890070Y-67348543D01*
X177949998Y-67420489D01*
X177952400Y-67434407D01*
X177934744Y-67475054D01*
X177869268Y-67499233D01*
X177737203Y-67510683D01*
X177556857Y-67513200D01*
X177161314Y-67513200D01*
X176885600Y-66954400D01*
X176769053Y-66720603D01*
X176684806Y-66563184D01*
X176620910Y-66467058D01*
X176565419Y-66417144D01*
X176506383Y-66398358D01*
X176442942Y-66395599D01*
X176276000Y-66395600D01*
X176276000Y-67251127D01*
X176428400Y-67284600D01*
X176548464Y-67337707D01*
X176580800Y-67415636D01*
X176573445Y-67458390D01*
X176539720Y-67486461D01*
X176462133Y-67502903D01*
X176323194Y-67510770D01*
X176105410Y-67513116D01*
X176022000Y-67513200D01*
X175777124Y-67511915D01*
X175616346Y-67506027D01*
X175522173Y-67492481D01*
X175477115Y-67468223D01*
X175463679Y-67430199D01*
X175463200Y-67415636D01*
X175504965Y-67329600D01*
X175615600Y-67284600D01*
X175768000Y-67251127D01*
X175768000Y-65176400D01*
X176276000Y-65176400D01*
X176276000Y-66141600D01*
X176551712Y-66141600D01*
X176722567Y-66134339D01*
X176829133Y-66103938D01*
X176908208Y-66037469D01*
X176932712Y-66007749D01*
X177013335Y-65845832D01*
X177038000Y-65626749D01*
X177015044Y-65412914D01*
X176937557Y-65274630D01*
X176792607Y-65199826D01*
X176567261Y-65176437D01*
X176555400Y-65176400D01*
X176276000Y-65176400D01*
X175768000Y-65176400D01*
X175768000Y-65173859D01*
X175615600Y-65143379D01*
X175503668Y-65101809D01*
X175464802Y-65021069D01*
X175463200Y-64987029D01*
X175463200Y-64861158D01*
X176288700Y-64879576D01*
G37*
X176288700Y-64879576D02*
X176608065Y-64888213D01*
X176843376Y-64899126D01*
X177012179Y-64914392D01*
X177132020Y-64936091D01*
X177220444Y-64966302D01*
X177278479Y-64996864D01*
X177448240Y-65152020D01*
X177552624Y-65357293D01*
X177590980Y-65587532D01*
X177562657Y-65817583D01*
X177467003Y-66022297D01*
X177308943Y-66173073D01*
X177206749Y-66237131D01*
X177150767Y-66272292D01*
X177149130Y-66273328D01*
X177163738Y-66319779D01*
X177215750Y-66437161D01*
X177296239Y-66605982D01*
X177365241Y-66745310D01*
X177480508Y-66966159D01*
X177570781Y-67113132D01*
X177650994Y-67205774D01*
X177736082Y-67263636D01*
X177774811Y-67281414D01*
X177890070Y-67348543D01*
X177949998Y-67420489D01*
X177952400Y-67434407D01*
X177934744Y-67475054D01*
X177869268Y-67499233D01*
X177737203Y-67510683D01*
X177556857Y-67513200D01*
X177161314Y-67513200D01*
X176885600Y-66954400D01*
X176769053Y-66720603D01*
X176684806Y-66563184D01*
X176620910Y-66467058D01*
X176565419Y-66417144D01*
X176506383Y-66398358D01*
X176442942Y-66395599D01*
X176276000Y-66395600D01*
X176276000Y-67251127D01*
X176428400Y-67284600D01*
X176548464Y-67337707D01*
X176580800Y-67415636D01*
X176573445Y-67458390D01*
X176539720Y-67486461D01*
X176462133Y-67502903D01*
X176323194Y-67510770D01*
X176105410Y-67513116D01*
X176022000Y-67513200D01*
X175777124Y-67511915D01*
X175616346Y-67506027D01*
X175522173Y-67492481D01*
X175477115Y-67468223D01*
X175463679Y-67430199D01*
X175463200Y-67415636D01*
X175504965Y-67329600D01*
X175615600Y-67284600D01*
X175768000Y-67251127D01*
X175768000Y-65176400D01*
X176276000Y-65176400D01*
X176276000Y-66141600D01*
X176551712Y-66141600D01*
X176722567Y-66134339D01*
X176829133Y-66103938D01*
X176908208Y-66037469D01*
X176932712Y-66007749D01*
X177013335Y-65845832D01*
X177038000Y-65626749D01*
X177015044Y-65412914D01*
X176937557Y-65274630D01*
X176792607Y-65199826D01*
X176567261Y-65176437D01*
X176555400Y-65176400D01*
X176276000Y-65176400D01*
X175768000Y-65176400D01*
X175768000Y-65173859D01*
X175615600Y-65143379D01*
X175503668Y-65101809D01*
X175464802Y-65021069D01*
X175463200Y-64987029D01*
X175463200Y-64861158D01*
X176288700Y-64879576D01*
G36*
X171183300Y-64880381D02*
G01*
X171507877Y-64889693D01*
X171748039Y-64902411D01*
X171920959Y-64920443D01*
X172043810Y-64945694D01*
X172133767Y-64980072D01*
X172148021Y-64987502D01*
X172334897Y-65127911D01*
X172444641Y-65312833D01*
X172486814Y-65560344D01*
X172487950Y-65630073D01*
X172451998Y-65925837D01*
X172346013Y-66152317D01*
X172166636Y-66312401D01*
X171910508Y-66408973D01*
X171574268Y-66444920D01*
X171538900Y-66445284D01*
X171196000Y-66446400D01*
X171196000Y-66851832D01*
X171197739Y-67053932D01*
X171207305Y-67176887D01*
X171231214Y-67243145D01*
X171275987Y-67275152D01*
X171323000Y-67289139D01*
X171426820Y-67350029D01*
X171450000Y-67417107D01*
X171441999Y-67460061D01*
X171406101Y-67487931D01*
X171324454Y-67503931D01*
X171179213Y-67511277D01*
X170952528Y-67513183D01*
X170916600Y-67513200D01*
X170678163Y-67511758D01*
X170523461Y-67505291D01*
X170434647Y-67490582D01*
X170393873Y-67464417D01*
X170383289Y-67423579D01*
X170383200Y-67417107D01*
X170429306Y-67327019D01*
X170511226Y-67288881D01*
X170639253Y-67256748D01*
X170625526Y-66203874D01*
X170625019Y-66167000D01*
X171195861Y-66167000D01*
X171475342Y-66149597D01*
X171654925Y-66129027D01*
X171768988Y-66086087D01*
X171853243Y-66007043D01*
X171856411Y-66003046D01*
X171936965Y-65831747D01*
X171958000Y-65630436D01*
X171925813Y-65417373D01*
X171825245Y-65274340D01*
X171650281Y-65196035D01*
X171443149Y-65176400D01*
X171196000Y-65176400D01*
X171195930Y-65671700D01*
X171195861Y-66167000D01*
X170625019Y-66167000D01*
X170620682Y-65851917D01*
X170615549Y-65588468D01*
X170608560Y-65400446D01*
X170598150Y-65274768D01*
X170582750Y-65198351D01*
X170560796Y-65158111D01*
X170530719Y-65140967D01*
X170497500Y-65134766D01*
X170407096Y-65091160D01*
X170383200Y-64990603D01*
X170383200Y-64862673D01*
X171183300Y-64880381D01*
G37*
X171183300Y-64880381D02*
X171507877Y-64889693D01*
X171748039Y-64902411D01*
X171920959Y-64920443D01*
X172043810Y-64945694D01*
X172133767Y-64980072D01*
X172148021Y-64987502D01*
X172334897Y-65127911D01*
X172444641Y-65312833D01*
X172486814Y-65560344D01*
X172487950Y-65630073D01*
X172451998Y-65925837D01*
X172346013Y-66152317D01*
X172166636Y-66312401D01*
X171910508Y-66408973D01*
X171574268Y-66444920D01*
X171538900Y-66445284D01*
X171196000Y-66446400D01*
X171196000Y-66851832D01*
X171197739Y-67053932D01*
X171207305Y-67176887D01*
X171231214Y-67243145D01*
X171275987Y-67275152D01*
X171323000Y-67289139D01*
X171426820Y-67350029D01*
X171450000Y-67417107D01*
X171441999Y-67460061D01*
X171406101Y-67487931D01*
X171324454Y-67503931D01*
X171179213Y-67511277D01*
X170952528Y-67513183D01*
X170916600Y-67513200D01*
X170678163Y-67511758D01*
X170523461Y-67505291D01*
X170434647Y-67490582D01*
X170393873Y-67464417D01*
X170383289Y-67423579D01*
X170383200Y-67417107D01*
X170429306Y-67327019D01*
X170511226Y-67288881D01*
X170639253Y-67256748D01*
X170625526Y-66203874D01*
X170625019Y-66167000D01*
X171195861Y-66167000D01*
X171475342Y-66149597D01*
X171654925Y-66129027D01*
X171768988Y-66086087D01*
X171853243Y-66007043D01*
X171856411Y-66003046D01*
X171936965Y-65831747D01*
X171958000Y-65630436D01*
X171925813Y-65417373D01*
X171825245Y-65274340D01*
X171650281Y-65196035D01*
X171443149Y-65176400D01*
X171196000Y-65176400D01*
X171195930Y-65671700D01*
X171195861Y-66167000D01*
X170625019Y-66167000D01*
X170620682Y-65851917D01*
X170615549Y-65588468D01*
X170608560Y-65400446D01*
X170598150Y-65274768D01*
X170582750Y-65198351D01*
X170560796Y-65158111D01*
X170530719Y-65140967D01*
X170497500Y-65134766D01*
X170407096Y-65091160D01*
X170383200Y-64990603D01*
X170383200Y-64862673D01*
X171183300Y-64880381D01*
G36*
X183078725Y-64873052D02*
G01*
X183220155Y-64880131D01*
X183297782Y-64896917D01*
X183330499Y-64927491D01*
X183337200Y-64975842D01*
X183289394Y-65077277D01*
X183188785Y-65131822D01*
X183040370Y-65183560D01*
X183023685Y-66116201D01*
X183015931Y-66472090D01*
X183004167Y-66742535D01*
X182983959Y-66943691D01*
X182950871Y-67091715D01*
X182900468Y-67202762D01*
X182828315Y-67292986D01*
X182729977Y-67378544D01*
X182663164Y-67429434D01*
X182520758Y-67492631D01*
X182311496Y-67534607D01*
X182068267Y-67553485D01*
X181823957Y-67547382D01*
X181611454Y-67514421D01*
X181543137Y-67493449D01*
X181389137Y-67422286D01*
X181261233Y-67340676D01*
X181245836Y-67327650D01*
X181161826Y-67243044D01*
X181099333Y-67151948D01*
X181055237Y-67038332D01*
X181026416Y-66886165D01*
X181009751Y-66679414D01*
X181002121Y-66402049D01*
X181000400Y-66066652D01*
X181000400Y-65173859D01*
X180848000Y-65143379D01*
X180735273Y-65100905D01*
X180696757Y-65019378D01*
X180695600Y-64992250D01*
X180698959Y-64939572D01*
X180720826Y-64905012D01*
X180778885Y-64884753D01*
X180890821Y-64874975D01*
X181074319Y-64871860D01*
X181254400Y-64871600D01*
X181498793Y-64872698D01*
X181659191Y-64878184D01*
X181753192Y-64891339D01*
X181798392Y-64915445D01*
X181812390Y-64953787D01*
X181813200Y-64975842D01*
X181766685Y-65075855D01*
X181660800Y-65133212D01*
X181508400Y-65186339D01*
X181508400Y-66911415D01*
X181656892Y-67059907D01*
X181767176Y-67152610D01*
X181883302Y-67196591D01*
X182050881Y-67208356D01*
X182067200Y-67208400D01*
X182240414Y-67198479D01*
X182358809Y-67157616D01*
X182468156Y-67069161D01*
X182478718Y-67058696D01*
X182628422Y-66908993D01*
X182614511Y-66029996D01*
X182609094Y-65712339D01*
X182603061Y-65481911D01*
X182594354Y-65324349D01*
X182580916Y-65225293D01*
X182560691Y-65170380D01*
X182531621Y-65145249D01*
X182491650Y-65135538D01*
X182486300Y-65134766D01*
X182394734Y-65089598D01*
X182372000Y-64995066D01*
X182375750Y-64937865D01*
X182399685Y-64901788D01*
X182462833Y-64881969D01*
X182584222Y-64873538D01*
X182782878Y-64871629D01*
X182854600Y-64871600D01*
X183078725Y-64873052D01*
G37*
X183078725Y-64873052D02*
X183220155Y-64880131D01*
X183297782Y-64896917D01*
X183330499Y-64927491D01*
X183337200Y-64975842D01*
X183289394Y-65077277D01*
X183188785Y-65131822D01*
X183040370Y-65183560D01*
X183023685Y-66116201D01*
X183015931Y-66472090D01*
X183004167Y-66742535D01*
X182983959Y-66943691D01*
X182950871Y-67091715D01*
X182900468Y-67202762D01*
X182828315Y-67292986D01*
X182729977Y-67378544D01*
X182663164Y-67429434D01*
X182520758Y-67492631D01*
X182311496Y-67534607D01*
X182068267Y-67553485D01*
X181823957Y-67547382D01*
X181611454Y-67514421D01*
X181543137Y-67493449D01*
X181389137Y-67422286D01*
X181261233Y-67340676D01*
X181245836Y-67327650D01*
X181161826Y-67243044D01*
X181099333Y-67151948D01*
X181055237Y-67038332D01*
X181026416Y-66886165D01*
X181009751Y-66679414D01*
X181002121Y-66402049D01*
X181000400Y-66066652D01*
X181000400Y-65173859D01*
X180848000Y-65143379D01*
X180735273Y-65100905D01*
X180696757Y-65019378D01*
X180695600Y-64992250D01*
X180698959Y-64939572D01*
X180720826Y-64905012D01*
X180778885Y-64884753D01*
X180890821Y-64874975D01*
X181074319Y-64871860D01*
X181254400Y-64871600D01*
X181498793Y-64872698D01*
X181659191Y-64878184D01*
X181753192Y-64891339D01*
X181798392Y-64915445D01*
X181812390Y-64953787D01*
X181813200Y-64975842D01*
X181766685Y-65075855D01*
X181660800Y-65133212D01*
X181508400Y-65186339D01*
X181508400Y-66911415D01*
X181656892Y-67059907D01*
X181767176Y-67152610D01*
X181883302Y-67196591D01*
X182050881Y-67208356D01*
X182067200Y-67208400D01*
X182240414Y-67198479D01*
X182358809Y-67157616D01*
X182468156Y-67069161D01*
X182478718Y-67058696D01*
X182628422Y-66908993D01*
X182614511Y-66029996D01*
X182609094Y-65712339D01*
X182603061Y-65481911D01*
X182594354Y-65324349D01*
X182580916Y-65225293D01*
X182560691Y-65170380D01*
X182531621Y-65145249D01*
X182491650Y-65135538D01*
X182486300Y-65134766D01*
X182394734Y-65089598D01*
X182372000Y-64995066D01*
X182375750Y-64937865D01*
X182399685Y-64901788D01*
X182462833Y-64881969D01*
X182584222Y-64873538D01*
X182782878Y-64871629D01*
X182854600Y-64871600D01*
X183078725Y-64873052D01*
G36*
X175001010Y-64872623D02*
G01*
X175142043Y-64878864D01*
X175219521Y-64895077D01*
X175252466Y-64926019D01*
X175259898Y-64976444D01*
X175260000Y-64992249D01*
X175234826Y-65086526D01*
X175141574Y-65135668D01*
X175107600Y-65143379D01*
X174955200Y-65173859D01*
X174955200Y-66037701D01*
X174951490Y-66425354D01*
X174937981Y-66725995D01*
X174911098Y-66954022D01*
X174867268Y-67123832D01*
X174802918Y-67249824D01*
X174714475Y-67346394D01*
X174612273Y-67419465D01*
X174429058Y-67493084D01*
X174184378Y-67539099D01*
X173915187Y-67555126D01*
X173658440Y-67538778D01*
X173465937Y-67493449D01*
X173293415Y-67418729D01*
X173161220Y-67330164D01*
X173064167Y-67213964D01*
X172997071Y-67056339D01*
X172954747Y-66843499D01*
X172932010Y-66561653D01*
X172923674Y-66197013D01*
X172923200Y-66049992D01*
X172923200Y-65186339D01*
X172770800Y-65133212D01*
X172648288Y-65058688D01*
X172618400Y-64975842D01*
X172624290Y-64930251D01*
X172653695Y-64900329D01*
X172724212Y-64882794D01*
X172853439Y-64874362D01*
X173058973Y-64871750D01*
X173177200Y-64871600D01*
X173421180Y-64872325D01*
X173581245Y-64877046D01*
X173675079Y-64889582D01*
X173720368Y-64913750D01*
X173734794Y-64953368D01*
X173736000Y-64992250D01*
X173711697Y-65085352D01*
X173620844Y-65134633D01*
X173579397Y-65144220D01*
X173422794Y-65175541D01*
X173456600Y-66963369D01*
X173599132Y-67085884D01*
X173778290Y-67183850D01*
X173987100Y-67214879D01*
X174197750Y-67184519D01*
X174382427Y-67098318D01*
X174513317Y-66961823D01*
X174543292Y-66897562D01*
X174563867Y-66787477D01*
X174580898Y-66597272D01*
X174593092Y-66348405D01*
X174599161Y-66062333D01*
X174599600Y-65961188D01*
X174599600Y-65186339D01*
X174447200Y-65133212D01*
X174324688Y-65058688D01*
X174294800Y-64975842D01*
X174301525Y-64927431D01*
X174334297Y-64896881D01*
X174412009Y-64880114D01*
X174553552Y-64873047D01*
X174777400Y-64871600D01*
X175001010Y-64872623D01*
G37*
X175001010Y-64872623D02*
X175142043Y-64878864D01*
X175219521Y-64895077D01*
X175252466Y-64926019D01*
X175259898Y-64976444D01*
X175260000Y-64992249D01*
X175234826Y-65086526D01*
X175141574Y-65135668D01*
X175107600Y-65143379D01*
X174955200Y-65173859D01*
X174955200Y-66037701D01*
X174951490Y-66425354D01*
X174937981Y-66725995D01*
X174911098Y-66954022D01*
X174867268Y-67123832D01*
X174802918Y-67249824D01*
X174714475Y-67346394D01*
X174612273Y-67419465D01*
X174429058Y-67493084D01*
X174184378Y-67539099D01*
X173915187Y-67555126D01*
X173658440Y-67538778D01*
X173465937Y-67493449D01*
X173293415Y-67418729D01*
X173161220Y-67330164D01*
X173064167Y-67213964D01*
X172997071Y-67056339D01*
X172954747Y-66843499D01*
X172932010Y-66561653D01*
X172923674Y-66197013D01*
X172923200Y-66049992D01*
X172923200Y-65186339D01*
X172770800Y-65133212D01*
X172648288Y-65058688D01*
X172618400Y-64975842D01*
X172624290Y-64930251D01*
X172653695Y-64900329D01*
X172724212Y-64882794D01*
X172853439Y-64874362D01*
X173058973Y-64871750D01*
X173177200Y-64871600D01*
X173421180Y-64872325D01*
X173581245Y-64877046D01*
X173675079Y-64889582D01*
X173720368Y-64913750D01*
X173734794Y-64953368D01*
X173736000Y-64992250D01*
X173711697Y-65085352D01*
X173620844Y-65134633D01*
X173579397Y-65144220D01*
X173422794Y-65175541D01*
X173456600Y-66963369D01*
X173599132Y-67085884D01*
X173778290Y-67183850D01*
X173987100Y-67214879D01*
X174197750Y-67184519D01*
X174382427Y-67098318D01*
X174513317Y-66961823D01*
X174543292Y-66897562D01*
X174563867Y-66787477D01*
X174580898Y-66597272D01*
X174593092Y-66348405D01*
X174599161Y-66062333D01*
X174599600Y-65961188D01*
X174599600Y-65186339D01*
X174447200Y-65133212D01*
X174324688Y-65058688D01*
X174294800Y-64975842D01*
X174301525Y-64927431D01*
X174334297Y-64896881D01*
X174412009Y-64880114D01*
X174553552Y-64873047D01*
X174777400Y-64871600D01*
X175001010Y-64872623D01*
G36*
X186069664Y-68837808D02*
G01*
X186157907Y-68946285D01*
X186182000Y-69063348D01*
X186148371Y-69161809D01*
X186069532Y-69261961D01*
X185978558Y-69328093D01*
X185929396Y-69336107D01*
X185862923Y-69319774D01*
X185810815Y-69306426D01*
X185707976Y-69233952D01*
X185657486Y-69106989D01*
X185658299Y-69097595D01*
X185735100Y-69097595D01*
X185785760Y-69179440D01*
X185902372Y-69237230D01*
X186019644Y-69206203D01*
X186083712Y-69132610D01*
X186112646Y-69037440D01*
X186067693Y-68952555D01*
X186040888Y-68924311D01*
X185950139Y-68857154D01*
X185862747Y-68866689D01*
X185832589Y-68881487D01*
X185741490Y-68976799D01*
X185735100Y-69097595D01*
X185658299Y-69097595D01*
X185669897Y-68963653D01*
X185699221Y-68903343D01*
X185810927Y-68806595D01*
X185944206Y-68787997D01*
X186069664Y-68837808D01*
G37*
X186069664Y-68837808D02*
X186157907Y-68946285D01*
X186182000Y-69063348D01*
X186148371Y-69161809D01*
X186069532Y-69261961D01*
X185978558Y-69328093D01*
X185929396Y-69336107D01*
X185862923Y-69319774D01*
X185810815Y-69306426D01*
X185707976Y-69233952D01*
X185657486Y-69106989D01*
X185658299Y-69097595D01*
X185735100Y-69097595D01*
X185785760Y-69179440D01*
X185902372Y-69237230D01*
X186019644Y-69206203D01*
X186083712Y-69132610D01*
X186112646Y-69037440D01*
X186067693Y-68952555D01*
X186040888Y-68924311D01*
X185950139Y-68857154D01*
X185862747Y-68866689D01*
X185832589Y-68881487D01*
X185741490Y-68976799D01*
X185735100Y-69097595D01*
X185658299Y-69097595D01*
X185669897Y-68963653D01*
X185699221Y-68903343D01*
X185810927Y-68806595D01*
X185944206Y-68787997D01*
X186069664Y-68837808D01*
G36*
X185500891Y-68083825D02*
G01*
X185567556Y-68121741D01*
X185572400Y-68142764D01*
X185531905Y-68223475D01*
X185506165Y-68238946D01*
X185440759Y-68301253D01*
X185355665Y-68429826D01*
X185265768Y-68595392D01*
X185185954Y-68768681D01*
X185131105Y-68920419D01*
X185115200Y-69007805D01*
X185141041Y-69118214D01*
X185191400Y-69171229D01*
X185258914Y-69235191D01*
X185267600Y-69271235D01*
X185222949Y-69310937D01*
X185111551Y-69335489D01*
X184967232Y-69344128D01*
X184823821Y-69336089D01*
X184715146Y-69310610D01*
X184679265Y-69284510D01*
X184686411Y-69216610D01*
X184727067Y-69180386D01*
X184790630Y-69094170D01*
X184810400Y-68977359D01*
X184785521Y-68853276D01*
X184721571Y-68689132D01*
X184634573Y-68515445D01*
X184540555Y-68362734D01*
X184455542Y-68261516D01*
X184423454Y-68240488D01*
X184359756Y-68175045D01*
X184353200Y-68142764D01*
X184382408Y-68100740D01*
X184480750Y-68078398D01*
X184658000Y-68072000D01*
X184837946Y-68078545D01*
X184933901Y-68100846D01*
X184962790Y-68142899D01*
X184962800Y-68143966D01*
X184924839Y-68222633D01*
X184899300Y-68237367D01*
X184869115Y-68276200D01*
X184890854Y-68368431D01*
X184929739Y-68457091D01*
X185023678Y-68655382D01*
X185117175Y-68477991D01*
X185173420Y-68359069D01*
X185178719Y-68292155D01*
X185135295Y-68242682D01*
X185132449Y-68240479D01*
X185078005Y-68167110D01*
X185116195Y-68110637D01*
X185238571Y-68077702D01*
X185346798Y-68072000D01*
X185500891Y-68083825D01*
G37*
X185500891Y-68083825D02*
X185567556Y-68121741D01*
X185572400Y-68142764D01*
X185531905Y-68223475D01*
X185506165Y-68238946D01*
X185440759Y-68301253D01*
X185355665Y-68429826D01*
X185265768Y-68595392D01*
X185185954Y-68768681D01*
X185131105Y-68920419D01*
X185115200Y-69007805D01*
X185141041Y-69118214D01*
X185191400Y-69171229D01*
X185258914Y-69235191D01*
X185267600Y-69271235D01*
X185222949Y-69310937D01*
X185111551Y-69335489D01*
X184967232Y-69344128D01*
X184823821Y-69336089D01*
X184715146Y-69310610D01*
X184679265Y-69284510D01*
X184686411Y-69216610D01*
X184727067Y-69180386D01*
X184790630Y-69094170D01*
X184810400Y-68977359D01*
X184785521Y-68853276D01*
X184721571Y-68689132D01*
X184634573Y-68515445D01*
X184540555Y-68362734D01*
X184455542Y-68261516D01*
X184423454Y-68240488D01*
X184359756Y-68175045D01*
X184353200Y-68142764D01*
X184382408Y-68100740D01*
X184480750Y-68078398D01*
X184658000Y-68072000D01*
X184837946Y-68078545D01*
X184933901Y-68100846D01*
X184962790Y-68142899D01*
X184962800Y-68143966D01*
X184924839Y-68222633D01*
X184899300Y-68237367D01*
X184869115Y-68276200D01*
X184890854Y-68368431D01*
X184929739Y-68457091D01*
X185023678Y-68655382D01*
X185117175Y-68477991D01*
X185173420Y-68359069D01*
X185178719Y-68292155D01*
X185135295Y-68242682D01*
X185132449Y-68240479D01*
X185078005Y-68167110D01*
X185116195Y-68110637D01*
X185238571Y-68077702D01*
X185346798Y-68072000D01*
X185500891Y-68083825D01*
G36*
X183845200Y-68275200D02*
G01*
X183825114Y-68412434D01*
X183776561Y-68480082D01*
X183717093Y-68468111D01*
X183667400Y-68376800D01*
X183610949Y-68294424D01*
X183562376Y-68275200D01*
X183525522Y-68296510D01*
X183503026Y-68371653D01*
X183492032Y-68517440D01*
X183489600Y-68704001D01*
X183495242Y-68903302D01*
X183510274Y-69061484D01*
X183531856Y-69152811D01*
X183540400Y-69164200D01*
X183587142Y-69237701D01*
X183591200Y-69268798D01*
X183563009Y-69313479D01*
X183466836Y-69336329D01*
X183311800Y-69342000D01*
X183139159Y-69334082D01*
X183051597Y-69307715D01*
X183032400Y-69271235D01*
X183073376Y-69192811D01*
X183108600Y-69171229D01*
X183147599Y-69133119D01*
X183171276Y-69043308D01*
X183182609Y-68883710D01*
X183184800Y-68708594D01*
X183182697Y-68497590D01*
X183173496Y-68368499D01*
X183152860Y-68301675D01*
X183116451Y-68277468D01*
X183089124Y-68275200D01*
X182999733Y-68318106D01*
X182966880Y-68376800D01*
X182911293Y-68459419D01*
X182859355Y-68478400D01*
X182804165Y-68449847D01*
X182780714Y-68350907D01*
X182778400Y-68275200D01*
X182778400Y-68072000D01*
X183845200Y-68072000D01*
X183845200Y-68275200D01*
G37*
X183845200Y-68275200D02*
X183825114Y-68412434D01*
X183776561Y-68480082D01*
X183717093Y-68468111D01*
X183667400Y-68376800D01*
X183610949Y-68294424D01*
X183562376Y-68275200D01*
X183525522Y-68296510D01*
X183503026Y-68371653D01*
X183492032Y-68517440D01*
X183489600Y-68704001D01*
X183495242Y-68903302D01*
X183510274Y-69061484D01*
X183531856Y-69152811D01*
X183540400Y-69164200D01*
X183587142Y-69237701D01*
X183591200Y-69268798D01*
X183563009Y-69313479D01*
X183466836Y-69336329D01*
X183311800Y-69342000D01*
X183139159Y-69334082D01*
X183051597Y-69307715D01*
X183032400Y-69271235D01*
X183073376Y-69192811D01*
X183108600Y-69171229D01*
X183147599Y-69133119D01*
X183171276Y-69043308D01*
X183182609Y-68883710D01*
X183184800Y-68708594D01*
X183182697Y-68497590D01*
X183173496Y-68368499D01*
X183152860Y-68301675D01*
X183116451Y-68277468D01*
X183089124Y-68275200D01*
X182999733Y-68318106D01*
X182966880Y-68376800D01*
X182911293Y-68459419D01*
X182859355Y-68478400D01*
X182804165Y-68449847D01*
X182780714Y-68350907D01*
X182778400Y-68275200D01*
X182778400Y-68072000D01*
X183845200Y-68072000D01*
X183845200Y-68275200D01*
G36*
X182091783Y-68077852D02*
G01*
X182186805Y-68098597D01*
X182218998Y-68139018D01*
X182219600Y-68148200D01*
X182178936Y-68215549D01*
X182143400Y-68224400D01*
X182102002Y-68270279D01*
X182074439Y-68390182D01*
X182060514Y-68557507D01*
X182060027Y-68745651D01*
X182072781Y-68928012D01*
X182098576Y-69077988D01*
X182137214Y-69168976D01*
X182150532Y-69180386D01*
X182211478Y-69239996D01*
X182181900Y-69291310D01*
X182072860Y-69327559D01*
X181895423Y-69341973D01*
X181886401Y-69342000D01*
X181714765Y-69333925D01*
X181628264Y-69307079D01*
X181610000Y-69271235D01*
X181650976Y-69192811D01*
X181686200Y-69171229D01*
X181725132Y-69133216D01*
X181748798Y-69043627D01*
X181760163Y-68884397D01*
X181762400Y-68707000D01*
X181758358Y-68483204D01*
X181744255Y-68342694D01*
X181717125Y-68267402D01*
X181686200Y-68242770D01*
X181618685Y-68178808D01*
X181610000Y-68142764D01*
X181639208Y-68100740D01*
X181737550Y-68078398D01*
X181914800Y-68072000D01*
X182091783Y-68077852D01*
G37*
X182091783Y-68077852D02*
X182186805Y-68098597D01*
X182218998Y-68139018D01*
X182219600Y-68148200D01*
X182178936Y-68215549D01*
X182143400Y-68224400D01*
X182102002Y-68270279D01*
X182074439Y-68390182D01*
X182060514Y-68557507D01*
X182060027Y-68745651D01*
X182072781Y-68928012D01*
X182098576Y-69077988D01*
X182137214Y-69168976D01*
X182150532Y-69180386D01*
X182211478Y-69239996D01*
X182181900Y-69291310D01*
X182072860Y-69327559D01*
X181895423Y-69341973D01*
X181886401Y-69342000D01*
X181714765Y-69333925D01*
X181628264Y-69307079D01*
X181610000Y-69271235D01*
X181650976Y-69192811D01*
X181686200Y-69171229D01*
X181725132Y-69133216D01*
X181748798Y-69043627D01*
X181760163Y-68884397D01*
X181762400Y-68707000D01*
X181758358Y-68483204D01*
X181744255Y-68342694D01*
X181717125Y-68267402D01*
X181686200Y-68242770D01*
X181618685Y-68178808D01*
X181610000Y-68142764D01*
X181639208Y-68100740D01*
X181737550Y-68078398D01*
X181914800Y-68072000D01*
X182091783Y-68077852D01*
G36*
X180869245Y-68102835D02*
G01*
X180926834Y-68166520D01*
X180951864Y-68274477D01*
X180944397Y-68387120D01*
X180904497Y-68464861D01*
X180868644Y-68478400D01*
X180790645Y-68435917D01*
X180762347Y-68381496D01*
X180698540Y-68296384D01*
X180590421Y-68245681D01*
X180488672Y-68252343D01*
X180483584Y-68255248D01*
X180432377Y-68332157D01*
X180460544Y-68429335D01*
X180556244Y-68522304D01*
X180632100Y-68562251D01*
X180779082Y-68633397D01*
X180896695Y-68707719D01*
X180911500Y-68719932D01*
X180983820Y-68844299D01*
X180995589Y-69004305D01*
X180947784Y-69154739D01*
X180900861Y-69213134D01*
X180770337Y-69280754D01*
X180586466Y-69319411D01*
X180394765Y-69323558D01*
X180251100Y-69292332D01*
X180169310Y-69219833D01*
X180131626Y-69113934D01*
X180139650Y-69010092D01*
X180194985Y-68943764D01*
X180234976Y-68935600D01*
X180329737Y-68978003D01*
X180363659Y-69031715D01*
X180436288Y-69122759D01*
X180551705Y-69162553D01*
X180663169Y-69138102D01*
X180684465Y-69120905D01*
X180728782Y-69026805D01*
X180674858Y-68929316D01*
X180521392Y-68826652D01*
X180441691Y-68788158D01*
X180255168Y-68679984D01*
X180160203Y-68558089D01*
X180146771Y-68406924D01*
X180158348Y-68348657D01*
X180236949Y-68225235D01*
X180384634Y-68131612D01*
X180570717Y-68078399D01*
X180764513Y-68076207D01*
X180869245Y-68102835D01*
G37*
X180869245Y-68102835D02*
X180926834Y-68166520D01*
X180951864Y-68274477D01*
X180944397Y-68387120D01*
X180904497Y-68464861D01*
X180868644Y-68478400D01*
X180790645Y-68435917D01*
X180762347Y-68381496D01*
X180698540Y-68296384D01*
X180590421Y-68245681D01*
X180488672Y-68252343D01*
X180483584Y-68255248D01*
X180432377Y-68332157D01*
X180460544Y-68429335D01*
X180556244Y-68522304D01*
X180632100Y-68562251D01*
X180779082Y-68633397D01*
X180896695Y-68707719D01*
X180911500Y-68719932D01*
X180983820Y-68844299D01*
X180995589Y-69004305D01*
X180947784Y-69154739D01*
X180900861Y-69213134D01*
X180770337Y-69280754D01*
X180586466Y-69319411D01*
X180394765Y-69323558D01*
X180251100Y-69292332D01*
X180169310Y-69219833D01*
X180131626Y-69113934D01*
X180139650Y-69010092D01*
X180194985Y-68943764D01*
X180234976Y-68935600D01*
X180329737Y-68978003D01*
X180363659Y-69031715D01*
X180436288Y-69122759D01*
X180551705Y-69162553D01*
X180663169Y-69138102D01*
X180684465Y-69120905D01*
X180728782Y-69026805D01*
X180674858Y-68929316D01*
X180521392Y-68826652D01*
X180441691Y-68788158D01*
X180255168Y-68679984D01*
X180160203Y-68558089D01*
X180146771Y-68406924D01*
X180158348Y-68348657D01*
X180236949Y-68225235D01*
X180384634Y-68131612D01*
X180570717Y-68078399D01*
X180764513Y-68076207D01*
X180869245Y-68102835D01*
G36*
X178974116Y-68074489D02*
G01*
X179148907Y-68091469D01*
X179287438Y-68122407D01*
X179324000Y-68137416D01*
X179423536Y-68238279D01*
X179471358Y-68390238D01*
X179462438Y-68554153D01*
X179394684Y-68687694D01*
X179340275Y-68760602D01*
X179336412Y-68831612D01*
X179382083Y-68944410D01*
X179388429Y-68957769D01*
X179469774Y-69080913D01*
X179562103Y-69158119D01*
X179575107Y-69163282D01*
X179673070Y-69216916D01*
X179681260Y-69274809D01*
X179609593Y-69321605D01*
X179467985Y-69341952D01*
X179459683Y-69342000D01*
X179331289Y-69336905D01*
X179251540Y-69306362D01*
X179189898Y-69227481D01*
X179120800Y-69088000D01*
X179048352Y-68948255D01*
X178987117Y-68855999D01*
X178959716Y-68834000D01*
X178924252Y-68875330D01*
X178918274Y-68972642D01*
X178938004Y-69085916D01*
X178979664Y-69175132D01*
X178993240Y-69189135D01*
X179047622Y-69262945D01*
X179003624Y-69312594D01*
X178861108Y-69338165D01*
X178736801Y-69342000D01*
X178565165Y-69333925D01*
X178478664Y-69307079D01*
X178460400Y-69271235D01*
X178501376Y-69192811D01*
X178536600Y-69171229D01*
X178575532Y-69133216D01*
X178599198Y-69043627D01*
X178610563Y-68884397D01*
X178612800Y-68707000D01*
X178608758Y-68483204D01*
X178607922Y-68474866D01*
X178917600Y-68474866D01*
X178937748Y-68623536D01*
X178993123Y-68684263D01*
X179076121Y-68652000D01*
X179118479Y-68608196D01*
X179166971Y-68491123D01*
X179147215Y-68373679D01*
X179069731Y-68295207D01*
X179031900Y-68284366D01*
X178958893Y-68285188D01*
X178925949Y-68332647D01*
X178917668Y-68452411D01*
X178917600Y-68474866D01*
X178607922Y-68474866D01*
X178594655Y-68342694D01*
X178567525Y-68267402D01*
X178536600Y-68242770D01*
X178469085Y-68178808D01*
X178460400Y-68142764D01*
X178506208Y-68105606D01*
X178625365Y-68081728D01*
X178790468Y-68071299D01*
X178974116Y-68074489D01*
G37*
X178974116Y-68074489D02*
X179148907Y-68091469D01*
X179287438Y-68122407D01*
X179324000Y-68137416D01*
X179423536Y-68238279D01*
X179471358Y-68390238D01*
X179462438Y-68554153D01*
X179394684Y-68687694D01*
X179340275Y-68760602D01*
X179336412Y-68831612D01*
X179382083Y-68944410D01*
X179388429Y-68957769D01*
X179469774Y-69080913D01*
X179562103Y-69158119D01*
X179575107Y-69163282D01*
X179673070Y-69216916D01*
X179681260Y-69274809D01*
X179609593Y-69321605D01*
X179467985Y-69341952D01*
X179459683Y-69342000D01*
X179331289Y-69336905D01*
X179251540Y-69306362D01*
X179189898Y-69227481D01*
X179120800Y-69088000D01*
X179048352Y-68948255D01*
X178987117Y-68855999D01*
X178959716Y-68834000D01*
X178924252Y-68875330D01*
X178918274Y-68972642D01*
X178938004Y-69085916D01*
X178979664Y-69175132D01*
X178993240Y-69189135D01*
X179047622Y-69262945D01*
X179003624Y-69312594D01*
X178861108Y-69338165D01*
X178736801Y-69342000D01*
X178565165Y-69333925D01*
X178478664Y-69307079D01*
X178460400Y-69271235D01*
X178501376Y-69192811D01*
X178536600Y-69171229D01*
X178575532Y-69133216D01*
X178599198Y-69043627D01*
X178610563Y-68884397D01*
X178612800Y-68707000D01*
X178608758Y-68483204D01*
X178607922Y-68474866D01*
X178917600Y-68474866D01*
X178937748Y-68623536D01*
X178993123Y-68684263D01*
X179076121Y-68652000D01*
X179118479Y-68608196D01*
X179166971Y-68491123D01*
X179147215Y-68373679D01*
X179069731Y-68295207D01*
X179031900Y-68284366D01*
X178958893Y-68285188D01*
X178925949Y-68332647D01*
X178917668Y-68452411D01*
X178917600Y-68474866D01*
X178607922Y-68474866D01*
X178594655Y-68342694D01*
X178567525Y-68267402D01*
X178536600Y-68242770D01*
X178469085Y-68178808D01*
X178460400Y-68142764D01*
X178506208Y-68105606D01*
X178625365Y-68081728D01*
X178790468Y-68071299D01*
X178974116Y-68074489D01*
G36*
X177800000Y-68275200D02*
G01*
X177779914Y-68412434D01*
X177731361Y-68480082D01*
X177671893Y-68468111D01*
X177622200Y-68376800D01*
X177555451Y-68295744D01*
X177440976Y-68275200D01*
X177335372Y-68288187D01*
X177296466Y-68348667D01*
X177292000Y-68427600D01*
X177304587Y-68535544D01*
X177363963Y-68575331D01*
X177444400Y-68580000D01*
X177555952Y-68595966D01*
X177595227Y-68655373D01*
X177596800Y-68681600D01*
X177572850Y-68755968D01*
X177483740Y-68782151D01*
X177444400Y-68783200D01*
X177342008Y-68793111D01*
X177300011Y-68843385D01*
X177292000Y-68961000D01*
X177300357Y-69080379D01*
X177343639Y-69129345D01*
X177449155Y-69138800D01*
X177575140Y-69116577D01*
X177631843Y-69041019D01*
X177632880Y-69037200D01*
X177697216Y-68952948D01*
X177758191Y-68935600D01*
X177822440Y-68951756D01*
X177845048Y-69018414D01*
X177841166Y-69126100D01*
X177825400Y-69316600D01*
X177330100Y-69331139D01*
X177095987Y-69335373D01*
X176946645Y-69330224D01*
X176865518Y-69313752D01*
X176836049Y-69284014D01*
X176834800Y-69273074D01*
X176875809Y-69192992D01*
X176911000Y-69171229D01*
X176949932Y-69133216D01*
X176973598Y-69043627D01*
X176984963Y-68884397D01*
X176987200Y-68707000D01*
X176983158Y-68483204D01*
X176969055Y-68342694D01*
X176941925Y-68267402D01*
X176911000Y-68242770D01*
X176843485Y-68178808D01*
X176834800Y-68142764D01*
X176856604Y-68108496D01*
X176932447Y-68086808D01*
X177077971Y-68075408D01*
X177308817Y-68072002D01*
X177317400Y-68072000D01*
X177800000Y-68072000D01*
X177800000Y-68275200D01*
G37*
X177800000Y-68275200D02*
X177779914Y-68412434D01*
X177731361Y-68480082D01*
X177671893Y-68468111D01*
X177622200Y-68376800D01*
X177555451Y-68295744D01*
X177440976Y-68275200D01*
X177335372Y-68288187D01*
X177296466Y-68348667D01*
X177292000Y-68427600D01*
X177304587Y-68535544D01*
X177363963Y-68575331D01*
X177444400Y-68580000D01*
X177555952Y-68595966D01*
X177595227Y-68655373D01*
X177596800Y-68681600D01*
X177572850Y-68755968D01*
X177483740Y-68782151D01*
X177444400Y-68783200D01*
X177342008Y-68793111D01*
X177300011Y-68843385D01*
X177292000Y-68961000D01*
X177300357Y-69080379D01*
X177343639Y-69129345D01*
X177449155Y-69138800D01*
X177575140Y-69116577D01*
X177631843Y-69041019D01*
X177632880Y-69037200D01*
X177697216Y-68952948D01*
X177758191Y-68935600D01*
X177822440Y-68951756D01*
X177845048Y-69018414D01*
X177841166Y-69126100D01*
X177825400Y-69316600D01*
X177330100Y-69331139D01*
X177095987Y-69335373D01*
X176946645Y-69330224D01*
X176865518Y-69313752D01*
X176836049Y-69284014D01*
X176834800Y-69273074D01*
X176875809Y-69192992D01*
X176911000Y-69171229D01*
X176949932Y-69133216D01*
X176973598Y-69043627D01*
X176984963Y-68884397D01*
X176987200Y-68707000D01*
X176983158Y-68483204D01*
X176969055Y-68342694D01*
X176941925Y-68267402D01*
X176911000Y-68242770D01*
X176843485Y-68178808D01*
X176834800Y-68142764D01*
X176856604Y-68108496D01*
X176932447Y-68086808D01*
X177077971Y-68075408D01*
X177308817Y-68072002D01*
X177317400Y-68072000D01*
X177800000Y-68072000D01*
X177800000Y-68275200D01*
G36*
X176306091Y-68083825D02*
G01*
X176372756Y-68121741D01*
X176377600Y-68142764D01*
X176337022Y-68223120D01*
X176309835Y-68239533D01*
X176266454Y-68295429D01*
X176200540Y-68427170D01*
X176121560Y-68614172D01*
X176050309Y-68803768D01*
X175965460Y-69037632D01*
X175903089Y-69191792D01*
X175853016Y-69282755D01*
X175805061Y-69327026D01*
X175749047Y-69341111D01*
X175718387Y-69342000D01*
X175655371Y-69336130D01*
X175605024Y-69307511D01*
X175557158Y-69239631D01*
X175501584Y-69115973D01*
X175428115Y-68920025D01*
X175386654Y-68804296D01*
X175303912Y-68586228D01*
X175225882Y-68405644D01*
X175162095Y-68283170D01*
X175125940Y-68240061D01*
X175062980Y-68174297D01*
X175056800Y-68142764D01*
X175086008Y-68100740D01*
X175184350Y-68078398D01*
X175361600Y-68072000D01*
X175542606Y-68078781D01*
X175638840Y-68101613D01*
X175666400Y-68142764D01*
X175625487Y-68221525D01*
X175591689Y-68242199D01*
X175556896Y-68268569D01*
X175548730Y-68322622D01*
X175570848Y-68420750D01*
X175626906Y-68579344D01*
X175718041Y-68808600D01*
X175780016Y-68961000D01*
X175895231Y-68630800D01*
X175954216Y-68452151D01*
X175978089Y-68343336D01*
X175969347Y-68279806D01*
X175934936Y-68240479D01*
X175882648Y-68166359D01*
X175922973Y-68109787D01*
X176047523Y-68077273D01*
X176151998Y-68072000D01*
X176306091Y-68083825D01*
G37*
X176306091Y-68083825D02*
X176372756Y-68121741D01*
X176377600Y-68142764D01*
X176337022Y-68223120D01*
X176309835Y-68239533D01*
X176266454Y-68295429D01*
X176200540Y-68427170D01*
X176121560Y-68614172D01*
X176050309Y-68803768D01*
X175965460Y-69037632D01*
X175903089Y-69191792D01*
X175853016Y-69282755D01*
X175805061Y-69327026D01*
X175749047Y-69341111D01*
X175718387Y-69342000D01*
X175655371Y-69336130D01*
X175605024Y-69307511D01*
X175557158Y-69239631D01*
X175501584Y-69115973D01*
X175428115Y-68920025D01*
X175386654Y-68804296D01*
X175303912Y-68586228D01*
X175225882Y-68405644D01*
X175162095Y-68283170D01*
X175125940Y-68240061D01*
X175062980Y-68174297D01*
X175056800Y-68142764D01*
X175086008Y-68100740D01*
X175184350Y-68078398D01*
X175361600Y-68072000D01*
X175542606Y-68078781D01*
X175638840Y-68101613D01*
X175666400Y-68142764D01*
X175625487Y-68221525D01*
X175591689Y-68242199D01*
X175556896Y-68268569D01*
X175548730Y-68322622D01*
X175570848Y-68420750D01*
X175626906Y-68579344D01*
X175718041Y-68808600D01*
X175780016Y-68961000D01*
X175895231Y-68630800D01*
X175954216Y-68452151D01*
X175978089Y-68343336D01*
X175969347Y-68279806D01*
X175934936Y-68240479D01*
X175882648Y-68166359D01*
X175922973Y-68109787D01*
X176047523Y-68077273D01*
X176151998Y-68072000D01*
X176306091Y-68083825D01*
G36*
X174437894Y-68078841D02*
G01*
X174524643Y-68102845D01*
X174548800Y-68148200D01*
X174521369Y-68215803D01*
X174498000Y-68224400D01*
X174473612Y-68272333D01*
X174456231Y-68404924D01*
X174447735Y-68605361D01*
X174447200Y-68678601D01*
X174452534Y-68883912D01*
X174466804Y-69048554D01*
X174487405Y-69147649D01*
X174498000Y-69164200D01*
X174544742Y-69237701D01*
X174548800Y-69268798D01*
X174520609Y-69313479D01*
X174424436Y-69336329D01*
X174269400Y-69342000D01*
X174101807Y-69335409D01*
X174015305Y-69311950D01*
X173990020Y-69266088D01*
X173990000Y-69264205D01*
X174031098Y-69179442D01*
X174066200Y-69157170D01*
X174105433Y-69118725D01*
X174129147Y-69028138D01*
X174140364Y-68867266D01*
X174142400Y-68699970D01*
X174138235Y-68478026D01*
X174123726Y-68339277D01*
X174095848Y-68265582D01*
X174066200Y-68242770D01*
X173998685Y-68178808D01*
X173990000Y-68142764D01*
X174021261Y-68099039D01*
X174125366Y-68076862D01*
X174269400Y-68072000D01*
X174437894Y-68078841D01*
G37*
X174437894Y-68078841D02*
X174524643Y-68102845D01*
X174548800Y-68148200D01*
X174521369Y-68215803D01*
X174498000Y-68224400D01*
X174473612Y-68272333D01*
X174456231Y-68404924D01*
X174447735Y-68605361D01*
X174447200Y-68678601D01*
X174452534Y-68883912D01*
X174466804Y-69048554D01*
X174487405Y-69147649D01*
X174498000Y-69164200D01*
X174544742Y-69237701D01*
X174548800Y-69268798D01*
X174520609Y-69313479D01*
X174424436Y-69336329D01*
X174269400Y-69342000D01*
X174101807Y-69335409D01*
X174015305Y-69311950D01*
X173990020Y-69266088D01*
X173990000Y-69264205D01*
X174031098Y-69179442D01*
X174066200Y-69157170D01*
X174105433Y-69118725D01*
X174129147Y-69028138D01*
X174140364Y-68867266D01*
X174142400Y-68699970D01*
X174138235Y-68478026D01*
X174123726Y-68339277D01*
X174095848Y-68265582D01*
X174066200Y-68242770D01*
X173998685Y-68178808D01*
X173990000Y-68142764D01*
X174021261Y-68099039D01*
X174125366Y-68076862D01*
X174269400Y-68072000D01*
X174437894Y-68078841D01*
G36*
X173302473Y-68081972D02*
G01*
X173371104Y-68115880D01*
X173380400Y-68148200D01*
X173353880Y-68215816D01*
X173331318Y-68224400D01*
X173309573Y-68271988D01*
X173290021Y-68401905D01*
X173274906Y-68594879D01*
X173267818Y-68769897D01*
X173255620Y-69049838D01*
X173231131Y-69231733D01*
X173186337Y-69319048D01*
X173113220Y-69315247D01*
X173003766Y-69223795D01*
X172849957Y-69048158D01*
X172791055Y-68975969D01*
X172491400Y-68605400D01*
X172475466Y-68857717D01*
X172476243Y-69035395D01*
X172509830Y-69138434D01*
X172538966Y-69168117D01*
X172615149Y-69248762D01*
X172594270Y-69305720D01*
X172478574Y-69336754D01*
X172364400Y-69342000D01*
X172200370Y-69332566D01*
X172122121Y-69301611D01*
X172110400Y-69271235D01*
X172151376Y-69192811D01*
X172186600Y-69171229D01*
X172225532Y-69133216D01*
X172249198Y-69043627D01*
X172260563Y-68884397D01*
X172262800Y-68707000D01*
X172258758Y-68483204D01*
X172244655Y-68342694D01*
X172217525Y-68267402D01*
X172186600Y-68242770D01*
X172110492Y-68185967D01*
X172120059Y-68124659D01*
X172202884Y-68080803D01*
X172283185Y-68072000D01*
X172373677Y-68080336D01*
X172452390Y-68116039D01*
X172539303Y-68195150D01*
X172654395Y-68333711D01*
X172727685Y-68428897D01*
X172999400Y-68785795D01*
X173015159Y-68518817D01*
X173014978Y-68355380D01*
X172994721Y-68253904D01*
X172977059Y-68233886D01*
X172927839Y-68174652D01*
X172923200Y-68143966D01*
X172958546Y-68095490D01*
X173073713Y-68074010D01*
X173151800Y-68072000D01*
X173302473Y-68081972D01*
G37*
X173302473Y-68081972D02*
X173371104Y-68115880D01*
X173380400Y-68148200D01*
X173353880Y-68215816D01*
X173331318Y-68224400D01*
X173309573Y-68271988D01*
X173290021Y-68401905D01*
X173274906Y-68594879D01*
X173267818Y-68769897D01*
X173255620Y-69049838D01*
X173231131Y-69231733D01*
X173186337Y-69319048D01*
X173113220Y-69315247D01*
X173003766Y-69223795D01*
X172849957Y-69048158D01*
X172791055Y-68975969D01*
X172491400Y-68605400D01*
X172475466Y-68857717D01*
X172476243Y-69035395D01*
X172509830Y-69138434D01*
X172538966Y-69168117D01*
X172615149Y-69248762D01*
X172594270Y-69305720D01*
X172478574Y-69336754D01*
X172364400Y-69342000D01*
X172200370Y-69332566D01*
X172122121Y-69301611D01*
X172110400Y-69271235D01*
X172151376Y-69192811D01*
X172186600Y-69171229D01*
X172225532Y-69133216D01*
X172249198Y-69043627D01*
X172260563Y-68884397D01*
X172262800Y-68707000D01*
X172258758Y-68483204D01*
X172244655Y-68342694D01*
X172217525Y-68267402D01*
X172186600Y-68242770D01*
X172110492Y-68185967D01*
X172120059Y-68124659D01*
X172202884Y-68080803D01*
X172283185Y-68072000D01*
X172373677Y-68080336D01*
X172452390Y-68116039D01*
X172539303Y-68195150D01*
X172654395Y-68333711D01*
X172727685Y-68428897D01*
X172999400Y-68785795D01*
X173015159Y-68518817D01*
X173014978Y-68355380D01*
X172994721Y-68253904D01*
X172977059Y-68233886D01*
X172927839Y-68174652D01*
X172923200Y-68143966D01*
X172958546Y-68095490D01*
X173073713Y-68074010D01*
X173151800Y-68072000D01*
X173302473Y-68081972D01*
G36*
X171563229Y-68081433D02*
G01*
X171641478Y-68112388D01*
X171653200Y-68142764D01*
X171612223Y-68221188D01*
X171577000Y-68242770D01*
X171536970Y-68282378D01*
X171513144Y-68375658D01*
X171502346Y-68540924D01*
X171500800Y-68682314D01*
X171497624Y-68892971D01*
X171483764Y-69029999D01*
X171452721Y-69121286D01*
X171397994Y-69194715D01*
X171376109Y-69217309D01*
X171209290Y-69318130D01*
X171005018Y-69347777D01*
X170798441Y-69306146D01*
X170652733Y-69219399D01*
X170582761Y-69151630D01*
X170538878Y-69077932D01*
X170513530Y-68971986D01*
X170499160Y-68807479D01*
X170492288Y-68660599D01*
X170479325Y-68464377D01*
X170460051Y-68313933D01*
X170437844Y-68232472D01*
X170428787Y-68224400D01*
X170388319Y-68183177D01*
X170383200Y-68148200D01*
X170408283Y-68102246D01*
X170496301Y-68078588D01*
X170662600Y-68072000D01*
X170835240Y-68079917D01*
X170922802Y-68106284D01*
X170942000Y-68142764D01*
X170901023Y-68221188D01*
X170865800Y-68242770D01*
X170823410Y-68307125D01*
X170796936Y-68441492D01*
X170787439Y-68615372D01*
X170795980Y-68798268D01*
X170823620Y-68959684D01*
X170839142Y-69008492D01*
X170921778Y-69107266D01*
X171045212Y-69144305D01*
X171169395Y-69116447D01*
X171245012Y-69040539D01*
X171279976Y-68924199D01*
X171297581Y-68759973D01*
X171298743Y-68578712D01*
X171284373Y-68411262D01*
X171255384Y-68288473D01*
X171221400Y-68242770D01*
X171153885Y-68178808D01*
X171145200Y-68142764D01*
X171179059Y-68097065D01*
X171290167Y-68075265D01*
X171399200Y-68072000D01*
X171563229Y-68081433D01*
G37*
X171563229Y-68081433D02*
X171641478Y-68112388D01*
X171653200Y-68142764D01*
X171612223Y-68221188D01*
X171577000Y-68242770D01*
X171536970Y-68282378D01*
X171513144Y-68375658D01*
X171502346Y-68540924D01*
X171500800Y-68682314D01*
X171497624Y-68892971D01*
X171483764Y-69029999D01*
X171452721Y-69121286D01*
X171397994Y-69194715D01*
X171376109Y-69217309D01*
X171209290Y-69318130D01*
X171005018Y-69347777D01*
X170798441Y-69306146D01*
X170652733Y-69219399D01*
X170582761Y-69151630D01*
X170538878Y-69077932D01*
X170513530Y-68971986D01*
X170499160Y-68807479D01*
X170492288Y-68660599D01*
X170479325Y-68464377D01*
X170460051Y-68313933D01*
X170437844Y-68232472D01*
X170428787Y-68224400D01*
X170388319Y-68183177D01*
X170383200Y-68148200D01*
X170408283Y-68102246D01*
X170496301Y-68078588D01*
X170662600Y-68072000D01*
X170835240Y-68079917D01*
X170922802Y-68106284D01*
X170942000Y-68142764D01*
X170901023Y-68221188D01*
X170865800Y-68242770D01*
X170823410Y-68307125D01*
X170796936Y-68441492D01*
X170787439Y-68615372D01*
X170795980Y-68798268D01*
X170823620Y-68959684D01*
X170839142Y-69008492D01*
X170921778Y-69107266D01*
X171045212Y-69144305D01*
X171169395Y-69116447D01*
X171245012Y-69040539D01*
X171279976Y-68924199D01*
X171297581Y-68759973D01*
X171298743Y-68578712D01*
X171284373Y-68411262D01*
X171255384Y-68288473D01*
X171221400Y-68242770D01*
X171153885Y-68178808D01*
X171145200Y-68142764D01*
X171179059Y-68097065D01*
X171290167Y-68075265D01*
X171399200Y-68072000D01*
X171563229Y-68081433D01*
G36*
X166178243Y-64846304D02*
G01*
X166728970Y-64847179D01*
X167194441Y-64849668D01*
X167582826Y-64854613D01*
X167902298Y-64862855D01*
X168161027Y-64875239D01*
X168367186Y-64892606D01*
X168528946Y-64915798D01*
X168654479Y-64945659D01*
X168751955Y-64983031D01*
X168829548Y-65028756D01*
X168895428Y-65083677D01*
X168957766Y-65148636D01*
X169006941Y-65204255D01*
X169156134Y-65418305D01*
X169234822Y-65648884D01*
X169242671Y-65908466D01*
X169179347Y-66209525D01*
X169044515Y-66564535D01*
X168965922Y-66733885D01*
X168800898Y-67045872D01*
X168639531Y-67282749D01*
X168463048Y-67468498D01*
X168281852Y-67607679D01*
X168106498Y-67719792D01*
X167944220Y-67804117D01*
X167775158Y-67865259D01*
X167579449Y-67907820D01*
X167337234Y-67936405D01*
X167028649Y-67955618D01*
X166731833Y-67966970D01*
X165849066Y-67995800D01*
X165562814Y-68656200D01*
X165276563Y-69316600D01*
X163029281Y-69329828D01*
X162562612Y-69331732D01*
X162128865Y-69331873D01*
X161738247Y-69330366D01*
X161400961Y-69327327D01*
X161127213Y-69322871D01*
X160927208Y-69317115D01*
X160811149Y-69310173D01*
X160785299Y-69304428D01*
X160805695Y-69247176D01*
X160860094Y-69113007D01*
X160925699Y-68956390D01*
X161290000Y-68956390D01*
X161338942Y-68963149D01*
X161478340Y-68969345D01*
X161697051Y-68974804D01*
X161983931Y-68979354D01*
X162327838Y-68982822D01*
X162717627Y-68985033D01*
X163142155Y-68985815D01*
X163182300Y-68985809D01*
X165074600Y-68985219D01*
X165282205Y-68490509D01*
X165489810Y-67995800D01*
X165040905Y-67981193D01*
X164841579Y-67972499D01*
X164687696Y-67961584D01*
X164602126Y-67950267D01*
X164592000Y-67945483D01*
X164610772Y-67888876D01*
X164650954Y-67794990D01*
X164709908Y-67665600D01*
X165943853Y-67665600D01*
X166341639Y-67663120D01*
X166703576Y-67656074D01*
X167014244Y-67645046D01*
X167258220Y-67630622D01*
X167420082Y-67613389D01*
X167446999Y-67608481D01*
X167806509Y-67501523D01*
X168103108Y-67340143D01*
X168352065Y-67111476D01*
X168568648Y-66802659D01*
X168698826Y-66553853D01*
X168838960Y-66201480D01*
X168903129Y-65897536D01*
X168890774Y-65647782D01*
X168804833Y-65462344D01*
X168752427Y-65396923D01*
X168701130Y-65341381D01*
X168642590Y-65294859D01*
X168568455Y-65256499D01*
X168470372Y-65225442D01*
X168339990Y-65200831D01*
X168168956Y-65181807D01*
X167948918Y-65167512D01*
X167671524Y-65157087D01*
X167328422Y-65149675D01*
X166911258Y-65144417D01*
X166411682Y-65140455D01*
X165821341Y-65136931D01*
X165627308Y-65135843D01*
X162928816Y-65120686D01*
X162719008Y-65599082D01*
X162631548Y-65801442D01*
X162561950Y-65968059D01*
X162518896Y-66077815D01*
X162509200Y-66109539D01*
X162556121Y-66123976D01*
X162681397Y-66135039D01*
X162861798Y-66141016D01*
X162944423Y-66141600D01*
X163154503Y-66143446D01*
X163281190Y-66151715D01*
X163342663Y-66170498D01*
X163357102Y-66203889D01*
X163350620Y-66233051D01*
X163321639Y-66308340D01*
X163259553Y-66459563D01*
X163171603Y-66669411D01*
X163065033Y-66920574D01*
X162973331Y-67134751D01*
X162625067Y-67945000D01*
X162167187Y-67959520D01*
X161709307Y-67974041D01*
X161499653Y-68450211D01*
X161412127Y-68651760D01*
X161342523Y-68817284D01*
X161299558Y-68925741D01*
X161290000Y-68956390D01*
X160925699Y-68956390D01*
X160941751Y-68918072D01*
X161043917Y-68678523D01*
X161130334Y-68478400D01*
X161472069Y-67691000D01*
X161932950Y-67676484D01*
X162393830Y-67661969D01*
X162629315Y-67107038D01*
X162721092Y-66888578D01*
X162796145Y-66705770D01*
X162846653Y-66577957D01*
X162864800Y-66524653D01*
X162817892Y-66512246D01*
X162692719Y-66502758D01*
X162512604Y-66497670D01*
X162433000Y-66497200D01*
X162238376Y-66493068D01*
X162090146Y-66482041D01*
X162011394Y-66466171D01*
X162004499Y-66459100D01*
X162024900Y-66402032D01*
X162079313Y-66268036D01*
X162160991Y-66073249D01*
X162263187Y-65833808D01*
X162349686Y-65633600D01*
X162691574Y-64846200D01*
X165534087Y-64846200D01*
X166178243Y-64846304D01*
G37*
X166178243Y-64846304D02*
X166728970Y-64847179D01*
X167194441Y-64849668D01*
X167582826Y-64854613D01*
X167902298Y-64862855D01*
X168161027Y-64875239D01*
X168367186Y-64892606D01*
X168528946Y-64915798D01*
X168654479Y-64945659D01*
X168751955Y-64983031D01*
X168829548Y-65028756D01*
X168895428Y-65083677D01*
X168957766Y-65148636D01*
X169006941Y-65204255D01*
X169156134Y-65418305D01*
X169234822Y-65648884D01*
X169242671Y-65908466D01*
X169179347Y-66209525D01*
X169044515Y-66564535D01*
X168965922Y-66733885D01*
X168800898Y-67045872D01*
X168639531Y-67282749D01*
X168463048Y-67468498D01*
X168281852Y-67607679D01*
X168106498Y-67719792D01*
X167944220Y-67804117D01*
X167775158Y-67865259D01*
X167579449Y-67907820D01*
X167337234Y-67936405D01*
X167028649Y-67955618D01*
X166731833Y-67966970D01*
X165849066Y-67995800D01*
X165562814Y-68656200D01*
X165276563Y-69316600D01*
X163029281Y-69329828D01*
X162562612Y-69331732D01*
X162128865Y-69331873D01*
X161738247Y-69330366D01*
X161400961Y-69327327D01*
X161127213Y-69322871D01*
X160927208Y-69317115D01*
X160811149Y-69310173D01*
X160785299Y-69304428D01*
X160805695Y-69247176D01*
X160860094Y-69113007D01*
X160925699Y-68956390D01*
X161290000Y-68956390D01*
X161338942Y-68963149D01*
X161478340Y-68969345D01*
X161697051Y-68974804D01*
X161983931Y-68979354D01*
X162327838Y-68982822D01*
X162717627Y-68985033D01*
X163142155Y-68985815D01*
X163182300Y-68985809D01*
X165074600Y-68985219D01*
X165282205Y-68490509D01*
X165489810Y-67995800D01*
X165040905Y-67981193D01*
X164841579Y-67972499D01*
X164687696Y-67961584D01*
X164602126Y-67950267D01*
X164592000Y-67945483D01*
X164610772Y-67888876D01*
X164650954Y-67794990D01*
X164709908Y-67665600D01*
X165943853Y-67665600D01*
X166341639Y-67663120D01*
X166703576Y-67656074D01*
X167014244Y-67645046D01*
X167258220Y-67630622D01*
X167420082Y-67613389D01*
X167446999Y-67608481D01*
X167806509Y-67501523D01*
X168103108Y-67340143D01*
X168352065Y-67111476D01*
X168568648Y-66802659D01*
X168698826Y-66553853D01*
X168838960Y-66201480D01*
X168903129Y-65897536D01*
X168890774Y-65647782D01*
X168804833Y-65462344D01*
X168752427Y-65396923D01*
X168701130Y-65341381D01*
X168642590Y-65294859D01*
X168568455Y-65256499D01*
X168470372Y-65225442D01*
X168339990Y-65200831D01*
X168168956Y-65181807D01*
X167948918Y-65167512D01*
X167671524Y-65157087D01*
X167328422Y-65149675D01*
X166911258Y-65144417D01*
X166411682Y-65140455D01*
X165821341Y-65136931D01*
X165627308Y-65135843D01*
X162928816Y-65120686D01*
X162719008Y-65599082D01*
X162631548Y-65801442D01*
X162561950Y-65968059D01*
X162518896Y-66077815D01*
X162509200Y-66109539D01*
X162556121Y-66123976D01*
X162681397Y-66135039D01*
X162861798Y-66141016D01*
X162944423Y-66141600D01*
X163154503Y-66143446D01*
X163281190Y-66151715D01*
X163342663Y-66170498D01*
X163357102Y-66203889D01*
X163350620Y-66233051D01*
X163321639Y-66308340D01*
X163259553Y-66459563D01*
X163171603Y-66669411D01*
X163065033Y-66920574D01*
X162973331Y-67134751D01*
X162625067Y-67945000D01*
X162167187Y-67959520D01*
X161709307Y-67974041D01*
X161499653Y-68450211D01*
X161412127Y-68651760D01*
X161342523Y-68817284D01*
X161299558Y-68925741D01*
X161290000Y-68956390D01*
X160925699Y-68956390D01*
X160941751Y-68918072D01*
X161043917Y-68678523D01*
X161130334Y-68478400D01*
X161472069Y-67691000D01*
X161932950Y-67676484D01*
X162393830Y-67661969D01*
X162629315Y-67107038D01*
X162721092Y-66888578D01*
X162796145Y-66705770D01*
X162846653Y-66577957D01*
X162864800Y-66524653D01*
X162817892Y-66512246D01*
X162692719Y-66502758D01*
X162512604Y-66497670D01*
X162433000Y-66497200D01*
X162238376Y-66493068D01*
X162090146Y-66482041D01*
X162011394Y-66466171D01*
X162004499Y-66459100D01*
X162024900Y-66402032D01*
X162079313Y-66268036D01*
X162160991Y-66073249D01*
X162263187Y-65833808D01*
X162349686Y-65633600D01*
X162691574Y-64846200D01*
X165534087Y-64846200D01*
X166178243Y-64846304D01*
D11*
%TO.C,R66*%
X228742000Y-52736000D02*
X224902000Y-52736000D01*
X228742000Y-50896000D02*
X224902000Y-50896000D01*
%TO.C,R59*%
X228742000Y-56546000D02*
X224902000Y-56546000D01*
X228742000Y-54706000D02*
X224902000Y-54706000D01*
%TO.C,R52*%
X217058000Y-104044000D02*
X213218000Y-104044000D01*
X217058000Y-102204000D02*
X213218000Y-102204000D01*
%TO.C,R45*%
X217058000Y-107854000D02*
X213218000Y-107854000D01*
X217058000Y-106014000D02*
X213218000Y-106014000D01*
%TO.C,R38*%
X216804000Y-81184000D02*
X212964000Y-81184000D01*
X216804000Y-79344000D02*
X212964000Y-79344000D01*
%TO.C,R31*%
X216804000Y-83154000D02*
X212964000Y-83154000D01*
X216804000Y-84994000D02*
X212964000Y-84994000D01*
%TO.C,R24*%
X174148000Y-130414000D02*
X174148000Y-134254000D01*
X172308000Y-130414000D02*
X172308000Y-134254000D01*
%TO.C,R17*%
X178212000Y-127874000D02*
X178212000Y-131714000D01*
X176372000Y-127874000D02*
X176372000Y-131714000D01*
%TO.C,R10*%
X181244000Y-115220000D02*
X177404000Y-115220000D01*
X181244000Y-113380000D02*
X177404000Y-113380000D01*
%TO.C,R3*%
X181244000Y-119030000D02*
X177404000Y-119030000D01*
X181244000Y-117190000D02*
X177404000Y-117190000D01*
%TO.C,J30*%
X250892000Y-59630000D02*
X252222000Y-59630000D01*
X250892000Y-60960000D02*
X250892000Y-59630000D01*
X250892000Y-62230000D02*
X253552000Y-62230000D01*
X253552000Y-62230000D02*
X253552000Y-64830000D01*
X250892000Y-62230000D02*
X250892000Y-64830000D01*
X250892000Y-64830000D02*
X253552000Y-64830000D01*
%TO.C,J29*%
X250892000Y-53280000D02*
X252222000Y-53280000D01*
X250892000Y-54610000D02*
X250892000Y-53280000D01*
X250892000Y-55880000D02*
X253552000Y-55880000D01*
X253552000Y-55880000D02*
X253552000Y-58480000D01*
X250892000Y-55880000D02*
X250892000Y-58480000D01*
X250892000Y-58480000D02*
X253552000Y-58480000D01*
%TO.C,J28*%
X250892000Y-65980000D02*
X252222000Y-65980000D01*
X250892000Y-67310000D02*
X250892000Y-65980000D01*
X250892000Y-68580000D02*
X253552000Y-68580000D01*
X253552000Y-68580000D02*
X253552000Y-71180000D01*
X250892000Y-68580000D02*
X250892000Y-71180000D01*
X250892000Y-71180000D02*
X253552000Y-71180000D01*
%TO.C,J27*%
X250892000Y-72330000D02*
X252222000Y-72330000D01*
X250892000Y-73660000D02*
X250892000Y-72330000D01*
X250892000Y-74930000D02*
X253552000Y-74930000D01*
X253552000Y-74930000D02*
X253552000Y-77530000D01*
X250892000Y-74930000D02*
X250892000Y-77530000D01*
X250892000Y-77530000D02*
X253552000Y-77530000D01*
%TO.C,J26*%
X250892000Y-78680000D02*
X252222000Y-78680000D01*
X250892000Y-80010000D02*
X250892000Y-78680000D01*
X250892000Y-81280000D02*
X253552000Y-81280000D01*
X253552000Y-81280000D02*
X253552000Y-83880000D01*
X250892000Y-81280000D02*
X250892000Y-83880000D01*
X250892000Y-83880000D02*
X253552000Y-83880000D01*
%TO.C,J25*%
X250892000Y-85030000D02*
X252222000Y-85030000D01*
X250892000Y-86360000D02*
X250892000Y-85030000D01*
X250892000Y-87630000D02*
X253552000Y-87630000D01*
X253552000Y-87630000D02*
X253552000Y-90230000D01*
X250892000Y-87630000D02*
X250892000Y-90230000D01*
X250892000Y-90230000D02*
X253552000Y-90230000D01*
%TO.C,J24*%
X250892000Y-135830000D02*
X252222000Y-135830000D01*
X250892000Y-137160000D02*
X250892000Y-135830000D01*
X250892000Y-138430000D02*
X253552000Y-138430000D01*
X253552000Y-138430000D02*
X253552000Y-141030000D01*
X250892000Y-138430000D02*
X250892000Y-141030000D01*
X250892000Y-141030000D02*
X253552000Y-141030000D01*
%TO.C,J23*%
X250892000Y-142180000D02*
X252222000Y-142180000D01*
X250892000Y-143510000D02*
X250892000Y-142180000D01*
X250892000Y-144780000D02*
X253552000Y-144780000D01*
X253552000Y-144780000D02*
X253552000Y-147380000D01*
X250892000Y-144780000D02*
X250892000Y-147380000D01*
X250892000Y-147380000D02*
X253552000Y-147380000D01*
%TO.C,J22*%
X250892000Y-129480000D02*
X252222000Y-129480000D01*
X250892000Y-130810000D02*
X250892000Y-129480000D01*
X250892000Y-132080000D02*
X253552000Y-132080000D01*
X253552000Y-132080000D02*
X253552000Y-134680000D01*
X250892000Y-132080000D02*
X250892000Y-134680000D01*
X250892000Y-134680000D02*
X253552000Y-134680000D01*
%TO.C,J21*%
X249742000Y-148530000D02*
X249742000Y-149860000D01*
X248412000Y-148530000D02*
X249742000Y-148530000D01*
X247142000Y-148530000D02*
X247142000Y-151190000D01*
X247142000Y-151190000D02*
X244542000Y-151190000D01*
X247142000Y-148530000D02*
X244542000Y-148530000D01*
X244542000Y-148530000D02*
X244542000Y-151190000D01*
%TO.C,J20*%
X243392000Y-148530000D02*
X243392000Y-149860000D01*
X242062000Y-148530000D02*
X243392000Y-148530000D01*
X240792000Y-148530000D02*
X240792000Y-151190000D01*
X240792000Y-151190000D02*
X238192000Y-151190000D01*
X240792000Y-148530000D02*
X238192000Y-148530000D01*
X238192000Y-148530000D02*
X238192000Y-151190000D01*
%TO.C,J19*%
X237042000Y-148530000D02*
X237042000Y-149860000D01*
X235712000Y-148530000D02*
X237042000Y-148530000D01*
X234442000Y-148530000D02*
X234442000Y-151190000D01*
X234442000Y-151190000D02*
X231842000Y-151190000D01*
X234442000Y-148530000D02*
X231842000Y-148530000D01*
X231842000Y-148530000D02*
X231842000Y-151190000D01*
%TO.C,J18*%
X250892000Y-97730000D02*
X252222000Y-97730000D01*
X250892000Y-99060000D02*
X250892000Y-97730000D01*
X250892000Y-100330000D02*
X253552000Y-100330000D01*
X253552000Y-100330000D02*
X253552000Y-102930000D01*
X250892000Y-100330000D02*
X250892000Y-102930000D01*
X250892000Y-102930000D02*
X253552000Y-102930000D01*
%TO.C,J17*%
X250892000Y-91380000D02*
X252222000Y-91380000D01*
X250892000Y-92710000D02*
X250892000Y-91380000D01*
X250892000Y-93980000D02*
X253552000Y-93980000D01*
X253552000Y-93980000D02*
X253552000Y-96580000D01*
X250892000Y-93980000D02*
X250892000Y-96580000D01*
X250892000Y-96580000D02*
X253552000Y-96580000D01*
%TO.C,J16*%
X250892000Y-104080000D02*
X252222000Y-104080000D01*
X250892000Y-105410000D02*
X250892000Y-104080000D01*
X250892000Y-106680000D02*
X253552000Y-106680000D01*
X253552000Y-106680000D02*
X253552000Y-109280000D01*
X250892000Y-106680000D02*
X250892000Y-109280000D01*
X250892000Y-109280000D02*
X253552000Y-109280000D01*
%TO.C,J15*%
X250892000Y-110430000D02*
X252222000Y-110430000D01*
X250892000Y-111760000D02*
X250892000Y-110430000D01*
X250892000Y-113030000D02*
X253552000Y-113030000D01*
X253552000Y-113030000D02*
X253552000Y-115630000D01*
X250892000Y-113030000D02*
X250892000Y-115630000D01*
X250892000Y-115630000D02*
X253552000Y-115630000D01*
%TO.C,J14*%
X250892000Y-116780000D02*
X252222000Y-116780000D01*
X250892000Y-118110000D02*
X250892000Y-116780000D01*
X250892000Y-119380000D02*
X253552000Y-119380000D01*
X253552000Y-119380000D02*
X253552000Y-121980000D01*
X250892000Y-119380000D02*
X250892000Y-121980000D01*
X250892000Y-121980000D02*
X253552000Y-121980000D01*
%TO.C,J13*%
X250892000Y-123130000D02*
X252222000Y-123130000D01*
X250892000Y-124460000D02*
X250892000Y-123130000D01*
X250892000Y-125730000D02*
X253552000Y-125730000D01*
X253552000Y-125730000D02*
X253552000Y-128330000D01*
X250892000Y-125730000D02*
X250892000Y-128330000D01*
X250892000Y-128330000D02*
X253552000Y-128330000D01*
%TO.C,J12*%
X224342000Y-148530000D02*
X224342000Y-149860000D01*
X223012000Y-148530000D02*
X224342000Y-148530000D01*
X221742000Y-148530000D02*
X221742000Y-151190000D01*
X221742000Y-151190000D02*
X219142000Y-151190000D01*
X221742000Y-148530000D02*
X219142000Y-148530000D01*
X219142000Y-148530000D02*
X219142000Y-151190000D01*
%TO.C,J11*%
X230692000Y-148530000D02*
X230692000Y-149860000D01*
X229362000Y-148530000D02*
X230692000Y-148530000D01*
X228092000Y-148530000D02*
X228092000Y-151190000D01*
X228092000Y-151190000D02*
X225492000Y-151190000D01*
X228092000Y-148530000D02*
X225492000Y-148530000D01*
X225492000Y-148530000D02*
X225492000Y-151190000D01*
%TO.C,J10*%
X217992000Y-148530000D02*
X217992000Y-149860000D01*
X216662000Y-148530000D02*
X217992000Y-148530000D01*
X215392000Y-148530000D02*
X215392000Y-151190000D01*
X215392000Y-151190000D02*
X212792000Y-151190000D01*
X215392000Y-148530000D02*
X212792000Y-148530000D01*
X212792000Y-148530000D02*
X212792000Y-151190000D01*
%TO.C,J9*%
X211642000Y-148530000D02*
X211642000Y-149860000D01*
X210312000Y-148530000D02*
X211642000Y-148530000D01*
X209042000Y-148530000D02*
X209042000Y-151190000D01*
X209042000Y-151190000D02*
X206442000Y-151190000D01*
X209042000Y-148530000D02*
X206442000Y-148530000D01*
X206442000Y-148530000D02*
X206442000Y-151190000D01*
%TO.C,J8*%
X205292000Y-148530000D02*
X205292000Y-149860000D01*
X203962000Y-148530000D02*
X205292000Y-148530000D01*
X202692000Y-148530000D02*
X202692000Y-151190000D01*
X202692000Y-151190000D02*
X200092000Y-151190000D01*
X202692000Y-148530000D02*
X200092000Y-148530000D01*
X200092000Y-148530000D02*
X200092000Y-151190000D01*
%TO.C,J7*%
X198942000Y-148530000D02*
X198942000Y-149860000D01*
X197612000Y-148530000D02*
X198942000Y-148530000D01*
X196342000Y-148530000D02*
X196342000Y-151190000D01*
X196342000Y-151190000D02*
X193742000Y-151190000D01*
X196342000Y-148530000D02*
X193742000Y-148530000D01*
X193742000Y-148530000D02*
X193742000Y-151190000D01*
%TO.C,J6*%
X186242000Y-148530000D02*
X186242000Y-149860000D01*
X184912000Y-148530000D02*
X186242000Y-148530000D01*
X183642000Y-148530000D02*
X183642000Y-151190000D01*
X183642000Y-151190000D02*
X181042000Y-151190000D01*
X183642000Y-148530000D02*
X181042000Y-148530000D01*
X181042000Y-148530000D02*
X181042000Y-151190000D01*
%TO.C,J5*%
X179892000Y-148530000D02*
X179892000Y-149860000D01*
X178562000Y-148530000D02*
X179892000Y-148530000D01*
X177292000Y-148530000D02*
X177292000Y-151190000D01*
X177292000Y-151190000D02*
X174692000Y-151190000D01*
X177292000Y-148530000D02*
X174692000Y-148530000D01*
X174692000Y-148530000D02*
X174692000Y-151190000D01*
%TO.C,J4*%
X192592000Y-148530000D02*
X192592000Y-149860000D01*
X191262000Y-148530000D02*
X192592000Y-148530000D01*
X189992000Y-148530000D02*
X189992000Y-151190000D01*
X189992000Y-151190000D02*
X187392000Y-151190000D01*
X189992000Y-148530000D02*
X187392000Y-148530000D01*
X187392000Y-148530000D02*
X187392000Y-151190000D01*
%TO.C,J3*%
X173542000Y-148530000D02*
X173542000Y-149860000D01*
X172212000Y-148530000D02*
X173542000Y-148530000D01*
X170942000Y-148530000D02*
X170942000Y-151190000D01*
X170942000Y-151190000D02*
X168342000Y-151190000D01*
X170942000Y-148530000D02*
X168342000Y-148530000D01*
X168342000Y-148530000D02*
X168342000Y-151190000D01*
%TO.C,J2*%
X167192000Y-148530000D02*
X167192000Y-149860000D01*
X165862000Y-148530000D02*
X167192000Y-148530000D01*
X164592000Y-148530000D02*
X164592000Y-151190000D01*
X164592000Y-151190000D02*
X161992000Y-151190000D01*
X164592000Y-148530000D02*
X161992000Y-148530000D01*
X161992000Y-148530000D02*
X161992000Y-151190000D01*
%TO.C,J1*%
X160842000Y-148530000D02*
X160842000Y-149860000D01*
X159512000Y-148530000D02*
X160842000Y-148530000D01*
X158242000Y-148530000D02*
X158242000Y-151190000D01*
X158242000Y-151190000D02*
X155642000Y-151190000D01*
X158242000Y-148530000D02*
X155642000Y-148530000D01*
X155642000Y-148530000D02*
X155642000Y-151190000D01*
%TO.C,U9*%
X212150000Y-67674000D02*
X212150000Y-66024000D01*
X194250000Y-67674000D02*
X212150000Y-67674000D01*
X194250000Y-62374000D02*
X194250000Y-67674000D01*
X212150000Y-62374000D02*
X194250000Y-62374000D01*
X212150000Y-64024000D02*
X212150000Y-62374000D01*
X212150000Y-66024000D02*
G75*
G02*
X212150000Y-64024000I0J1000000D01*
G01*
%TO.C,U8*%
X243138000Y-70722000D02*
X243138000Y-69072000D01*
X222698000Y-70722000D02*
X243138000Y-70722000D01*
X222698000Y-65422000D02*
X222698000Y-70722000D01*
X243138000Y-65422000D02*
X222698000Y-65422000D01*
X243138000Y-67072000D02*
X243138000Y-65422000D01*
X243138000Y-69072000D02*
G75*
G02*
X243138000Y-67072000I0J1000000D01*
G01*
%TO.C,U7*%
X243138000Y-137270000D02*
X243138000Y-135620000D01*
X222698000Y-137270000D02*
X243138000Y-137270000D01*
X222698000Y-131970000D02*
X222698000Y-137270000D01*
X243138000Y-131970000D02*
X222698000Y-131970000D01*
X243138000Y-133620000D02*
X243138000Y-131970000D01*
X243138000Y-135620000D02*
G75*
G02*
X243138000Y-133620000I0J1000000D01*
G01*
%TO.C,U6*%
X200466000Y-94472000D02*
G75*
G02*
X200466000Y-92472000I0J1000000D01*
G01*
X200466000Y-92472000D02*
X200466000Y-90822000D01*
X200466000Y-90822000D02*
X182566000Y-90822000D01*
X182566000Y-90822000D02*
X182566000Y-96122000D01*
X182566000Y-96122000D02*
X200466000Y-96122000D01*
X200466000Y-96122000D02*
X200466000Y-94472000D01*
%TO.C,U5*%
X243138000Y-111870000D02*
X243138000Y-110220000D01*
X222698000Y-111870000D02*
X243138000Y-111870000D01*
X222698000Y-106570000D02*
X222698000Y-111870000D01*
X243138000Y-106570000D02*
X222698000Y-106570000D01*
X243138000Y-108220000D02*
X243138000Y-106570000D01*
X243138000Y-110220000D02*
G75*
G02*
X243138000Y-108220000I0J1000000D01*
G01*
%TO.C,U4*%
X209440000Y-137220000D02*
X211090000Y-137220000D01*
X209440000Y-116780000D02*
X209440000Y-137220000D01*
X214740000Y-116780000D02*
X209440000Y-116780000D01*
X214740000Y-137220000D02*
X214740000Y-116780000D01*
X213090000Y-137220000D02*
X214740000Y-137220000D01*
X211090000Y-137220000D02*
G75*
G02*
X213090000Y-137220000I1000000J0D01*
G01*
%TO.C,U3*%
X159826000Y-130158000D02*
X159826000Y-128508000D01*
X141926000Y-130158000D02*
X159826000Y-130158000D01*
X141926000Y-124858000D02*
X141926000Y-130158000D01*
X159826000Y-124858000D02*
X141926000Y-124858000D01*
X159826000Y-126508000D02*
X159826000Y-124858000D01*
X159826000Y-128508000D02*
G75*
G02*
X159826000Y-126508000I0J1000000D01*
G01*
%TO.C,U2*%
X191914000Y-137220000D02*
X193564000Y-137220000D01*
X191914000Y-116780000D02*
X191914000Y-137220000D01*
X197214000Y-116780000D02*
X191914000Y-116780000D01*
X197214000Y-137220000D02*
X197214000Y-116780000D01*
X195564000Y-137220000D02*
X197214000Y-137220000D01*
X193564000Y-137220000D02*
G75*
G02*
X195564000Y-137220000I1000000J0D01*
G01*
D12*
%TO.C,U1*%
G36*
X147627000Y-79143000D02*
G01*
X147373000Y-78889000D01*
X147754000Y-78635000D01*
X148008000Y-78889000D01*
X147627000Y-79143000D01*
G37*
X147627000Y-79143000D02*
X147373000Y-78889000D01*
X147754000Y-78635000D01*
X148008000Y-78889000D01*
X147627000Y-79143000D01*
G36*
X147246000Y-78762000D02*
G01*
X146992000Y-78508000D01*
X147373000Y-78254000D01*
X147627000Y-78508000D01*
X147246000Y-78762000D01*
G37*
X147246000Y-78762000D02*
X146992000Y-78508000D01*
X147373000Y-78254000D01*
X147627000Y-78508000D01*
X147246000Y-78762000D01*
G36*
X148008000Y-76857000D02*
G01*
X147754000Y-76603000D01*
X148135000Y-76349000D01*
X148389000Y-76603000D01*
X148008000Y-76857000D01*
G37*
X148008000Y-76857000D02*
X147754000Y-76603000D01*
X148135000Y-76349000D01*
X148389000Y-76603000D01*
X148008000Y-76857000D01*
G36*
X147500000Y-77238000D02*
G01*
X147246000Y-76984000D01*
X147627000Y-76730000D01*
X147881000Y-76984000D01*
X147500000Y-77238000D01*
G37*
X147500000Y-77238000D02*
X147246000Y-76984000D01*
X147627000Y-76730000D01*
X147881000Y-76984000D01*
X147500000Y-77238000D01*
G36*
X146992000Y-77619000D02*
G01*
X146738000Y-77365000D01*
X147119000Y-77111000D01*
X147373000Y-77365000D01*
X146992000Y-77619000D01*
G37*
X146992000Y-77619000D02*
X146738000Y-77365000D01*
X147119000Y-77111000D01*
X147373000Y-77365000D01*
X146992000Y-77619000D01*
G36*
X147881000Y-77619000D02*
G01*
X147627000Y-77365000D01*
X148008000Y-77111000D01*
X148262000Y-77365000D01*
X147881000Y-77619000D01*
G37*
X147881000Y-77619000D02*
X147627000Y-77365000D01*
X148008000Y-77111000D01*
X148262000Y-77365000D01*
X147881000Y-77619000D01*
G36*
X147373000Y-78000000D02*
G01*
X147119000Y-77746000D01*
X147500000Y-77492000D01*
X147754000Y-77746000D01*
X147373000Y-78000000D01*
G37*
X147373000Y-78000000D02*
X147119000Y-77746000D01*
X147500000Y-77492000D01*
X147754000Y-77746000D01*
X147373000Y-78000000D01*
G36*
X146865000Y-78381000D02*
G01*
X146611000Y-78127000D01*
X146992000Y-77873000D01*
X147246000Y-78127000D01*
X146865000Y-78381000D01*
G37*
X146865000Y-78381000D02*
X146611000Y-78127000D01*
X146992000Y-77873000D01*
X147246000Y-78127000D01*
X146865000Y-78381000D01*
D13*
X138430000Y-45466000D02*
X156210000Y-45466000D01*
X138430000Y-106426000D02*
X138430000Y-45466000D01*
X156210000Y-106426000D02*
X138430000Y-106426000D01*
X156210000Y-45466000D02*
X156210000Y-106426000D01*
X143510000Y-50546000D02*
X143510000Y-45466000D01*
X151130000Y-50546000D02*
X151130000Y-45466000D01*
X143510000Y-50546000D02*
X151130000Y-50546000D01*
X151130000Y-44196000D02*
X151130000Y-45466000D01*
X143510000Y-44196000D02*
X151130000Y-44196000D01*
X143510000Y-45466000D02*
X143510000Y-44196000D01*
X153670000Y-106426000D02*
X153670000Y-93726000D01*
X153670000Y-93726000D02*
X140970000Y-93726000D01*
X140970000Y-93726000D02*
X140970000Y-106426000D01*
X152400000Y-106426000D02*
X152400000Y-105156000D01*
X152400000Y-105156000D02*
X142240000Y-105156000D01*
X142240000Y-105156000D02*
X142240000Y-106426000D01*
X148590000Y-89916000D02*
X146050000Y-89916000D01*
X146050000Y-89916000D02*
X146050000Y-86106000D01*
X146050000Y-86106000D02*
X148590000Y-86106000D01*
X148590000Y-86106000D02*
X148590000Y-89916000D01*
X144020800Y-51765200D02*
X144020800Y-64465200D01*
X144020800Y-64465200D02*
X141480800Y-64465200D01*
X141480800Y-64465200D02*
X141480800Y-51765200D01*
X141480800Y-51765200D02*
X144020800Y-51765200D01*
X144020800Y-51765200D02*
X144020800Y-54305200D01*
X144020800Y-54305200D02*
X141480800Y-54305200D01*
X153421600Y-58696000D02*
X147421600Y-58696000D01*
X147421600Y-58696000D02*
X147421600Y-62696000D01*
X147421600Y-62696000D02*
X153671600Y-62696000D01*
X153671600Y-62696000D02*
X153671600Y-58696000D01*
X153671600Y-58696000D02*
X153421600Y-58696000D01*
X140970000Y-68326000D02*
X140970000Y-81026000D01*
X140970000Y-81026000D02*
X153670000Y-81026000D01*
X153670000Y-81026000D02*
X153670000Y-68326000D01*
X153670000Y-68326000D02*
X140970000Y-68326000D01*
X148218026Y-88011000D02*
G75*
G03*
X148218026Y-88011000I-898026J0D01*
G01*
D11*
%TO.C,R70*%
X196200000Y-58324000D02*
X200040000Y-58324000D01*
X196200000Y-56484000D02*
X200040000Y-56484000D01*
%TO.C,R69*%
X196200000Y-50704000D02*
X200040000Y-50704000D01*
X196200000Y-48864000D02*
X200040000Y-48864000D01*
%TO.C,R68*%
X189880000Y-48864000D02*
X186040000Y-48864000D01*
X189880000Y-50704000D02*
X186040000Y-50704000D01*
%TO.C,R67*%
X196200000Y-54514000D02*
X200040000Y-54514000D01*
X196200000Y-52674000D02*
X200040000Y-52674000D01*
%TO.C,R65*%
X186040000Y-58324000D02*
X189880000Y-58324000D01*
X186040000Y-56484000D02*
X189880000Y-56484000D01*
%TO.C,R64*%
X189880000Y-52674000D02*
X186040000Y-52674000D01*
X189880000Y-54514000D02*
X186040000Y-54514000D01*
%TO.C,R63*%
X210200000Y-56484000D02*
X206360000Y-56484000D01*
X210200000Y-58324000D02*
X206360000Y-58324000D01*
%TO.C,R62*%
X210200000Y-48864000D02*
X206360000Y-48864000D01*
X210200000Y-50704000D02*
X206360000Y-50704000D01*
%TO.C,R61*%
X216520000Y-50704000D02*
X220360000Y-50704000D01*
X216520000Y-48864000D02*
X220360000Y-48864000D01*
%TO.C,R60*%
X210200000Y-52674000D02*
X206360000Y-52674000D01*
X210200000Y-54514000D02*
X206360000Y-54514000D01*
%TO.C,R58*%
X220360000Y-56484000D02*
X216520000Y-56484000D01*
X220360000Y-58324000D02*
X216520000Y-58324000D01*
%TO.C,R57*%
X216520000Y-54514000D02*
X220360000Y-54514000D01*
X216520000Y-52674000D02*
X220360000Y-52674000D01*
%TO.C,R56*%
X198516000Y-102012000D02*
X194676000Y-102012000D01*
X198516000Y-100172000D02*
X194676000Y-100172000D01*
%TO.C,R55*%
X198516000Y-109632000D02*
X194676000Y-109632000D01*
X198516000Y-107792000D02*
X194676000Y-107792000D01*
%TO.C,R54*%
X204836000Y-107792000D02*
X208676000Y-107792000D01*
X204836000Y-109632000D02*
X208676000Y-109632000D01*
%TO.C,R53*%
X198516000Y-105822000D02*
X194676000Y-105822000D01*
X198516000Y-103982000D02*
X194676000Y-103982000D01*
%TO.C,R51*%
X208676000Y-102012000D02*
X204836000Y-102012000D01*
X208676000Y-100172000D02*
X204836000Y-100172000D01*
%TO.C,R50*%
X204836000Y-103982000D02*
X208676000Y-103982000D01*
X204836000Y-105822000D02*
X208676000Y-105822000D01*
%TO.C,R49*%
X184516000Y-100172000D02*
X188356000Y-100172000D01*
X184516000Y-102012000D02*
X188356000Y-102012000D01*
%TO.C,R48*%
X184516000Y-107792000D02*
X188356000Y-107792000D01*
X184516000Y-109632000D02*
X188356000Y-109632000D01*
%TO.C,R47*%
X178196000Y-109632000D02*
X174356000Y-109632000D01*
X178196000Y-107792000D02*
X174356000Y-107792000D01*
%TO.C,R46*%
X184516000Y-103982000D02*
X188356000Y-103982000D01*
X184516000Y-105822000D02*
X188356000Y-105822000D01*
%TO.C,R44*%
X174356000Y-100172000D02*
X178196000Y-100172000D01*
X174356000Y-102012000D02*
X178196000Y-102012000D01*
%TO.C,R43*%
X178196000Y-105822000D02*
X174356000Y-105822000D01*
X178196000Y-103982000D02*
X174356000Y-103982000D01*
%TO.C,R42*%
X184516000Y-84932000D02*
X188356000Y-84932000D01*
X184516000Y-86772000D02*
X188356000Y-86772000D01*
%TO.C,R41*%
X184516000Y-77312000D02*
X188356000Y-77312000D01*
X184516000Y-79152000D02*
X188356000Y-79152000D01*
%TO.C,R40*%
X177942000Y-79152000D02*
X174102000Y-79152000D01*
X177942000Y-77312000D02*
X174102000Y-77312000D01*
%TO.C,R39*%
X184516000Y-81122000D02*
X188356000Y-81122000D01*
X184516000Y-82962000D02*
X188356000Y-82962000D01*
%TO.C,R37*%
X172862000Y-86772000D02*
X169022000Y-86772000D01*
X172862000Y-84932000D02*
X169022000Y-84932000D01*
%TO.C,R36*%
X177942000Y-82962000D02*
X174102000Y-82962000D01*
X177942000Y-81122000D02*
X174102000Y-81122000D01*
%TO.C,R35*%
X198516000Y-86772000D02*
X194676000Y-86772000D01*
X198516000Y-84932000D02*
X194676000Y-84932000D01*
%TO.C,R34*%
X198516000Y-79152000D02*
X194676000Y-79152000D01*
X198516000Y-77312000D02*
X194676000Y-77312000D01*
%TO.C,R33*%
X204836000Y-77312000D02*
X208676000Y-77312000D01*
X204836000Y-79152000D02*
X208676000Y-79152000D01*
%TO.C,R32*%
X198516000Y-82962000D02*
X194676000Y-82962000D01*
X198516000Y-81122000D02*
X194676000Y-81122000D01*
%TO.C,R30*%
X208676000Y-86772000D02*
X204836000Y-86772000D01*
X208676000Y-84932000D02*
X204836000Y-84932000D01*
%TO.C,R29*%
X204836000Y-81122000D02*
X208676000Y-81122000D01*
X204836000Y-82962000D02*
X208676000Y-82962000D01*
%TO.C,R28*%
X157876000Y-134208000D02*
X154036000Y-134208000D01*
X157876000Y-136048000D02*
X154036000Y-136048000D01*
%TO.C,R27*%
X157876000Y-141828000D02*
X154036000Y-141828000D01*
X157876000Y-143668000D02*
X154036000Y-143668000D01*
%TO.C,R26*%
X163942000Y-143668000D02*
X167782000Y-143668000D01*
X163942000Y-141828000D02*
X167782000Y-141828000D01*
%TO.C,R25*%
X157876000Y-138018000D02*
X154036000Y-138018000D01*
X157876000Y-139858000D02*
X154036000Y-139858000D01*
%TO.C,R23*%
X167782000Y-134208000D02*
X163942000Y-134208000D01*
X167782000Y-136048000D02*
X163942000Y-136048000D01*
%TO.C,R22*%
X163942000Y-139858000D02*
X167782000Y-139858000D01*
X163942000Y-138018000D02*
X167782000Y-138018000D01*
%TO.C,R21*%
X143876000Y-136048000D02*
X147716000Y-136048000D01*
X143876000Y-134208000D02*
X147716000Y-134208000D01*
%TO.C,R20*%
X143876000Y-143668000D02*
X147716000Y-143668000D01*
X143876000Y-141828000D02*
X147716000Y-141828000D01*
%TO.C,R19*%
X137556000Y-141828000D02*
X133716000Y-141828000D01*
X137556000Y-143668000D02*
X133716000Y-143668000D01*
%TO.C,R18*%
X143876000Y-139858000D02*
X147716000Y-139858000D01*
X143876000Y-138018000D02*
X147716000Y-138018000D01*
%TO.C,R16*%
X133716000Y-136048000D02*
X137556000Y-136048000D01*
X133716000Y-134208000D02*
X137556000Y-134208000D01*
%TO.C,R15*%
X137556000Y-138018000D02*
X133716000Y-138018000D01*
X137556000Y-139858000D02*
X133716000Y-139858000D01*
%TO.C,R14*%
X143876000Y-120808000D02*
X147716000Y-120808000D01*
X143876000Y-118968000D02*
X147716000Y-118968000D01*
%TO.C,R13*%
X143876000Y-113188000D02*
X147716000Y-113188000D01*
X143876000Y-111348000D02*
X147716000Y-111348000D01*
%TO.C,R12*%
X137556000Y-111348000D02*
X133716000Y-111348000D01*
X137556000Y-113188000D02*
X133716000Y-113188000D01*
%TO.C,R11*%
X143876000Y-116998000D02*
X147716000Y-116998000D01*
X143876000Y-115158000D02*
X147716000Y-115158000D01*
%TO.C,R9*%
X133716000Y-120808000D02*
X137556000Y-120808000D01*
X133716000Y-118968000D02*
X137556000Y-118968000D01*
%TO.C,R8*%
X137556000Y-115158000D02*
X133716000Y-115158000D01*
X137556000Y-116998000D02*
X133716000Y-116998000D01*
%TO.C,R7*%
X157876000Y-118968000D02*
X154036000Y-118968000D01*
X157876000Y-120808000D02*
X154036000Y-120808000D01*
%TO.C,R6*%
X157876000Y-111348000D02*
X154036000Y-111348000D01*
X157876000Y-113188000D02*
X154036000Y-113188000D01*
%TO.C,R5*%
X164196000Y-113188000D02*
X168036000Y-113188000D01*
X164196000Y-111348000D02*
X168036000Y-111348000D01*
%TO.C,R4*%
X157876000Y-115158000D02*
X154036000Y-115158000D01*
X157876000Y-116998000D02*
X154036000Y-116998000D01*
%TO.C,R2*%
X168036000Y-118968000D02*
X164196000Y-118968000D01*
X168036000Y-120808000D02*
X164196000Y-120808000D01*
%TO.C,R1*%
X173116000Y-115158000D02*
X169276000Y-115158000D01*
X173116000Y-116998000D02*
X169276000Y-116998000D01*
%TO.C,R66*%
D13*
X226179142Y-54188380D02*
X225845809Y-53712190D01*
X225607714Y-54188380D02*
X225607714Y-53188380D01*
X225988666Y-53188380D01*
X226083904Y-53236000D01*
X226131523Y-53283619D01*
X226179142Y-53378857D01*
X226179142Y-53521714D01*
X226131523Y-53616952D01*
X226083904Y-53664571D01*
X225988666Y-53712190D01*
X225607714Y-53712190D01*
X227036285Y-53188380D02*
X226845809Y-53188380D01*
X226750571Y-53236000D01*
X226702952Y-53283619D01*
X226607714Y-53426476D01*
X226560095Y-53616952D01*
X226560095Y-53997904D01*
X226607714Y-54093142D01*
X226655333Y-54140761D01*
X226750571Y-54188380D01*
X226941047Y-54188380D01*
X227036285Y-54140761D01*
X227083904Y-54093142D01*
X227131523Y-53997904D01*
X227131523Y-53759809D01*
X227083904Y-53664571D01*
X227036285Y-53616952D01*
X226941047Y-53569333D01*
X226750571Y-53569333D01*
X226655333Y-53616952D01*
X226607714Y-53664571D01*
X226560095Y-53759809D01*
X227988666Y-53188380D02*
X227798190Y-53188380D01*
X227702952Y-53236000D01*
X227655333Y-53283619D01*
X227560095Y-53426476D01*
X227512476Y-53616952D01*
X227512476Y-53997904D01*
X227560095Y-54093142D01*
X227607714Y-54140761D01*
X227702952Y-54188380D01*
X227893428Y-54188380D01*
X227988666Y-54140761D01*
X228036285Y-54093142D01*
X228083904Y-53997904D01*
X228083904Y-53759809D01*
X228036285Y-53664571D01*
X227988666Y-53616952D01*
X227893428Y-53569333D01*
X227702952Y-53569333D01*
X227607714Y-53616952D01*
X227560095Y-53664571D01*
X227512476Y-53759809D01*
%TO.C,R59*%
X226179142Y-57998380D02*
X225845809Y-57522190D01*
X225607714Y-57998380D02*
X225607714Y-56998380D01*
X225988666Y-56998380D01*
X226083904Y-57046000D01*
X226131523Y-57093619D01*
X226179142Y-57188857D01*
X226179142Y-57331714D01*
X226131523Y-57426952D01*
X226083904Y-57474571D01*
X225988666Y-57522190D01*
X225607714Y-57522190D01*
X227083904Y-56998380D02*
X226607714Y-56998380D01*
X226560095Y-57474571D01*
X226607714Y-57426952D01*
X226702952Y-57379333D01*
X226941047Y-57379333D01*
X227036285Y-57426952D01*
X227083904Y-57474571D01*
X227131523Y-57569809D01*
X227131523Y-57807904D01*
X227083904Y-57903142D01*
X227036285Y-57950761D01*
X226941047Y-57998380D01*
X226702952Y-57998380D01*
X226607714Y-57950761D01*
X226560095Y-57903142D01*
X227607714Y-57998380D02*
X227798190Y-57998380D01*
X227893428Y-57950761D01*
X227941047Y-57903142D01*
X228036285Y-57760285D01*
X228083904Y-57569809D01*
X228083904Y-57188857D01*
X228036285Y-57093619D01*
X227988666Y-57046000D01*
X227893428Y-56998380D01*
X227702952Y-56998380D01*
X227607714Y-57046000D01*
X227560095Y-57093619D01*
X227512476Y-57188857D01*
X227512476Y-57426952D01*
X227560095Y-57522190D01*
X227607714Y-57569809D01*
X227702952Y-57617428D01*
X227893428Y-57617428D01*
X227988666Y-57569809D01*
X228036285Y-57522190D01*
X228083904Y-57426952D01*
%TO.C,R52*%
X214495142Y-105496380D02*
X214161809Y-105020190D01*
X213923714Y-105496380D02*
X213923714Y-104496380D01*
X214304666Y-104496380D01*
X214399904Y-104544000D01*
X214447523Y-104591619D01*
X214495142Y-104686857D01*
X214495142Y-104829714D01*
X214447523Y-104924952D01*
X214399904Y-104972571D01*
X214304666Y-105020190D01*
X213923714Y-105020190D01*
X215399904Y-104496380D02*
X214923714Y-104496380D01*
X214876095Y-104972571D01*
X214923714Y-104924952D01*
X215018952Y-104877333D01*
X215257047Y-104877333D01*
X215352285Y-104924952D01*
X215399904Y-104972571D01*
X215447523Y-105067809D01*
X215447523Y-105305904D01*
X215399904Y-105401142D01*
X215352285Y-105448761D01*
X215257047Y-105496380D01*
X215018952Y-105496380D01*
X214923714Y-105448761D01*
X214876095Y-105401142D01*
X215828476Y-104591619D02*
X215876095Y-104544000D01*
X215971333Y-104496380D01*
X216209428Y-104496380D01*
X216304666Y-104544000D01*
X216352285Y-104591619D01*
X216399904Y-104686857D01*
X216399904Y-104782095D01*
X216352285Y-104924952D01*
X215780857Y-105496380D01*
X216399904Y-105496380D01*
%TO.C,R45*%
X214495142Y-109306380D02*
X214161809Y-108830190D01*
X213923714Y-109306380D02*
X213923714Y-108306380D01*
X214304666Y-108306380D01*
X214399904Y-108354000D01*
X214447523Y-108401619D01*
X214495142Y-108496857D01*
X214495142Y-108639714D01*
X214447523Y-108734952D01*
X214399904Y-108782571D01*
X214304666Y-108830190D01*
X213923714Y-108830190D01*
X215352285Y-108639714D02*
X215352285Y-109306380D01*
X215114190Y-108258761D02*
X214876095Y-108973047D01*
X215495142Y-108973047D01*
X216352285Y-108306380D02*
X215876095Y-108306380D01*
X215828476Y-108782571D01*
X215876095Y-108734952D01*
X215971333Y-108687333D01*
X216209428Y-108687333D01*
X216304666Y-108734952D01*
X216352285Y-108782571D01*
X216399904Y-108877809D01*
X216399904Y-109115904D01*
X216352285Y-109211142D01*
X216304666Y-109258761D01*
X216209428Y-109306380D01*
X215971333Y-109306380D01*
X215876095Y-109258761D01*
X215828476Y-109211142D01*
%TO.C,R38*%
X214241142Y-82636380D02*
X213907809Y-82160190D01*
X213669714Y-82636380D02*
X213669714Y-81636380D01*
X214050666Y-81636380D01*
X214145904Y-81684000D01*
X214193523Y-81731619D01*
X214241142Y-81826857D01*
X214241142Y-81969714D01*
X214193523Y-82064952D01*
X214145904Y-82112571D01*
X214050666Y-82160190D01*
X213669714Y-82160190D01*
X214574476Y-81636380D02*
X215193523Y-81636380D01*
X214860190Y-82017333D01*
X215003047Y-82017333D01*
X215098285Y-82064952D01*
X215145904Y-82112571D01*
X215193523Y-82207809D01*
X215193523Y-82445904D01*
X215145904Y-82541142D01*
X215098285Y-82588761D01*
X215003047Y-82636380D01*
X214717333Y-82636380D01*
X214622095Y-82588761D01*
X214574476Y-82541142D01*
X215764952Y-82064952D02*
X215669714Y-82017333D01*
X215622095Y-81969714D01*
X215574476Y-81874476D01*
X215574476Y-81826857D01*
X215622095Y-81731619D01*
X215669714Y-81684000D01*
X215764952Y-81636380D01*
X215955428Y-81636380D01*
X216050666Y-81684000D01*
X216098285Y-81731619D01*
X216145904Y-81826857D01*
X216145904Y-81874476D01*
X216098285Y-81969714D01*
X216050666Y-82017333D01*
X215955428Y-82064952D01*
X215764952Y-82064952D01*
X215669714Y-82112571D01*
X215622095Y-82160190D01*
X215574476Y-82255428D01*
X215574476Y-82445904D01*
X215622095Y-82541142D01*
X215669714Y-82588761D01*
X215764952Y-82636380D01*
X215955428Y-82636380D01*
X216050666Y-82588761D01*
X216098285Y-82541142D01*
X216145904Y-82445904D01*
X216145904Y-82255428D01*
X216098285Y-82160190D01*
X216050666Y-82112571D01*
X215955428Y-82064952D01*
%TO.C,R31*%
X214241142Y-86446380D02*
X213907809Y-85970190D01*
X213669714Y-86446380D02*
X213669714Y-85446380D01*
X214050666Y-85446380D01*
X214145904Y-85494000D01*
X214193523Y-85541619D01*
X214241142Y-85636857D01*
X214241142Y-85779714D01*
X214193523Y-85874952D01*
X214145904Y-85922571D01*
X214050666Y-85970190D01*
X213669714Y-85970190D01*
X214574476Y-85446380D02*
X215193523Y-85446380D01*
X214860190Y-85827333D01*
X215003047Y-85827333D01*
X215098285Y-85874952D01*
X215145904Y-85922571D01*
X215193523Y-86017809D01*
X215193523Y-86255904D01*
X215145904Y-86351142D01*
X215098285Y-86398761D01*
X215003047Y-86446380D01*
X214717333Y-86446380D01*
X214622095Y-86398761D01*
X214574476Y-86351142D01*
X216145904Y-86446380D02*
X215574476Y-86446380D01*
X215860190Y-86446380D02*
X215860190Y-85446380D01*
X215764952Y-85589238D01*
X215669714Y-85684476D01*
X215574476Y-85732095D01*
%TO.C,R24*%
X175458380Y-132976857D02*
X174982190Y-133310190D01*
X175458380Y-133548285D02*
X174458380Y-133548285D01*
X174458380Y-133167333D01*
X174506000Y-133072095D01*
X174553619Y-133024476D01*
X174648857Y-132976857D01*
X174791714Y-132976857D01*
X174886952Y-133024476D01*
X174934571Y-133072095D01*
X174982190Y-133167333D01*
X174982190Y-133548285D01*
X174553619Y-132595904D02*
X174506000Y-132548285D01*
X174458380Y-132453047D01*
X174458380Y-132214952D01*
X174506000Y-132119714D01*
X174553619Y-132072095D01*
X174648857Y-132024476D01*
X174744095Y-132024476D01*
X174886952Y-132072095D01*
X175458380Y-132643523D01*
X175458380Y-132024476D01*
X174791714Y-131167333D02*
X175458380Y-131167333D01*
X174410761Y-131405428D02*
X175125047Y-131643523D01*
X175125047Y-131024476D01*
%TO.C,R17*%
X179664380Y-130436857D02*
X179188190Y-130770190D01*
X179664380Y-131008285D02*
X178664380Y-131008285D01*
X178664380Y-130627333D01*
X178712000Y-130532095D01*
X178759619Y-130484476D01*
X178854857Y-130436857D01*
X178997714Y-130436857D01*
X179092952Y-130484476D01*
X179140571Y-130532095D01*
X179188190Y-130627333D01*
X179188190Y-131008285D01*
X179664380Y-129484476D02*
X179664380Y-130055904D01*
X179664380Y-129770190D02*
X178664380Y-129770190D01*
X178807238Y-129865428D01*
X178902476Y-129960666D01*
X178950095Y-130055904D01*
X178664380Y-129151142D02*
X178664380Y-128484476D01*
X179664380Y-128913047D01*
%TO.C,R10*%
X178681142Y-116672380D02*
X178347809Y-116196190D01*
X178109714Y-116672380D02*
X178109714Y-115672380D01*
X178490666Y-115672380D01*
X178585904Y-115720000D01*
X178633523Y-115767619D01*
X178681142Y-115862857D01*
X178681142Y-116005714D01*
X178633523Y-116100952D01*
X178585904Y-116148571D01*
X178490666Y-116196190D01*
X178109714Y-116196190D01*
X179633523Y-116672380D02*
X179062095Y-116672380D01*
X179347809Y-116672380D02*
X179347809Y-115672380D01*
X179252571Y-115815238D01*
X179157333Y-115910476D01*
X179062095Y-115958095D01*
X180252571Y-115672380D02*
X180347809Y-115672380D01*
X180443047Y-115720000D01*
X180490666Y-115767619D01*
X180538285Y-115862857D01*
X180585904Y-116053333D01*
X180585904Y-116291428D01*
X180538285Y-116481904D01*
X180490666Y-116577142D01*
X180443047Y-116624761D01*
X180347809Y-116672380D01*
X180252571Y-116672380D01*
X180157333Y-116624761D01*
X180109714Y-116577142D01*
X180062095Y-116481904D01*
X180014476Y-116291428D01*
X180014476Y-116053333D01*
X180062095Y-115862857D01*
X180109714Y-115767619D01*
X180157333Y-115720000D01*
X180252571Y-115672380D01*
%TO.C,R3*%
X179157333Y-120482380D02*
X178824000Y-120006190D01*
X178585904Y-120482380D02*
X178585904Y-119482380D01*
X178966857Y-119482380D01*
X179062095Y-119530000D01*
X179109714Y-119577619D01*
X179157333Y-119672857D01*
X179157333Y-119815714D01*
X179109714Y-119910952D01*
X179062095Y-119958571D01*
X178966857Y-120006190D01*
X178585904Y-120006190D01*
X179490666Y-119482380D02*
X180109714Y-119482380D01*
X179776380Y-119863333D01*
X179919238Y-119863333D01*
X180014476Y-119910952D01*
X180062095Y-119958571D01*
X180109714Y-120053809D01*
X180109714Y-120291904D01*
X180062095Y-120387142D01*
X180014476Y-120434761D01*
X179919238Y-120482380D01*
X179633523Y-120482380D01*
X179538285Y-120434761D01*
X179490666Y-120387142D01*
%TO.C,J30*%
X251412476Y-58082380D02*
X251412476Y-58796666D01*
X251364857Y-58939523D01*
X251269619Y-59034761D01*
X251126761Y-59082380D01*
X251031523Y-59082380D01*
X251793428Y-58082380D02*
X252412476Y-58082380D01*
X252079142Y-58463333D01*
X252222000Y-58463333D01*
X252317238Y-58510952D01*
X252364857Y-58558571D01*
X252412476Y-58653809D01*
X252412476Y-58891904D01*
X252364857Y-58987142D01*
X252317238Y-59034761D01*
X252222000Y-59082380D01*
X251936285Y-59082380D01*
X251841047Y-59034761D01*
X251793428Y-58987142D01*
X253031523Y-58082380D02*
X253126761Y-58082380D01*
X253222000Y-58130000D01*
X253269619Y-58177619D01*
X253317238Y-58272857D01*
X253364857Y-58463333D01*
X253364857Y-58701428D01*
X253317238Y-58891904D01*
X253269619Y-58987142D01*
X253222000Y-59034761D01*
X253126761Y-59082380D01*
X253031523Y-59082380D01*
X252936285Y-59034761D01*
X252888666Y-58987142D01*
X252841047Y-58891904D01*
X252793428Y-58701428D01*
X252793428Y-58463333D01*
X252841047Y-58272857D01*
X252888666Y-58177619D01*
X252936285Y-58130000D01*
X253031523Y-58082380D01*
%TO.C,J29*%
X251412476Y-51732380D02*
X251412476Y-52446666D01*
X251364857Y-52589523D01*
X251269619Y-52684761D01*
X251126761Y-52732380D01*
X251031523Y-52732380D01*
X251841047Y-51827619D02*
X251888666Y-51780000D01*
X251983904Y-51732380D01*
X252222000Y-51732380D01*
X252317238Y-51780000D01*
X252364857Y-51827619D01*
X252412476Y-51922857D01*
X252412476Y-52018095D01*
X252364857Y-52160952D01*
X251793428Y-52732380D01*
X252412476Y-52732380D01*
X252888666Y-52732380D02*
X253079142Y-52732380D01*
X253174380Y-52684761D01*
X253222000Y-52637142D01*
X253317238Y-52494285D01*
X253364857Y-52303809D01*
X253364857Y-51922857D01*
X253317238Y-51827619D01*
X253269619Y-51780000D01*
X253174380Y-51732380D01*
X252983904Y-51732380D01*
X252888666Y-51780000D01*
X252841047Y-51827619D01*
X252793428Y-51922857D01*
X252793428Y-52160952D01*
X252841047Y-52256190D01*
X252888666Y-52303809D01*
X252983904Y-52351428D01*
X253174380Y-52351428D01*
X253269619Y-52303809D01*
X253317238Y-52256190D01*
X253364857Y-52160952D01*
%TO.C,J28*%
X251412476Y-64432380D02*
X251412476Y-65146666D01*
X251364857Y-65289523D01*
X251269619Y-65384761D01*
X251126761Y-65432380D01*
X251031523Y-65432380D01*
X251841047Y-64527619D02*
X251888666Y-64480000D01*
X251983904Y-64432380D01*
X252222000Y-64432380D01*
X252317238Y-64480000D01*
X252364857Y-64527619D01*
X252412476Y-64622857D01*
X252412476Y-64718095D01*
X252364857Y-64860952D01*
X251793428Y-65432380D01*
X252412476Y-65432380D01*
X252983904Y-64860952D02*
X252888666Y-64813333D01*
X252841047Y-64765714D01*
X252793428Y-64670476D01*
X252793428Y-64622857D01*
X252841047Y-64527619D01*
X252888666Y-64480000D01*
X252983904Y-64432380D01*
X253174380Y-64432380D01*
X253269619Y-64480000D01*
X253317238Y-64527619D01*
X253364857Y-64622857D01*
X253364857Y-64670476D01*
X253317238Y-64765714D01*
X253269619Y-64813333D01*
X253174380Y-64860952D01*
X252983904Y-64860952D01*
X252888666Y-64908571D01*
X252841047Y-64956190D01*
X252793428Y-65051428D01*
X252793428Y-65241904D01*
X252841047Y-65337142D01*
X252888666Y-65384761D01*
X252983904Y-65432380D01*
X253174380Y-65432380D01*
X253269619Y-65384761D01*
X253317238Y-65337142D01*
X253364857Y-65241904D01*
X253364857Y-65051428D01*
X253317238Y-64956190D01*
X253269619Y-64908571D01*
X253174380Y-64860952D01*
%TO.C,J27*%
X251412476Y-70782380D02*
X251412476Y-71496666D01*
X251364857Y-71639523D01*
X251269619Y-71734761D01*
X251126761Y-71782380D01*
X251031523Y-71782380D01*
X251841047Y-70877619D02*
X251888666Y-70830000D01*
X251983904Y-70782380D01*
X252222000Y-70782380D01*
X252317238Y-70830000D01*
X252364857Y-70877619D01*
X252412476Y-70972857D01*
X252412476Y-71068095D01*
X252364857Y-71210952D01*
X251793428Y-71782380D01*
X252412476Y-71782380D01*
X252745809Y-70782380D02*
X253412476Y-70782380D01*
X252983904Y-71782380D01*
%TO.C,J26*%
X251412476Y-77132380D02*
X251412476Y-77846666D01*
X251364857Y-77989523D01*
X251269619Y-78084761D01*
X251126761Y-78132380D01*
X251031523Y-78132380D01*
X251841047Y-77227619D02*
X251888666Y-77180000D01*
X251983904Y-77132380D01*
X252222000Y-77132380D01*
X252317238Y-77180000D01*
X252364857Y-77227619D01*
X252412476Y-77322857D01*
X252412476Y-77418095D01*
X252364857Y-77560952D01*
X251793428Y-78132380D01*
X252412476Y-78132380D01*
X253269619Y-77132380D02*
X253079142Y-77132380D01*
X252983904Y-77180000D01*
X252936285Y-77227619D01*
X252841047Y-77370476D01*
X252793428Y-77560952D01*
X252793428Y-77941904D01*
X252841047Y-78037142D01*
X252888666Y-78084761D01*
X252983904Y-78132380D01*
X253174380Y-78132380D01*
X253269619Y-78084761D01*
X253317238Y-78037142D01*
X253364857Y-77941904D01*
X253364857Y-77703809D01*
X253317238Y-77608571D01*
X253269619Y-77560952D01*
X253174380Y-77513333D01*
X252983904Y-77513333D01*
X252888666Y-77560952D01*
X252841047Y-77608571D01*
X252793428Y-77703809D01*
%TO.C,J25*%
X251412476Y-83482380D02*
X251412476Y-84196666D01*
X251364857Y-84339523D01*
X251269619Y-84434761D01*
X251126761Y-84482380D01*
X251031523Y-84482380D01*
X251841047Y-83577619D02*
X251888666Y-83530000D01*
X251983904Y-83482380D01*
X252222000Y-83482380D01*
X252317238Y-83530000D01*
X252364857Y-83577619D01*
X252412476Y-83672857D01*
X252412476Y-83768095D01*
X252364857Y-83910952D01*
X251793428Y-84482380D01*
X252412476Y-84482380D01*
X253317238Y-83482380D02*
X252841047Y-83482380D01*
X252793428Y-83958571D01*
X252841047Y-83910952D01*
X252936285Y-83863333D01*
X253174380Y-83863333D01*
X253269619Y-83910952D01*
X253317238Y-83958571D01*
X253364857Y-84053809D01*
X253364857Y-84291904D01*
X253317238Y-84387142D01*
X253269619Y-84434761D01*
X253174380Y-84482380D01*
X252936285Y-84482380D01*
X252841047Y-84434761D01*
X252793428Y-84387142D01*
%TO.C,J24*%
X251412476Y-134282380D02*
X251412476Y-134996666D01*
X251364857Y-135139523D01*
X251269619Y-135234761D01*
X251126761Y-135282380D01*
X251031523Y-135282380D01*
X251841047Y-134377619D02*
X251888666Y-134330000D01*
X251983904Y-134282380D01*
X252222000Y-134282380D01*
X252317238Y-134330000D01*
X252364857Y-134377619D01*
X252412476Y-134472857D01*
X252412476Y-134568095D01*
X252364857Y-134710952D01*
X251793428Y-135282380D01*
X252412476Y-135282380D01*
X253269619Y-134615714D02*
X253269619Y-135282380D01*
X253031523Y-134234761D02*
X252793428Y-134949047D01*
X253412476Y-134949047D01*
%TO.C,J23*%
X251412476Y-140632380D02*
X251412476Y-141346666D01*
X251364857Y-141489523D01*
X251269619Y-141584761D01*
X251126761Y-141632380D01*
X251031523Y-141632380D01*
X251841047Y-140727619D02*
X251888666Y-140680000D01*
X251983904Y-140632380D01*
X252222000Y-140632380D01*
X252317238Y-140680000D01*
X252364857Y-140727619D01*
X252412476Y-140822857D01*
X252412476Y-140918095D01*
X252364857Y-141060952D01*
X251793428Y-141632380D01*
X252412476Y-141632380D01*
X252745809Y-140632380D02*
X253364857Y-140632380D01*
X253031523Y-141013333D01*
X253174380Y-141013333D01*
X253269619Y-141060952D01*
X253317238Y-141108571D01*
X253364857Y-141203809D01*
X253364857Y-141441904D01*
X253317238Y-141537142D01*
X253269619Y-141584761D01*
X253174380Y-141632380D01*
X252888666Y-141632380D01*
X252793428Y-141584761D01*
X252745809Y-141537142D01*
%TO.C,J22*%
X251412476Y-127932380D02*
X251412476Y-128646666D01*
X251364857Y-128789523D01*
X251269619Y-128884761D01*
X251126761Y-128932380D01*
X251031523Y-128932380D01*
X251841047Y-128027619D02*
X251888666Y-127980000D01*
X251983904Y-127932380D01*
X252222000Y-127932380D01*
X252317238Y-127980000D01*
X252364857Y-128027619D01*
X252412476Y-128122857D01*
X252412476Y-128218095D01*
X252364857Y-128360952D01*
X251793428Y-128932380D01*
X252412476Y-128932380D01*
X252793428Y-128027619D02*
X252841047Y-127980000D01*
X252936285Y-127932380D01*
X253174380Y-127932380D01*
X253269619Y-127980000D01*
X253317238Y-128027619D01*
X253364857Y-128122857D01*
X253364857Y-128218095D01*
X253317238Y-128360952D01*
X252745809Y-128932380D01*
X253364857Y-128932380D01*
%TO.C,J21*%
X250194380Y-150669523D02*
X250908666Y-150669523D01*
X251051523Y-150717142D01*
X251146761Y-150812380D01*
X251194380Y-150955238D01*
X251194380Y-151050476D01*
X250289619Y-150240952D02*
X250242000Y-150193333D01*
X250194380Y-150098095D01*
X250194380Y-149860000D01*
X250242000Y-149764761D01*
X250289619Y-149717142D01*
X250384857Y-149669523D01*
X250480095Y-149669523D01*
X250622952Y-149717142D01*
X251194380Y-150288571D01*
X251194380Y-149669523D01*
X251194380Y-148717142D02*
X251194380Y-149288571D01*
X251194380Y-149002857D02*
X250194380Y-149002857D01*
X250337238Y-149098095D01*
X250432476Y-149193333D01*
X250480095Y-149288571D01*
%TO.C,J20*%
X243844380Y-150669523D02*
X244558666Y-150669523D01*
X244701523Y-150717142D01*
X244796761Y-150812380D01*
X244844380Y-150955238D01*
X244844380Y-151050476D01*
X243939619Y-150240952D02*
X243892000Y-150193333D01*
X243844380Y-150098095D01*
X243844380Y-149860000D01*
X243892000Y-149764761D01*
X243939619Y-149717142D01*
X244034857Y-149669523D01*
X244130095Y-149669523D01*
X244272952Y-149717142D01*
X244844380Y-150288571D01*
X244844380Y-149669523D01*
X243844380Y-149050476D02*
X243844380Y-148955238D01*
X243892000Y-148860000D01*
X243939619Y-148812380D01*
X244034857Y-148764761D01*
X244225333Y-148717142D01*
X244463428Y-148717142D01*
X244653904Y-148764761D01*
X244749142Y-148812380D01*
X244796761Y-148860000D01*
X244844380Y-148955238D01*
X244844380Y-149050476D01*
X244796761Y-149145714D01*
X244749142Y-149193333D01*
X244653904Y-149240952D01*
X244463428Y-149288571D01*
X244225333Y-149288571D01*
X244034857Y-149240952D01*
X243939619Y-149193333D01*
X243892000Y-149145714D01*
X243844380Y-149050476D01*
%TO.C,J19*%
X237494380Y-150669523D02*
X238208666Y-150669523D01*
X238351523Y-150717142D01*
X238446761Y-150812380D01*
X238494380Y-150955238D01*
X238494380Y-151050476D01*
X238494380Y-149669523D02*
X238494380Y-150240952D01*
X238494380Y-149955238D02*
X237494380Y-149955238D01*
X237637238Y-150050476D01*
X237732476Y-150145714D01*
X237780095Y-150240952D01*
X238494380Y-149193333D02*
X238494380Y-149002857D01*
X238446761Y-148907619D01*
X238399142Y-148860000D01*
X238256285Y-148764761D01*
X238065809Y-148717142D01*
X237684857Y-148717142D01*
X237589619Y-148764761D01*
X237542000Y-148812380D01*
X237494380Y-148907619D01*
X237494380Y-149098095D01*
X237542000Y-149193333D01*
X237589619Y-149240952D01*
X237684857Y-149288571D01*
X237922952Y-149288571D01*
X238018190Y-149240952D01*
X238065809Y-149193333D01*
X238113428Y-149098095D01*
X238113428Y-148907619D01*
X238065809Y-148812380D01*
X238018190Y-148764761D01*
X237922952Y-148717142D01*
%TO.C,J18*%
X251412476Y-96182380D02*
X251412476Y-96896666D01*
X251364857Y-97039523D01*
X251269619Y-97134761D01*
X251126761Y-97182380D01*
X251031523Y-97182380D01*
X252412476Y-97182380D02*
X251841047Y-97182380D01*
X252126761Y-97182380D02*
X252126761Y-96182380D01*
X252031523Y-96325238D01*
X251936285Y-96420476D01*
X251841047Y-96468095D01*
X252983904Y-96610952D02*
X252888666Y-96563333D01*
X252841047Y-96515714D01*
X252793428Y-96420476D01*
X252793428Y-96372857D01*
X252841047Y-96277619D01*
X252888666Y-96230000D01*
X252983904Y-96182380D01*
X253174380Y-96182380D01*
X253269619Y-96230000D01*
X253317238Y-96277619D01*
X253364857Y-96372857D01*
X253364857Y-96420476D01*
X253317238Y-96515714D01*
X253269619Y-96563333D01*
X253174380Y-96610952D01*
X252983904Y-96610952D01*
X252888666Y-96658571D01*
X252841047Y-96706190D01*
X252793428Y-96801428D01*
X252793428Y-96991904D01*
X252841047Y-97087142D01*
X252888666Y-97134761D01*
X252983904Y-97182380D01*
X253174380Y-97182380D01*
X253269619Y-97134761D01*
X253317238Y-97087142D01*
X253364857Y-96991904D01*
X253364857Y-96801428D01*
X253317238Y-96706190D01*
X253269619Y-96658571D01*
X253174380Y-96610952D01*
%TO.C,J17*%
X251412476Y-89832380D02*
X251412476Y-90546666D01*
X251364857Y-90689523D01*
X251269619Y-90784761D01*
X251126761Y-90832380D01*
X251031523Y-90832380D01*
X252412476Y-90832380D02*
X251841047Y-90832380D01*
X252126761Y-90832380D02*
X252126761Y-89832380D01*
X252031523Y-89975238D01*
X251936285Y-90070476D01*
X251841047Y-90118095D01*
X252745809Y-89832380D02*
X253412476Y-89832380D01*
X252983904Y-90832380D01*
%TO.C,J16*%
X251412476Y-102532380D02*
X251412476Y-103246666D01*
X251364857Y-103389523D01*
X251269619Y-103484761D01*
X251126761Y-103532380D01*
X251031523Y-103532380D01*
X252412476Y-103532380D02*
X251841047Y-103532380D01*
X252126761Y-103532380D02*
X252126761Y-102532380D01*
X252031523Y-102675238D01*
X251936285Y-102770476D01*
X251841047Y-102818095D01*
X253269619Y-102532380D02*
X253079142Y-102532380D01*
X252983904Y-102580000D01*
X252936285Y-102627619D01*
X252841047Y-102770476D01*
X252793428Y-102960952D01*
X252793428Y-103341904D01*
X252841047Y-103437142D01*
X252888666Y-103484761D01*
X252983904Y-103532380D01*
X253174380Y-103532380D01*
X253269619Y-103484761D01*
X253317238Y-103437142D01*
X253364857Y-103341904D01*
X253364857Y-103103809D01*
X253317238Y-103008571D01*
X253269619Y-102960952D01*
X253174380Y-102913333D01*
X252983904Y-102913333D01*
X252888666Y-102960952D01*
X252841047Y-103008571D01*
X252793428Y-103103809D01*
%TO.C,J15*%
X251412476Y-108882380D02*
X251412476Y-109596666D01*
X251364857Y-109739523D01*
X251269619Y-109834761D01*
X251126761Y-109882380D01*
X251031523Y-109882380D01*
X252412476Y-109882380D02*
X251841047Y-109882380D01*
X252126761Y-109882380D02*
X252126761Y-108882380D01*
X252031523Y-109025238D01*
X251936285Y-109120476D01*
X251841047Y-109168095D01*
X253317238Y-108882380D02*
X252841047Y-108882380D01*
X252793428Y-109358571D01*
X252841047Y-109310952D01*
X252936285Y-109263333D01*
X253174380Y-109263333D01*
X253269619Y-109310952D01*
X253317238Y-109358571D01*
X253364857Y-109453809D01*
X253364857Y-109691904D01*
X253317238Y-109787142D01*
X253269619Y-109834761D01*
X253174380Y-109882380D01*
X252936285Y-109882380D01*
X252841047Y-109834761D01*
X252793428Y-109787142D01*
%TO.C,J14*%
X251412476Y-115232380D02*
X251412476Y-115946666D01*
X251364857Y-116089523D01*
X251269619Y-116184761D01*
X251126761Y-116232380D01*
X251031523Y-116232380D01*
X252412476Y-116232380D02*
X251841047Y-116232380D01*
X252126761Y-116232380D02*
X252126761Y-115232380D01*
X252031523Y-115375238D01*
X251936285Y-115470476D01*
X251841047Y-115518095D01*
X253269619Y-115565714D02*
X253269619Y-116232380D01*
X253031523Y-115184761D02*
X252793428Y-115899047D01*
X253412476Y-115899047D01*
%TO.C,J13*%
X251412476Y-121582380D02*
X251412476Y-122296666D01*
X251364857Y-122439523D01*
X251269619Y-122534761D01*
X251126761Y-122582380D01*
X251031523Y-122582380D01*
X252412476Y-122582380D02*
X251841047Y-122582380D01*
X252126761Y-122582380D02*
X252126761Y-121582380D01*
X252031523Y-121725238D01*
X251936285Y-121820476D01*
X251841047Y-121868095D01*
X252745809Y-121582380D02*
X253364857Y-121582380D01*
X253031523Y-121963333D01*
X253174380Y-121963333D01*
X253269619Y-122010952D01*
X253317238Y-122058571D01*
X253364857Y-122153809D01*
X253364857Y-122391904D01*
X253317238Y-122487142D01*
X253269619Y-122534761D01*
X253174380Y-122582380D01*
X252888666Y-122582380D01*
X252793428Y-122534761D01*
X252745809Y-122487142D01*
%TO.C,J12*%
X224794380Y-150669523D02*
X225508666Y-150669523D01*
X225651523Y-150717142D01*
X225746761Y-150812380D01*
X225794380Y-150955238D01*
X225794380Y-151050476D01*
X225794380Y-149669523D02*
X225794380Y-150240952D01*
X225794380Y-149955238D02*
X224794380Y-149955238D01*
X224937238Y-150050476D01*
X225032476Y-150145714D01*
X225080095Y-150240952D01*
X224889619Y-149288571D02*
X224842000Y-149240952D01*
X224794380Y-149145714D01*
X224794380Y-148907619D01*
X224842000Y-148812380D01*
X224889619Y-148764761D01*
X224984857Y-148717142D01*
X225080095Y-148717142D01*
X225222952Y-148764761D01*
X225794380Y-149336190D01*
X225794380Y-148717142D01*
%TO.C,J11*%
X231144380Y-150669523D02*
X231858666Y-150669523D01*
X232001523Y-150717142D01*
X232096761Y-150812380D01*
X232144380Y-150955238D01*
X232144380Y-151050476D01*
X232144380Y-149669523D02*
X232144380Y-150240952D01*
X232144380Y-149955238D02*
X231144380Y-149955238D01*
X231287238Y-150050476D01*
X231382476Y-150145714D01*
X231430095Y-150240952D01*
X232144380Y-148717142D02*
X232144380Y-149288571D01*
X232144380Y-149002857D02*
X231144380Y-149002857D01*
X231287238Y-149098095D01*
X231382476Y-149193333D01*
X231430095Y-149288571D01*
%TO.C,J10*%
X218444380Y-150669523D02*
X219158666Y-150669523D01*
X219301523Y-150717142D01*
X219396761Y-150812380D01*
X219444380Y-150955238D01*
X219444380Y-151050476D01*
X219444380Y-149669523D02*
X219444380Y-150240952D01*
X219444380Y-149955238D02*
X218444380Y-149955238D01*
X218587238Y-150050476D01*
X218682476Y-150145714D01*
X218730095Y-150240952D01*
X218444380Y-149050476D02*
X218444380Y-148955238D01*
X218492000Y-148860000D01*
X218539619Y-148812380D01*
X218634857Y-148764761D01*
X218825333Y-148717142D01*
X219063428Y-148717142D01*
X219253904Y-148764761D01*
X219349142Y-148812380D01*
X219396761Y-148860000D01*
X219444380Y-148955238D01*
X219444380Y-149050476D01*
X219396761Y-149145714D01*
X219349142Y-149193333D01*
X219253904Y-149240952D01*
X219063428Y-149288571D01*
X218825333Y-149288571D01*
X218634857Y-149240952D01*
X218539619Y-149193333D01*
X218492000Y-149145714D01*
X218444380Y-149050476D01*
%TO.C,J9*%
X212094380Y-150193333D02*
X212808666Y-150193333D01*
X212951523Y-150240952D01*
X213046761Y-150336190D01*
X213094380Y-150479047D01*
X213094380Y-150574285D01*
X213094380Y-149669523D02*
X213094380Y-149479047D01*
X213046761Y-149383809D01*
X212999142Y-149336190D01*
X212856285Y-149240952D01*
X212665809Y-149193333D01*
X212284857Y-149193333D01*
X212189619Y-149240952D01*
X212142000Y-149288571D01*
X212094380Y-149383809D01*
X212094380Y-149574285D01*
X212142000Y-149669523D01*
X212189619Y-149717142D01*
X212284857Y-149764761D01*
X212522952Y-149764761D01*
X212618190Y-149717142D01*
X212665809Y-149669523D01*
X212713428Y-149574285D01*
X212713428Y-149383809D01*
X212665809Y-149288571D01*
X212618190Y-149240952D01*
X212522952Y-149193333D01*
%TO.C,J8*%
X205744380Y-150193333D02*
X206458666Y-150193333D01*
X206601523Y-150240952D01*
X206696761Y-150336190D01*
X206744380Y-150479047D01*
X206744380Y-150574285D01*
X206172952Y-149574285D02*
X206125333Y-149669523D01*
X206077714Y-149717142D01*
X205982476Y-149764761D01*
X205934857Y-149764761D01*
X205839619Y-149717142D01*
X205792000Y-149669523D01*
X205744380Y-149574285D01*
X205744380Y-149383809D01*
X205792000Y-149288571D01*
X205839619Y-149240952D01*
X205934857Y-149193333D01*
X205982476Y-149193333D01*
X206077714Y-149240952D01*
X206125333Y-149288571D01*
X206172952Y-149383809D01*
X206172952Y-149574285D01*
X206220571Y-149669523D01*
X206268190Y-149717142D01*
X206363428Y-149764761D01*
X206553904Y-149764761D01*
X206649142Y-149717142D01*
X206696761Y-149669523D01*
X206744380Y-149574285D01*
X206744380Y-149383809D01*
X206696761Y-149288571D01*
X206649142Y-149240952D01*
X206553904Y-149193333D01*
X206363428Y-149193333D01*
X206268190Y-149240952D01*
X206220571Y-149288571D01*
X206172952Y-149383809D01*
%TO.C,J7*%
X199394380Y-150193333D02*
X200108666Y-150193333D01*
X200251523Y-150240952D01*
X200346761Y-150336190D01*
X200394380Y-150479047D01*
X200394380Y-150574285D01*
X199394380Y-149812380D02*
X199394380Y-149145714D01*
X200394380Y-149574285D01*
%TO.C,J6*%
X186694380Y-150193333D02*
X187408666Y-150193333D01*
X187551523Y-150240952D01*
X187646761Y-150336190D01*
X187694380Y-150479047D01*
X187694380Y-150574285D01*
X186694380Y-149288571D02*
X186694380Y-149479047D01*
X186742000Y-149574285D01*
X186789619Y-149621904D01*
X186932476Y-149717142D01*
X187122952Y-149764761D01*
X187503904Y-149764761D01*
X187599142Y-149717142D01*
X187646761Y-149669523D01*
X187694380Y-149574285D01*
X187694380Y-149383809D01*
X187646761Y-149288571D01*
X187599142Y-149240952D01*
X187503904Y-149193333D01*
X187265809Y-149193333D01*
X187170571Y-149240952D01*
X187122952Y-149288571D01*
X187075333Y-149383809D01*
X187075333Y-149574285D01*
X187122952Y-149669523D01*
X187170571Y-149717142D01*
X187265809Y-149764761D01*
%TO.C,J5*%
X180344380Y-150193333D02*
X181058666Y-150193333D01*
X181201523Y-150240952D01*
X181296761Y-150336190D01*
X181344380Y-150479047D01*
X181344380Y-150574285D01*
X180344380Y-149240952D02*
X180344380Y-149717142D01*
X180820571Y-149764761D01*
X180772952Y-149717142D01*
X180725333Y-149621904D01*
X180725333Y-149383809D01*
X180772952Y-149288571D01*
X180820571Y-149240952D01*
X180915809Y-149193333D01*
X181153904Y-149193333D01*
X181249142Y-149240952D01*
X181296761Y-149288571D01*
X181344380Y-149383809D01*
X181344380Y-149621904D01*
X181296761Y-149717142D01*
X181249142Y-149764761D01*
%TO.C,J4*%
X193044380Y-150193333D02*
X193758666Y-150193333D01*
X193901523Y-150240952D01*
X193996761Y-150336190D01*
X194044380Y-150479047D01*
X194044380Y-150574285D01*
X193377714Y-149288571D02*
X194044380Y-149288571D01*
X192996761Y-149526666D02*
X193711047Y-149764761D01*
X193711047Y-149145714D01*
%TO.C,J3*%
X173994380Y-150193333D02*
X174708666Y-150193333D01*
X174851523Y-150240952D01*
X174946761Y-150336190D01*
X174994380Y-150479047D01*
X174994380Y-150574285D01*
X173994380Y-149812380D02*
X173994380Y-149193333D01*
X174375333Y-149526666D01*
X174375333Y-149383809D01*
X174422952Y-149288571D01*
X174470571Y-149240952D01*
X174565809Y-149193333D01*
X174803904Y-149193333D01*
X174899142Y-149240952D01*
X174946761Y-149288571D01*
X174994380Y-149383809D01*
X174994380Y-149669523D01*
X174946761Y-149764761D01*
X174899142Y-149812380D01*
%TO.C,J2*%
X167644380Y-150193333D02*
X168358666Y-150193333D01*
X168501523Y-150240952D01*
X168596761Y-150336190D01*
X168644380Y-150479047D01*
X168644380Y-150574285D01*
X167739619Y-149764761D02*
X167692000Y-149717142D01*
X167644380Y-149621904D01*
X167644380Y-149383809D01*
X167692000Y-149288571D01*
X167739619Y-149240952D01*
X167834857Y-149193333D01*
X167930095Y-149193333D01*
X168072952Y-149240952D01*
X168644380Y-149812380D01*
X168644380Y-149193333D01*
%TO.C,J1*%
X161294380Y-150193333D02*
X162008666Y-150193333D01*
X162151523Y-150240952D01*
X162246761Y-150336190D01*
X162294380Y-150479047D01*
X162294380Y-150574285D01*
X162294380Y-149193333D02*
X162294380Y-149764761D01*
X162294380Y-149479047D02*
X161294380Y-149479047D01*
X161437238Y-149574285D01*
X161532476Y-149669523D01*
X161580095Y-149764761D01*
%TO.C,U9*%
X212602380Y-65785904D02*
X213411904Y-65785904D01*
X213507142Y-65738285D01*
X213554761Y-65690666D01*
X213602380Y-65595428D01*
X213602380Y-65404952D01*
X213554761Y-65309714D01*
X213507142Y-65262095D01*
X213411904Y-65214476D01*
X212602380Y-65214476D01*
X213602380Y-64690666D02*
X213602380Y-64500190D01*
X213554761Y-64404952D01*
X213507142Y-64357333D01*
X213364285Y-64262095D01*
X213173809Y-64214476D01*
X212792857Y-64214476D01*
X212697619Y-64262095D01*
X212650000Y-64309714D01*
X212602380Y-64404952D01*
X212602380Y-64595428D01*
X212650000Y-64690666D01*
X212697619Y-64738285D01*
X212792857Y-64785904D01*
X213030952Y-64785904D01*
X213126190Y-64738285D01*
X213173809Y-64690666D01*
X213221428Y-64595428D01*
X213221428Y-64404952D01*
X213173809Y-64309714D01*
X213126190Y-64262095D01*
X213030952Y-64214476D01*
%TO.C,U8*%
X243590380Y-68833904D02*
X244399904Y-68833904D01*
X244495142Y-68786285D01*
X244542761Y-68738666D01*
X244590380Y-68643428D01*
X244590380Y-68452952D01*
X244542761Y-68357714D01*
X244495142Y-68310095D01*
X244399904Y-68262476D01*
X243590380Y-68262476D01*
X244018952Y-67643428D02*
X243971333Y-67738666D01*
X243923714Y-67786285D01*
X243828476Y-67833904D01*
X243780857Y-67833904D01*
X243685619Y-67786285D01*
X243638000Y-67738666D01*
X243590380Y-67643428D01*
X243590380Y-67452952D01*
X243638000Y-67357714D01*
X243685619Y-67310095D01*
X243780857Y-67262476D01*
X243828476Y-67262476D01*
X243923714Y-67310095D01*
X243971333Y-67357714D01*
X244018952Y-67452952D01*
X244018952Y-67643428D01*
X244066571Y-67738666D01*
X244114190Y-67786285D01*
X244209428Y-67833904D01*
X244399904Y-67833904D01*
X244495142Y-67786285D01*
X244542761Y-67738666D01*
X244590380Y-67643428D01*
X244590380Y-67452952D01*
X244542761Y-67357714D01*
X244495142Y-67310095D01*
X244399904Y-67262476D01*
X244209428Y-67262476D01*
X244114190Y-67310095D01*
X244066571Y-67357714D01*
X244018952Y-67452952D01*
%TO.C,U7*%
X243590380Y-135381904D02*
X244399904Y-135381904D01*
X244495142Y-135334285D01*
X244542761Y-135286666D01*
X244590380Y-135191428D01*
X244590380Y-135000952D01*
X244542761Y-134905714D01*
X244495142Y-134858095D01*
X244399904Y-134810476D01*
X243590380Y-134810476D01*
X243590380Y-134429523D02*
X243590380Y-133762857D01*
X244590380Y-134191428D01*
%TO.C,U6*%
X200918380Y-94233904D02*
X201727904Y-94233904D01*
X201823142Y-94186285D01*
X201870761Y-94138666D01*
X201918380Y-94043428D01*
X201918380Y-93852952D01*
X201870761Y-93757714D01*
X201823142Y-93710095D01*
X201727904Y-93662476D01*
X200918380Y-93662476D01*
X200918380Y-92757714D02*
X200918380Y-92948190D01*
X200966000Y-93043428D01*
X201013619Y-93091047D01*
X201156476Y-93186285D01*
X201346952Y-93233904D01*
X201727904Y-93233904D01*
X201823142Y-93186285D01*
X201870761Y-93138666D01*
X201918380Y-93043428D01*
X201918380Y-92852952D01*
X201870761Y-92757714D01*
X201823142Y-92710095D01*
X201727904Y-92662476D01*
X201489809Y-92662476D01*
X201394571Y-92710095D01*
X201346952Y-92757714D01*
X201299333Y-92852952D01*
X201299333Y-93043428D01*
X201346952Y-93138666D01*
X201394571Y-93186285D01*
X201489809Y-93233904D01*
%TO.C,U5*%
X243590380Y-109981904D02*
X244399904Y-109981904D01*
X244495142Y-109934285D01*
X244542761Y-109886666D01*
X244590380Y-109791428D01*
X244590380Y-109600952D01*
X244542761Y-109505714D01*
X244495142Y-109458095D01*
X244399904Y-109410476D01*
X243590380Y-109410476D01*
X243590380Y-108458095D02*
X243590380Y-108934285D01*
X244066571Y-108981904D01*
X244018952Y-108934285D01*
X243971333Y-108839047D01*
X243971333Y-108600952D01*
X244018952Y-108505714D01*
X244066571Y-108458095D01*
X244161809Y-108410476D01*
X244399904Y-108410476D01*
X244495142Y-108458095D01*
X244542761Y-108505714D01*
X244590380Y-108600952D01*
X244590380Y-108839047D01*
X244542761Y-108934285D01*
X244495142Y-108981904D01*
%TO.C,U4*%
X211328095Y-137672380D02*
X211328095Y-138481904D01*
X211375714Y-138577142D01*
X211423333Y-138624761D01*
X211518571Y-138672380D01*
X211709047Y-138672380D01*
X211804285Y-138624761D01*
X211851904Y-138577142D01*
X211899523Y-138481904D01*
X211899523Y-137672380D01*
X212804285Y-138005714D02*
X212804285Y-138672380D01*
X212566190Y-137624761D02*
X212328095Y-138339047D01*
X212947142Y-138339047D01*
%TO.C,U3*%
X160278380Y-128269904D02*
X161087904Y-128269904D01*
X161183142Y-128222285D01*
X161230761Y-128174666D01*
X161278380Y-128079428D01*
X161278380Y-127888952D01*
X161230761Y-127793714D01*
X161183142Y-127746095D01*
X161087904Y-127698476D01*
X160278380Y-127698476D01*
X160278380Y-127317523D02*
X160278380Y-126698476D01*
X160659333Y-127031809D01*
X160659333Y-126888952D01*
X160706952Y-126793714D01*
X160754571Y-126746095D01*
X160849809Y-126698476D01*
X161087904Y-126698476D01*
X161183142Y-126746095D01*
X161230761Y-126793714D01*
X161278380Y-126888952D01*
X161278380Y-127174666D01*
X161230761Y-127269904D01*
X161183142Y-127317523D01*
%TO.C,U2*%
X193802095Y-137672380D02*
X193802095Y-138481904D01*
X193849714Y-138577142D01*
X193897333Y-138624761D01*
X193992571Y-138672380D01*
X194183047Y-138672380D01*
X194278285Y-138624761D01*
X194325904Y-138577142D01*
X194373523Y-138481904D01*
X194373523Y-137672380D01*
X194802095Y-137767619D02*
X194849714Y-137720000D01*
X194944952Y-137672380D01*
X195183047Y-137672380D01*
X195278285Y-137720000D01*
X195325904Y-137767619D01*
X195373523Y-137862857D01*
X195373523Y-137958095D01*
X195325904Y-138100952D01*
X194754476Y-138672380D01*
X195373523Y-138672380D01*
%TO.C,U1*%
X156932380Y-76707904D02*
X157741904Y-76707904D01*
X157837142Y-76660285D01*
X157884761Y-76612666D01*
X157932380Y-76517428D01*
X157932380Y-76326952D01*
X157884761Y-76231714D01*
X157837142Y-76184095D01*
X157741904Y-76136476D01*
X156932380Y-76136476D01*
X157932380Y-75136476D02*
X157932380Y-75707904D01*
X157932380Y-75422190D02*
X156932380Y-75422190D01*
X157075238Y-75517428D01*
X157170476Y-75612666D01*
X157218095Y-75707904D01*
X144283180Y-60789723D02*
X145092704Y-60789723D01*
X145187942Y-60742104D01*
X145235561Y-60694485D01*
X145283180Y-60599247D01*
X145283180Y-60408771D01*
X145235561Y-60313533D01*
X145187942Y-60265914D01*
X145092704Y-60218295D01*
X144283180Y-60218295D01*
X145235561Y-59789723D02*
X145283180Y-59646866D01*
X145283180Y-59408771D01*
X145235561Y-59313533D01*
X145187942Y-59265914D01*
X145092704Y-59218295D01*
X144997466Y-59218295D01*
X144902228Y-59265914D01*
X144854609Y-59313533D01*
X144806990Y-59408771D01*
X144759371Y-59599247D01*
X144711752Y-59694485D01*
X144664133Y-59742104D01*
X144568895Y-59789723D01*
X144473657Y-59789723D01*
X144378419Y-59742104D01*
X144330800Y-59694485D01*
X144283180Y-59599247D01*
X144283180Y-59361152D01*
X144330800Y-59218295D01*
X144759371Y-58456390D02*
X144806990Y-58313533D01*
X144854609Y-58265914D01*
X144949847Y-58218295D01*
X145092704Y-58218295D01*
X145187942Y-58265914D01*
X145235561Y-58313533D01*
X145283180Y-58408771D01*
X145283180Y-58789723D01*
X144283180Y-58789723D01*
X144283180Y-58456390D01*
X144330800Y-58361152D01*
X144378419Y-58313533D01*
X144473657Y-58265914D01*
X144568895Y-58265914D01*
X144664133Y-58313533D01*
X144711752Y-58361152D01*
X144759371Y-58456390D01*
X144759371Y-58789723D01*
X145283180Y-57027819D02*
X144283180Y-57027819D01*
X144759371Y-57027819D02*
X144759371Y-56456390D01*
X145283180Y-56456390D02*
X144283180Y-56456390D01*
X145283180Y-55837342D02*
X145235561Y-55932580D01*
X145187942Y-55980200D01*
X145092704Y-56027819D01*
X144806990Y-56027819D01*
X144711752Y-55980200D01*
X144664133Y-55932580D01*
X144616514Y-55837342D01*
X144616514Y-55694485D01*
X144664133Y-55599247D01*
X144711752Y-55551628D01*
X144806990Y-55504009D01*
X145092704Y-55504009D01*
X145187942Y-55551628D01*
X145235561Y-55599247D01*
X145283180Y-55694485D01*
X145283180Y-55837342D01*
X145235561Y-55123057D02*
X145283180Y-55027819D01*
X145283180Y-54837342D01*
X145235561Y-54742104D01*
X145140323Y-54694485D01*
X145092704Y-54694485D01*
X144997466Y-54742104D01*
X144949847Y-54837342D01*
X144949847Y-54980200D01*
X144902228Y-55075438D01*
X144806990Y-55123057D01*
X144759371Y-55123057D01*
X144664133Y-55075438D01*
X144616514Y-54980200D01*
X144616514Y-54837342D01*
X144664133Y-54742104D01*
X144616514Y-54408771D02*
X144616514Y-54027819D01*
X144283180Y-54265914D02*
X145140323Y-54265914D01*
X145235561Y-54218295D01*
X145283180Y-54123057D01*
X145283180Y-54027819D01*
X147739457Y-63809571D02*
X148072790Y-63809571D01*
X148215647Y-64333380D02*
X147739457Y-64333380D01*
X147739457Y-63333380D01*
X148215647Y-63333380D01*
X148501361Y-63666714D02*
X148882314Y-63666714D01*
X148644219Y-63333380D02*
X148644219Y-64190523D01*
X148691838Y-64285761D01*
X148787076Y-64333380D01*
X148882314Y-64333380D01*
X149215647Y-64333380D02*
X149215647Y-63333380D01*
X149644219Y-64333380D02*
X149644219Y-63809571D01*
X149596600Y-63714333D01*
X149501361Y-63666714D01*
X149358504Y-63666714D01*
X149263266Y-63714333D01*
X149215647Y-63761952D01*
X150501361Y-64285761D02*
X150406123Y-64333380D01*
X150215647Y-64333380D01*
X150120409Y-64285761D01*
X150072790Y-64190523D01*
X150072790Y-63809571D01*
X150120409Y-63714333D01*
X150215647Y-63666714D01*
X150406123Y-63666714D01*
X150501361Y-63714333D01*
X150548980Y-63809571D01*
X150548980Y-63904809D01*
X150072790Y-64000047D01*
X150977552Y-64333380D02*
X150977552Y-63666714D01*
X150977552Y-63857190D02*
X151025171Y-63761952D01*
X151072790Y-63714333D01*
X151168028Y-63666714D01*
X151263266Y-63666714D01*
X151596600Y-63666714D02*
X151596600Y-64333380D01*
X151596600Y-63761952D02*
X151644219Y-63714333D01*
X151739457Y-63666714D01*
X151882314Y-63666714D01*
X151977552Y-63714333D01*
X152025171Y-63809571D01*
X152025171Y-64333380D01*
X152882314Y-64285761D02*
X152787076Y-64333380D01*
X152596600Y-64333380D01*
X152501361Y-64285761D01*
X152453742Y-64190523D01*
X152453742Y-63809571D01*
X152501361Y-63714333D01*
X152596600Y-63666714D01*
X152787076Y-63666714D01*
X152882314Y-63714333D01*
X152929933Y-63809571D01*
X152929933Y-63904809D01*
X152453742Y-64000047D01*
X153215647Y-63666714D02*
X153596600Y-63666714D01*
X153358504Y-63333380D02*
X153358504Y-64190523D01*
X153406123Y-64285761D01*
X153501361Y-64333380D01*
X153596600Y-64333380D01*
X146058095Y-48728380D02*
X146058095Y-49537904D01*
X146105714Y-49633142D01*
X146153333Y-49680761D01*
X146248571Y-49728380D01*
X146439047Y-49728380D01*
X146534285Y-49680761D01*
X146581904Y-49633142D01*
X146629523Y-49537904D01*
X146629523Y-48728380D01*
X147058095Y-49680761D02*
X147200952Y-49728380D01*
X147439047Y-49728380D01*
X147534285Y-49680761D01*
X147581904Y-49633142D01*
X147629523Y-49537904D01*
X147629523Y-49442666D01*
X147581904Y-49347428D01*
X147534285Y-49299809D01*
X147439047Y-49252190D01*
X147248571Y-49204571D01*
X147153333Y-49156952D01*
X147105714Y-49109333D01*
X147058095Y-49014095D01*
X147058095Y-48918857D01*
X147105714Y-48823619D01*
X147153333Y-48776000D01*
X147248571Y-48728380D01*
X147486666Y-48728380D01*
X147629523Y-48776000D01*
X148391428Y-49204571D02*
X148534285Y-49252190D01*
X148581904Y-49299809D01*
X148629523Y-49395047D01*
X148629523Y-49537904D01*
X148581904Y-49633142D01*
X148534285Y-49680761D01*
X148439047Y-49728380D01*
X148058095Y-49728380D01*
X148058095Y-48728380D01*
X148391428Y-48728380D01*
X148486666Y-48776000D01*
X148534285Y-48823619D01*
X148581904Y-48918857D01*
X148581904Y-49014095D01*
X148534285Y-49109333D01*
X148486666Y-49156952D01*
X148391428Y-49204571D01*
X148058095Y-49204571D01*
X147772380Y-103195047D02*
X146772380Y-103195047D01*
X147486666Y-102861714D01*
X146772380Y-102528380D01*
X147772380Y-102528380D01*
X147772380Y-102052190D02*
X147105714Y-102052190D01*
X146772380Y-102052190D02*
X146820000Y-102099809D01*
X146867619Y-102052190D01*
X146820000Y-102004571D01*
X146772380Y-102052190D01*
X146867619Y-102052190D01*
X147724761Y-101147428D02*
X147772380Y-101242666D01*
X147772380Y-101433142D01*
X147724761Y-101528380D01*
X147677142Y-101576000D01*
X147581904Y-101623619D01*
X147296190Y-101623619D01*
X147200952Y-101576000D01*
X147153333Y-101528380D01*
X147105714Y-101433142D01*
X147105714Y-101242666D01*
X147153333Y-101147428D01*
X147772380Y-100718857D02*
X147105714Y-100718857D01*
X147296190Y-100718857D02*
X147200952Y-100671238D01*
X147153333Y-100623619D01*
X147105714Y-100528380D01*
X147105714Y-100433142D01*
X147772380Y-99956952D02*
X147724761Y-100052190D01*
X147677142Y-100099809D01*
X147581904Y-100147428D01*
X147296190Y-100147428D01*
X147200952Y-100099809D01*
X147153333Y-100052190D01*
X147105714Y-99956952D01*
X147105714Y-99814095D01*
X147153333Y-99718857D01*
X147200952Y-99671238D01*
X147296190Y-99623619D01*
X147581904Y-99623619D01*
X147677142Y-99671238D01*
X147724761Y-99718857D01*
X147772380Y-99814095D01*
X147772380Y-99956952D01*
X147724761Y-98480761D02*
X147772380Y-98337904D01*
X147772380Y-98099809D01*
X147724761Y-98004571D01*
X147677142Y-97956952D01*
X147581904Y-97909333D01*
X147486666Y-97909333D01*
X147391428Y-97956952D01*
X147343809Y-98004571D01*
X147296190Y-98099809D01*
X147248571Y-98290285D01*
X147200952Y-98385523D01*
X147153333Y-98433142D01*
X147058095Y-98480761D01*
X146962857Y-98480761D01*
X146867619Y-98433142D01*
X146820000Y-98385523D01*
X146772380Y-98290285D01*
X146772380Y-98052190D01*
X146820000Y-97909333D01*
X147772380Y-97480761D02*
X146772380Y-97480761D01*
X146772380Y-97242666D01*
X146820000Y-97099809D01*
X146915238Y-97004571D01*
X147010476Y-96956952D01*
X147200952Y-96909333D01*
X147343809Y-96909333D01*
X147534285Y-96956952D01*
X147629523Y-97004571D01*
X147724761Y-97099809D01*
X147772380Y-97242666D01*
X147772380Y-97480761D01*
X144236666Y-74992666D02*
X144236666Y-74292666D01*
X144470000Y-74792666D01*
X144703333Y-74292666D01*
X144703333Y-74992666D01*
X145036666Y-74992666D02*
X145036666Y-74292666D01*
X145370000Y-74992666D02*
X145370000Y-74292666D01*
X145603333Y-74792666D01*
X145836666Y-74292666D01*
X145836666Y-74992666D01*
X146103333Y-74292666D02*
X146570000Y-74992666D01*
X146570000Y-74292666D02*
X146103333Y-74992666D01*
X147236666Y-74992666D02*
X147003333Y-74659333D01*
X146836666Y-74992666D02*
X146836666Y-74292666D01*
X147103333Y-74292666D01*
X147170000Y-74326000D01*
X147203333Y-74359333D01*
X147236666Y-74426000D01*
X147236666Y-74526000D01*
X147203333Y-74592666D01*
X147170000Y-74626000D01*
X147103333Y-74659333D01*
X146836666Y-74659333D01*
X147436666Y-74292666D02*
X147836666Y-74292666D01*
X147636666Y-74992666D02*
X147636666Y-74292666D01*
X148436666Y-74992666D02*
X148036666Y-74992666D01*
X148236666Y-74992666D02*
X148236666Y-74292666D01*
X148170000Y-74392666D01*
X148103333Y-74459333D01*
X148036666Y-74492666D01*
X148870000Y-74292666D02*
X148936666Y-74292666D01*
X149003333Y-74326000D01*
X149036666Y-74359333D01*
X149070000Y-74426000D01*
X149103333Y-74559333D01*
X149103333Y-74726000D01*
X149070000Y-74859333D01*
X149036666Y-74926000D01*
X149003333Y-74959333D01*
X148936666Y-74992666D01*
X148870000Y-74992666D01*
X148803333Y-74959333D01*
X148770000Y-74926000D01*
X148736666Y-74859333D01*
X148703333Y-74726000D01*
X148703333Y-74559333D01*
X148736666Y-74426000D01*
X148770000Y-74359333D01*
X148803333Y-74326000D01*
X148870000Y-74292666D01*
X149703333Y-74292666D02*
X149570000Y-74292666D01*
X149503333Y-74326000D01*
X149470000Y-74359333D01*
X149403333Y-74459333D01*
X149370000Y-74592666D01*
X149370000Y-74859333D01*
X149403333Y-74926000D01*
X149436666Y-74959333D01*
X149503333Y-74992666D01*
X149636666Y-74992666D01*
X149703333Y-74959333D01*
X149736666Y-74926000D01*
X149770000Y-74859333D01*
X149770000Y-74692666D01*
X149736666Y-74626000D01*
X149703333Y-74592666D01*
X149636666Y-74559333D01*
X149503333Y-74559333D01*
X149436666Y-74592666D01*
X149403333Y-74626000D01*
X149370000Y-74692666D01*
X150036666Y-74359333D02*
X150070000Y-74326000D01*
X150136666Y-74292666D01*
X150303333Y-74292666D01*
X150370000Y-74326000D01*
X150403333Y-74359333D01*
X150436666Y-74426000D01*
X150436666Y-74492666D01*
X150403333Y-74592666D01*
X150003333Y-74992666D01*
X150436666Y-74992666D01*
X146116666Y-73722666D02*
X146116666Y-73022666D01*
X146283333Y-73022666D01*
X146383333Y-73056000D01*
X146450000Y-73122666D01*
X146483333Y-73189333D01*
X146516666Y-73322666D01*
X146516666Y-73422666D01*
X146483333Y-73556000D01*
X146450000Y-73622666D01*
X146383333Y-73689333D01*
X146283333Y-73722666D01*
X146116666Y-73722666D01*
X146716666Y-73022666D02*
X146950000Y-73722666D01*
X147183333Y-73022666D01*
X147616666Y-73022666D02*
X147616666Y-73522666D01*
X147583333Y-73622666D01*
X147516666Y-73689333D01*
X147416666Y-73722666D01*
X147350000Y-73722666D01*
X148250000Y-73022666D02*
X148116666Y-73022666D01*
X148050000Y-73056000D01*
X148016666Y-73089333D01*
X147950000Y-73189333D01*
X147916666Y-73322666D01*
X147916666Y-73589333D01*
X147950000Y-73656000D01*
X147983333Y-73689333D01*
X148050000Y-73722666D01*
X148183333Y-73722666D01*
X148250000Y-73689333D01*
X148283333Y-73656000D01*
X148316666Y-73589333D01*
X148316666Y-73422666D01*
X148283333Y-73356000D01*
X148250000Y-73322666D01*
X148183333Y-73289333D01*
X148050000Y-73289333D01*
X147983333Y-73322666D01*
X147950000Y-73356000D01*
X147916666Y-73422666D01*
X148583333Y-73522666D02*
X148916666Y-73522666D01*
X148516666Y-73722666D02*
X148750000Y-73022666D01*
X148983333Y-73722666D01*
%TO.C,R70*%
X197477142Y-55936380D02*
X197143809Y-55460190D01*
X196905714Y-55936380D02*
X196905714Y-54936380D01*
X197286666Y-54936380D01*
X197381904Y-54984000D01*
X197429523Y-55031619D01*
X197477142Y-55126857D01*
X197477142Y-55269714D01*
X197429523Y-55364952D01*
X197381904Y-55412571D01*
X197286666Y-55460190D01*
X196905714Y-55460190D01*
X197810476Y-54936380D02*
X198477142Y-54936380D01*
X198048571Y-55936380D01*
X199048571Y-54936380D02*
X199143809Y-54936380D01*
X199239047Y-54984000D01*
X199286666Y-55031619D01*
X199334285Y-55126857D01*
X199381904Y-55317333D01*
X199381904Y-55555428D01*
X199334285Y-55745904D01*
X199286666Y-55841142D01*
X199239047Y-55888761D01*
X199143809Y-55936380D01*
X199048571Y-55936380D01*
X198953333Y-55888761D01*
X198905714Y-55841142D01*
X198858095Y-55745904D01*
X198810476Y-55555428D01*
X198810476Y-55317333D01*
X198858095Y-55126857D01*
X198905714Y-55031619D01*
X198953333Y-54984000D01*
X199048571Y-54936380D01*
%TO.C,R69*%
X197477142Y-48316380D02*
X197143809Y-47840190D01*
X196905714Y-48316380D02*
X196905714Y-47316380D01*
X197286666Y-47316380D01*
X197381904Y-47364000D01*
X197429523Y-47411619D01*
X197477142Y-47506857D01*
X197477142Y-47649714D01*
X197429523Y-47744952D01*
X197381904Y-47792571D01*
X197286666Y-47840190D01*
X196905714Y-47840190D01*
X198334285Y-47316380D02*
X198143809Y-47316380D01*
X198048571Y-47364000D01*
X198000952Y-47411619D01*
X197905714Y-47554476D01*
X197858095Y-47744952D01*
X197858095Y-48125904D01*
X197905714Y-48221142D01*
X197953333Y-48268761D01*
X198048571Y-48316380D01*
X198239047Y-48316380D01*
X198334285Y-48268761D01*
X198381904Y-48221142D01*
X198429523Y-48125904D01*
X198429523Y-47887809D01*
X198381904Y-47792571D01*
X198334285Y-47744952D01*
X198239047Y-47697333D01*
X198048571Y-47697333D01*
X197953333Y-47744952D01*
X197905714Y-47792571D01*
X197858095Y-47887809D01*
X198905714Y-48316380D02*
X199096190Y-48316380D01*
X199191428Y-48268761D01*
X199239047Y-48221142D01*
X199334285Y-48078285D01*
X199381904Y-47887809D01*
X199381904Y-47506857D01*
X199334285Y-47411619D01*
X199286666Y-47364000D01*
X199191428Y-47316380D01*
X199000952Y-47316380D01*
X198905714Y-47364000D01*
X198858095Y-47411619D01*
X198810476Y-47506857D01*
X198810476Y-47744952D01*
X198858095Y-47840190D01*
X198905714Y-47887809D01*
X199000952Y-47935428D01*
X199191428Y-47935428D01*
X199286666Y-47887809D01*
X199334285Y-47840190D01*
X199381904Y-47744952D01*
%TO.C,R68*%
X187317142Y-52156380D02*
X186983809Y-51680190D01*
X186745714Y-52156380D02*
X186745714Y-51156380D01*
X187126666Y-51156380D01*
X187221904Y-51204000D01*
X187269523Y-51251619D01*
X187317142Y-51346857D01*
X187317142Y-51489714D01*
X187269523Y-51584952D01*
X187221904Y-51632571D01*
X187126666Y-51680190D01*
X186745714Y-51680190D01*
X188174285Y-51156380D02*
X187983809Y-51156380D01*
X187888571Y-51204000D01*
X187840952Y-51251619D01*
X187745714Y-51394476D01*
X187698095Y-51584952D01*
X187698095Y-51965904D01*
X187745714Y-52061142D01*
X187793333Y-52108761D01*
X187888571Y-52156380D01*
X188079047Y-52156380D01*
X188174285Y-52108761D01*
X188221904Y-52061142D01*
X188269523Y-51965904D01*
X188269523Y-51727809D01*
X188221904Y-51632571D01*
X188174285Y-51584952D01*
X188079047Y-51537333D01*
X187888571Y-51537333D01*
X187793333Y-51584952D01*
X187745714Y-51632571D01*
X187698095Y-51727809D01*
X188840952Y-51584952D02*
X188745714Y-51537333D01*
X188698095Y-51489714D01*
X188650476Y-51394476D01*
X188650476Y-51346857D01*
X188698095Y-51251619D01*
X188745714Y-51204000D01*
X188840952Y-51156380D01*
X189031428Y-51156380D01*
X189126666Y-51204000D01*
X189174285Y-51251619D01*
X189221904Y-51346857D01*
X189221904Y-51394476D01*
X189174285Y-51489714D01*
X189126666Y-51537333D01*
X189031428Y-51584952D01*
X188840952Y-51584952D01*
X188745714Y-51632571D01*
X188698095Y-51680190D01*
X188650476Y-51775428D01*
X188650476Y-51965904D01*
X188698095Y-52061142D01*
X188745714Y-52108761D01*
X188840952Y-52156380D01*
X189031428Y-52156380D01*
X189126666Y-52108761D01*
X189174285Y-52061142D01*
X189221904Y-51965904D01*
X189221904Y-51775428D01*
X189174285Y-51680190D01*
X189126666Y-51632571D01*
X189031428Y-51584952D01*
%TO.C,R67*%
X197477142Y-52126380D02*
X197143809Y-51650190D01*
X196905714Y-52126380D02*
X196905714Y-51126380D01*
X197286666Y-51126380D01*
X197381904Y-51174000D01*
X197429523Y-51221619D01*
X197477142Y-51316857D01*
X197477142Y-51459714D01*
X197429523Y-51554952D01*
X197381904Y-51602571D01*
X197286666Y-51650190D01*
X196905714Y-51650190D01*
X198334285Y-51126380D02*
X198143809Y-51126380D01*
X198048571Y-51174000D01*
X198000952Y-51221619D01*
X197905714Y-51364476D01*
X197858095Y-51554952D01*
X197858095Y-51935904D01*
X197905714Y-52031142D01*
X197953333Y-52078761D01*
X198048571Y-52126380D01*
X198239047Y-52126380D01*
X198334285Y-52078761D01*
X198381904Y-52031142D01*
X198429523Y-51935904D01*
X198429523Y-51697809D01*
X198381904Y-51602571D01*
X198334285Y-51554952D01*
X198239047Y-51507333D01*
X198048571Y-51507333D01*
X197953333Y-51554952D01*
X197905714Y-51602571D01*
X197858095Y-51697809D01*
X198762857Y-51126380D02*
X199429523Y-51126380D01*
X199000952Y-52126380D01*
%TO.C,R65*%
X187317142Y-59634380D02*
X186983809Y-59158190D01*
X186745714Y-59634380D02*
X186745714Y-58634380D01*
X187126666Y-58634380D01*
X187221904Y-58682000D01*
X187269523Y-58729619D01*
X187317142Y-58824857D01*
X187317142Y-58967714D01*
X187269523Y-59062952D01*
X187221904Y-59110571D01*
X187126666Y-59158190D01*
X186745714Y-59158190D01*
X188174285Y-58634380D02*
X187983809Y-58634380D01*
X187888571Y-58682000D01*
X187840952Y-58729619D01*
X187745714Y-58872476D01*
X187698095Y-59062952D01*
X187698095Y-59443904D01*
X187745714Y-59539142D01*
X187793333Y-59586761D01*
X187888571Y-59634380D01*
X188079047Y-59634380D01*
X188174285Y-59586761D01*
X188221904Y-59539142D01*
X188269523Y-59443904D01*
X188269523Y-59205809D01*
X188221904Y-59110571D01*
X188174285Y-59062952D01*
X188079047Y-59015333D01*
X187888571Y-59015333D01*
X187793333Y-59062952D01*
X187745714Y-59110571D01*
X187698095Y-59205809D01*
X189174285Y-58634380D02*
X188698095Y-58634380D01*
X188650476Y-59110571D01*
X188698095Y-59062952D01*
X188793333Y-59015333D01*
X189031428Y-59015333D01*
X189126666Y-59062952D01*
X189174285Y-59110571D01*
X189221904Y-59205809D01*
X189221904Y-59443904D01*
X189174285Y-59539142D01*
X189126666Y-59586761D01*
X189031428Y-59634380D01*
X188793333Y-59634380D01*
X188698095Y-59586761D01*
X188650476Y-59539142D01*
%TO.C,R64*%
X187317142Y-55966380D02*
X186983809Y-55490190D01*
X186745714Y-55966380D02*
X186745714Y-54966380D01*
X187126666Y-54966380D01*
X187221904Y-55014000D01*
X187269523Y-55061619D01*
X187317142Y-55156857D01*
X187317142Y-55299714D01*
X187269523Y-55394952D01*
X187221904Y-55442571D01*
X187126666Y-55490190D01*
X186745714Y-55490190D01*
X188174285Y-54966380D02*
X187983809Y-54966380D01*
X187888571Y-55014000D01*
X187840952Y-55061619D01*
X187745714Y-55204476D01*
X187698095Y-55394952D01*
X187698095Y-55775904D01*
X187745714Y-55871142D01*
X187793333Y-55918761D01*
X187888571Y-55966380D01*
X188079047Y-55966380D01*
X188174285Y-55918761D01*
X188221904Y-55871142D01*
X188269523Y-55775904D01*
X188269523Y-55537809D01*
X188221904Y-55442571D01*
X188174285Y-55394952D01*
X188079047Y-55347333D01*
X187888571Y-55347333D01*
X187793333Y-55394952D01*
X187745714Y-55442571D01*
X187698095Y-55537809D01*
X189126666Y-55299714D02*
X189126666Y-55966380D01*
X188888571Y-54918761D02*
X188650476Y-55633047D01*
X189269523Y-55633047D01*
%TO.C,R63*%
X207637142Y-59776380D02*
X207303809Y-59300190D01*
X207065714Y-59776380D02*
X207065714Y-58776380D01*
X207446666Y-58776380D01*
X207541904Y-58824000D01*
X207589523Y-58871619D01*
X207637142Y-58966857D01*
X207637142Y-59109714D01*
X207589523Y-59204952D01*
X207541904Y-59252571D01*
X207446666Y-59300190D01*
X207065714Y-59300190D01*
X208494285Y-58776380D02*
X208303809Y-58776380D01*
X208208571Y-58824000D01*
X208160952Y-58871619D01*
X208065714Y-59014476D01*
X208018095Y-59204952D01*
X208018095Y-59585904D01*
X208065714Y-59681142D01*
X208113333Y-59728761D01*
X208208571Y-59776380D01*
X208399047Y-59776380D01*
X208494285Y-59728761D01*
X208541904Y-59681142D01*
X208589523Y-59585904D01*
X208589523Y-59347809D01*
X208541904Y-59252571D01*
X208494285Y-59204952D01*
X208399047Y-59157333D01*
X208208571Y-59157333D01*
X208113333Y-59204952D01*
X208065714Y-59252571D01*
X208018095Y-59347809D01*
X208922857Y-58776380D02*
X209541904Y-58776380D01*
X209208571Y-59157333D01*
X209351428Y-59157333D01*
X209446666Y-59204952D01*
X209494285Y-59252571D01*
X209541904Y-59347809D01*
X209541904Y-59585904D01*
X209494285Y-59681142D01*
X209446666Y-59728761D01*
X209351428Y-59776380D01*
X209065714Y-59776380D01*
X208970476Y-59728761D01*
X208922857Y-59681142D01*
%TO.C,R62*%
X207637142Y-52156380D02*
X207303809Y-51680190D01*
X207065714Y-52156380D02*
X207065714Y-51156380D01*
X207446666Y-51156380D01*
X207541904Y-51204000D01*
X207589523Y-51251619D01*
X207637142Y-51346857D01*
X207637142Y-51489714D01*
X207589523Y-51584952D01*
X207541904Y-51632571D01*
X207446666Y-51680190D01*
X207065714Y-51680190D01*
X208494285Y-51156380D02*
X208303809Y-51156380D01*
X208208571Y-51204000D01*
X208160952Y-51251619D01*
X208065714Y-51394476D01*
X208018095Y-51584952D01*
X208018095Y-51965904D01*
X208065714Y-52061142D01*
X208113333Y-52108761D01*
X208208571Y-52156380D01*
X208399047Y-52156380D01*
X208494285Y-52108761D01*
X208541904Y-52061142D01*
X208589523Y-51965904D01*
X208589523Y-51727809D01*
X208541904Y-51632571D01*
X208494285Y-51584952D01*
X208399047Y-51537333D01*
X208208571Y-51537333D01*
X208113333Y-51584952D01*
X208065714Y-51632571D01*
X208018095Y-51727809D01*
X208970476Y-51251619D02*
X209018095Y-51204000D01*
X209113333Y-51156380D01*
X209351428Y-51156380D01*
X209446666Y-51204000D01*
X209494285Y-51251619D01*
X209541904Y-51346857D01*
X209541904Y-51442095D01*
X209494285Y-51584952D01*
X208922857Y-52156380D01*
X209541904Y-52156380D01*
%TO.C,R61*%
X217797142Y-48316380D02*
X217463809Y-47840190D01*
X217225714Y-48316380D02*
X217225714Y-47316380D01*
X217606666Y-47316380D01*
X217701904Y-47364000D01*
X217749523Y-47411619D01*
X217797142Y-47506857D01*
X217797142Y-47649714D01*
X217749523Y-47744952D01*
X217701904Y-47792571D01*
X217606666Y-47840190D01*
X217225714Y-47840190D01*
X218654285Y-47316380D02*
X218463809Y-47316380D01*
X218368571Y-47364000D01*
X218320952Y-47411619D01*
X218225714Y-47554476D01*
X218178095Y-47744952D01*
X218178095Y-48125904D01*
X218225714Y-48221142D01*
X218273333Y-48268761D01*
X218368571Y-48316380D01*
X218559047Y-48316380D01*
X218654285Y-48268761D01*
X218701904Y-48221142D01*
X218749523Y-48125904D01*
X218749523Y-47887809D01*
X218701904Y-47792571D01*
X218654285Y-47744952D01*
X218559047Y-47697333D01*
X218368571Y-47697333D01*
X218273333Y-47744952D01*
X218225714Y-47792571D01*
X218178095Y-47887809D01*
X219701904Y-48316380D02*
X219130476Y-48316380D01*
X219416190Y-48316380D02*
X219416190Y-47316380D01*
X219320952Y-47459238D01*
X219225714Y-47554476D01*
X219130476Y-47602095D01*
%TO.C,R60*%
X207637142Y-55966380D02*
X207303809Y-55490190D01*
X207065714Y-55966380D02*
X207065714Y-54966380D01*
X207446666Y-54966380D01*
X207541904Y-55014000D01*
X207589523Y-55061619D01*
X207637142Y-55156857D01*
X207637142Y-55299714D01*
X207589523Y-55394952D01*
X207541904Y-55442571D01*
X207446666Y-55490190D01*
X207065714Y-55490190D01*
X208494285Y-54966380D02*
X208303809Y-54966380D01*
X208208571Y-55014000D01*
X208160952Y-55061619D01*
X208065714Y-55204476D01*
X208018095Y-55394952D01*
X208018095Y-55775904D01*
X208065714Y-55871142D01*
X208113333Y-55918761D01*
X208208571Y-55966380D01*
X208399047Y-55966380D01*
X208494285Y-55918761D01*
X208541904Y-55871142D01*
X208589523Y-55775904D01*
X208589523Y-55537809D01*
X208541904Y-55442571D01*
X208494285Y-55394952D01*
X208399047Y-55347333D01*
X208208571Y-55347333D01*
X208113333Y-55394952D01*
X208065714Y-55442571D01*
X208018095Y-55537809D01*
X209208571Y-54966380D02*
X209303809Y-54966380D01*
X209399047Y-55014000D01*
X209446666Y-55061619D01*
X209494285Y-55156857D01*
X209541904Y-55347333D01*
X209541904Y-55585428D01*
X209494285Y-55775904D01*
X209446666Y-55871142D01*
X209399047Y-55918761D01*
X209303809Y-55966380D01*
X209208571Y-55966380D01*
X209113333Y-55918761D01*
X209065714Y-55871142D01*
X209018095Y-55775904D01*
X208970476Y-55585428D01*
X208970476Y-55347333D01*
X209018095Y-55156857D01*
X209065714Y-55061619D01*
X209113333Y-55014000D01*
X209208571Y-54966380D01*
%TO.C,R58*%
X217797142Y-59776380D02*
X217463809Y-59300190D01*
X217225714Y-59776380D02*
X217225714Y-58776380D01*
X217606666Y-58776380D01*
X217701904Y-58824000D01*
X217749523Y-58871619D01*
X217797142Y-58966857D01*
X217797142Y-59109714D01*
X217749523Y-59204952D01*
X217701904Y-59252571D01*
X217606666Y-59300190D01*
X217225714Y-59300190D01*
X218701904Y-58776380D02*
X218225714Y-58776380D01*
X218178095Y-59252571D01*
X218225714Y-59204952D01*
X218320952Y-59157333D01*
X218559047Y-59157333D01*
X218654285Y-59204952D01*
X218701904Y-59252571D01*
X218749523Y-59347809D01*
X218749523Y-59585904D01*
X218701904Y-59681142D01*
X218654285Y-59728761D01*
X218559047Y-59776380D01*
X218320952Y-59776380D01*
X218225714Y-59728761D01*
X218178095Y-59681142D01*
X219320952Y-59204952D02*
X219225714Y-59157333D01*
X219178095Y-59109714D01*
X219130476Y-59014476D01*
X219130476Y-58966857D01*
X219178095Y-58871619D01*
X219225714Y-58824000D01*
X219320952Y-58776380D01*
X219511428Y-58776380D01*
X219606666Y-58824000D01*
X219654285Y-58871619D01*
X219701904Y-58966857D01*
X219701904Y-59014476D01*
X219654285Y-59109714D01*
X219606666Y-59157333D01*
X219511428Y-59204952D01*
X219320952Y-59204952D01*
X219225714Y-59252571D01*
X219178095Y-59300190D01*
X219130476Y-59395428D01*
X219130476Y-59585904D01*
X219178095Y-59681142D01*
X219225714Y-59728761D01*
X219320952Y-59776380D01*
X219511428Y-59776380D01*
X219606666Y-59728761D01*
X219654285Y-59681142D01*
X219701904Y-59585904D01*
X219701904Y-59395428D01*
X219654285Y-59300190D01*
X219606666Y-59252571D01*
X219511428Y-59204952D01*
%TO.C,R57*%
X217797142Y-52126380D02*
X217463809Y-51650190D01*
X217225714Y-52126380D02*
X217225714Y-51126380D01*
X217606666Y-51126380D01*
X217701904Y-51174000D01*
X217749523Y-51221619D01*
X217797142Y-51316857D01*
X217797142Y-51459714D01*
X217749523Y-51554952D01*
X217701904Y-51602571D01*
X217606666Y-51650190D01*
X217225714Y-51650190D01*
X218701904Y-51126380D02*
X218225714Y-51126380D01*
X218178095Y-51602571D01*
X218225714Y-51554952D01*
X218320952Y-51507333D01*
X218559047Y-51507333D01*
X218654285Y-51554952D01*
X218701904Y-51602571D01*
X218749523Y-51697809D01*
X218749523Y-51935904D01*
X218701904Y-52031142D01*
X218654285Y-52078761D01*
X218559047Y-52126380D01*
X218320952Y-52126380D01*
X218225714Y-52078761D01*
X218178095Y-52031142D01*
X219082857Y-51126380D02*
X219749523Y-51126380D01*
X219320952Y-52126380D01*
%TO.C,R56*%
X195953142Y-103464380D02*
X195619809Y-102988190D01*
X195381714Y-103464380D02*
X195381714Y-102464380D01*
X195762666Y-102464380D01*
X195857904Y-102512000D01*
X195905523Y-102559619D01*
X195953142Y-102654857D01*
X195953142Y-102797714D01*
X195905523Y-102892952D01*
X195857904Y-102940571D01*
X195762666Y-102988190D01*
X195381714Y-102988190D01*
X196857904Y-102464380D02*
X196381714Y-102464380D01*
X196334095Y-102940571D01*
X196381714Y-102892952D01*
X196476952Y-102845333D01*
X196715047Y-102845333D01*
X196810285Y-102892952D01*
X196857904Y-102940571D01*
X196905523Y-103035809D01*
X196905523Y-103273904D01*
X196857904Y-103369142D01*
X196810285Y-103416761D01*
X196715047Y-103464380D01*
X196476952Y-103464380D01*
X196381714Y-103416761D01*
X196334095Y-103369142D01*
X197762666Y-102464380D02*
X197572190Y-102464380D01*
X197476952Y-102512000D01*
X197429333Y-102559619D01*
X197334095Y-102702476D01*
X197286476Y-102892952D01*
X197286476Y-103273904D01*
X197334095Y-103369142D01*
X197381714Y-103416761D01*
X197476952Y-103464380D01*
X197667428Y-103464380D01*
X197762666Y-103416761D01*
X197810285Y-103369142D01*
X197857904Y-103273904D01*
X197857904Y-103035809D01*
X197810285Y-102940571D01*
X197762666Y-102892952D01*
X197667428Y-102845333D01*
X197476952Y-102845333D01*
X197381714Y-102892952D01*
X197334095Y-102940571D01*
X197286476Y-103035809D01*
%TO.C,R55*%
X195953142Y-111084380D02*
X195619809Y-110608190D01*
X195381714Y-111084380D02*
X195381714Y-110084380D01*
X195762666Y-110084380D01*
X195857904Y-110132000D01*
X195905523Y-110179619D01*
X195953142Y-110274857D01*
X195953142Y-110417714D01*
X195905523Y-110512952D01*
X195857904Y-110560571D01*
X195762666Y-110608190D01*
X195381714Y-110608190D01*
X196857904Y-110084380D02*
X196381714Y-110084380D01*
X196334095Y-110560571D01*
X196381714Y-110512952D01*
X196476952Y-110465333D01*
X196715047Y-110465333D01*
X196810285Y-110512952D01*
X196857904Y-110560571D01*
X196905523Y-110655809D01*
X196905523Y-110893904D01*
X196857904Y-110989142D01*
X196810285Y-111036761D01*
X196715047Y-111084380D01*
X196476952Y-111084380D01*
X196381714Y-111036761D01*
X196334095Y-110989142D01*
X197810285Y-110084380D02*
X197334095Y-110084380D01*
X197286476Y-110560571D01*
X197334095Y-110512952D01*
X197429333Y-110465333D01*
X197667428Y-110465333D01*
X197762666Y-110512952D01*
X197810285Y-110560571D01*
X197857904Y-110655809D01*
X197857904Y-110893904D01*
X197810285Y-110989142D01*
X197762666Y-111036761D01*
X197667428Y-111084380D01*
X197429333Y-111084380D01*
X197334095Y-111036761D01*
X197286476Y-110989142D01*
%TO.C,R54*%
X206113142Y-107244380D02*
X205779809Y-106768190D01*
X205541714Y-107244380D02*
X205541714Y-106244380D01*
X205922666Y-106244380D01*
X206017904Y-106292000D01*
X206065523Y-106339619D01*
X206113142Y-106434857D01*
X206113142Y-106577714D01*
X206065523Y-106672952D01*
X206017904Y-106720571D01*
X205922666Y-106768190D01*
X205541714Y-106768190D01*
X207017904Y-106244380D02*
X206541714Y-106244380D01*
X206494095Y-106720571D01*
X206541714Y-106672952D01*
X206636952Y-106625333D01*
X206875047Y-106625333D01*
X206970285Y-106672952D01*
X207017904Y-106720571D01*
X207065523Y-106815809D01*
X207065523Y-107053904D01*
X207017904Y-107149142D01*
X206970285Y-107196761D01*
X206875047Y-107244380D01*
X206636952Y-107244380D01*
X206541714Y-107196761D01*
X206494095Y-107149142D01*
X207922666Y-106577714D02*
X207922666Y-107244380D01*
X207684571Y-106196761D02*
X207446476Y-106911047D01*
X208065523Y-106911047D01*
%TO.C,R53*%
X195953142Y-107274380D02*
X195619809Y-106798190D01*
X195381714Y-107274380D02*
X195381714Y-106274380D01*
X195762666Y-106274380D01*
X195857904Y-106322000D01*
X195905523Y-106369619D01*
X195953142Y-106464857D01*
X195953142Y-106607714D01*
X195905523Y-106702952D01*
X195857904Y-106750571D01*
X195762666Y-106798190D01*
X195381714Y-106798190D01*
X196857904Y-106274380D02*
X196381714Y-106274380D01*
X196334095Y-106750571D01*
X196381714Y-106702952D01*
X196476952Y-106655333D01*
X196715047Y-106655333D01*
X196810285Y-106702952D01*
X196857904Y-106750571D01*
X196905523Y-106845809D01*
X196905523Y-107083904D01*
X196857904Y-107179142D01*
X196810285Y-107226761D01*
X196715047Y-107274380D01*
X196476952Y-107274380D01*
X196381714Y-107226761D01*
X196334095Y-107179142D01*
X197238857Y-106274380D02*
X197857904Y-106274380D01*
X197524571Y-106655333D01*
X197667428Y-106655333D01*
X197762666Y-106702952D01*
X197810285Y-106750571D01*
X197857904Y-106845809D01*
X197857904Y-107083904D01*
X197810285Y-107179142D01*
X197762666Y-107226761D01*
X197667428Y-107274380D01*
X197381714Y-107274380D01*
X197286476Y-107226761D01*
X197238857Y-107179142D01*
%TO.C,R51*%
X206113142Y-99766380D02*
X205779809Y-99290190D01*
X205541714Y-99766380D02*
X205541714Y-98766380D01*
X205922666Y-98766380D01*
X206017904Y-98814000D01*
X206065523Y-98861619D01*
X206113142Y-98956857D01*
X206113142Y-99099714D01*
X206065523Y-99194952D01*
X206017904Y-99242571D01*
X205922666Y-99290190D01*
X205541714Y-99290190D01*
X207017904Y-98766380D02*
X206541714Y-98766380D01*
X206494095Y-99242571D01*
X206541714Y-99194952D01*
X206636952Y-99147333D01*
X206875047Y-99147333D01*
X206970285Y-99194952D01*
X207017904Y-99242571D01*
X207065523Y-99337809D01*
X207065523Y-99575904D01*
X207017904Y-99671142D01*
X206970285Y-99718761D01*
X206875047Y-99766380D01*
X206636952Y-99766380D01*
X206541714Y-99718761D01*
X206494095Y-99671142D01*
X208017904Y-99766380D02*
X207446476Y-99766380D01*
X207732190Y-99766380D02*
X207732190Y-98766380D01*
X207636952Y-98909238D01*
X207541714Y-99004476D01*
X207446476Y-99052095D01*
%TO.C,R50*%
X206113142Y-103434380D02*
X205779809Y-102958190D01*
X205541714Y-103434380D02*
X205541714Y-102434380D01*
X205922666Y-102434380D01*
X206017904Y-102482000D01*
X206065523Y-102529619D01*
X206113142Y-102624857D01*
X206113142Y-102767714D01*
X206065523Y-102862952D01*
X206017904Y-102910571D01*
X205922666Y-102958190D01*
X205541714Y-102958190D01*
X207017904Y-102434380D02*
X206541714Y-102434380D01*
X206494095Y-102910571D01*
X206541714Y-102862952D01*
X206636952Y-102815333D01*
X206875047Y-102815333D01*
X206970285Y-102862952D01*
X207017904Y-102910571D01*
X207065523Y-103005809D01*
X207065523Y-103243904D01*
X207017904Y-103339142D01*
X206970285Y-103386761D01*
X206875047Y-103434380D01*
X206636952Y-103434380D01*
X206541714Y-103386761D01*
X206494095Y-103339142D01*
X207684571Y-102434380D02*
X207779809Y-102434380D01*
X207875047Y-102482000D01*
X207922666Y-102529619D01*
X207970285Y-102624857D01*
X208017904Y-102815333D01*
X208017904Y-103053428D01*
X207970285Y-103243904D01*
X207922666Y-103339142D01*
X207875047Y-103386761D01*
X207779809Y-103434380D01*
X207684571Y-103434380D01*
X207589333Y-103386761D01*
X207541714Y-103339142D01*
X207494095Y-103243904D01*
X207446476Y-103053428D01*
X207446476Y-102815333D01*
X207494095Y-102624857D01*
X207541714Y-102529619D01*
X207589333Y-102482000D01*
X207684571Y-102434380D01*
%TO.C,R49*%
X185793142Y-99624380D02*
X185459809Y-99148190D01*
X185221714Y-99624380D02*
X185221714Y-98624380D01*
X185602666Y-98624380D01*
X185697904Y-98672000D01*
X185745523Y-98719619D01*
X185793142Y-98814857D01*
X185793142Y-98957714D01*
X185745523Y-99052952D01*
X185697904Y-99100571D01*
X185602666Y-99148190D01*
X185221714Y-99148190D01*
X186650285Y-98957714D02*
X186650285Y-99624380D01*
X186412190Y-98576761D02*
X186174095Y-99291047D01*
X186793142Y-99291047D01*
X187221714Y-99624380D02*
X187412190Y-99624380D01*
X187507428Y-99576761D01*
X187555047Y-99529142D01*
X187650285Y-99386285D01*
X187697904Y-99195809D01*
X187697904Y-98814857D01*
X187650285Y-98719619D01*
X187602666Y-98672000D01*
X187507428Y-98624380D01*
X187316952Y-98624380D01*
X187221714Y-98672000D01*
X187174095Y-98719619D01*
X187126476Y-98814857D01*
X187126476Y-99052952D01*
X187174095Y-99148190D01*
X187221714Y-99195809D01*
X187316952Y-99243428D01*
X187507428Y-99243428D01*
X187602666Y-99195809D01*
X187650285Y-99148190D01*
X187697904Y-99052952D01*
%TO.C,R48*%
X185793142Y-107244380D02*
X185459809Y-106768190D01*
X185221714Y-107244380D02*
X185221714Y-106244380D01*
X185602666Y-106244380D01*
X185697904Y-106292000D01*
X185745523Y-106339619D01*
X185793142Y-106434857D01*
X185793142Y-106577714D01*
X185745523Y-106672952D01*
X185697904Y-106720571D01*
X185602666Y-106768190D01*
X185221714Y-106768190D01*
X186650285Y-106577714D02*
X186650285Y-107244380D01*
X186412190Y-106196761D02*
X186174095Y-106911047D01*
X186793142Y-106911047D01*
X187316952Y-106672952D02*
X187221714Y-106625333D01*
X187174095Y-106577714D01*
X187126476Y-106482476D01*
X187126476Y-106434857D01*
X187174095Y-106339619D01*
X187221714Y-106292000D01*
X187316952Y-106244380D01*
X187507428Y-106244380D01*
X187602666Y-106292000D01*
X187650285Y-106339619D01*
X187697904Y-106434857D01*
X187697904Y-106482476D01*
X187650285Y-106577714D01*
X187602666Y-106625333D01*
X187507428Y-106672952D01*
X187316952Y-106672952D01*
X187221714Y-106720571D01*
X187174095Y-106768190D01*
X187126476Y-106863428D01*
X187126476Y-107053904D01*
X187174095Y-107149142D01*
X187221714Y-107196761D01*
X187316952Y-107244380D01*
X187507428Y-107244380D01*
X187602666Y-107196761D01*
X187650285Y-107149142D01*
X187697904Y-107053904D01*
X187697904Y-106863428D01*
X187650285Y-106768190D01*
X187602666Y-106720571D01*
X187507428Y-106672952D01*
%TO.C,R47*%
X175633142Y-111084380D02*
X175299809Y-110608190D01*
X175061714Y-111084380D02*
X175061714Y-110084380D01*
X175442666Y-110084380D01*
X175537904Y-110132000D01*
X175585523Y-110179619D01*
X175633142Y-110274857D01*
X175633142Y-110417714D01*
X175585523Y-110512952D01*
X175537904Y-110560571D01*
X175442666Y-110608190D01*
X175061714Y-110608190D01*
X176490285Y-110417714D02*
X176490285Y-111084380D01*
X176252190Y-110036761D02*
X176014095Y-110751047D01*
X176633142Y-110751047D01*
X176918857Y-110084380D02*
X177585523Y-110084380D01*
X177156952Y-111084380D01*
%TO.C,R46*%
X185793142Y-103434380D02*
X185459809Y-102958190D01*
X185221714Y-103434380D02*
X185221714Y-102434380D01*
X185602666Y-102434380D01*
X185697904Y-102482000D01*
X185745523Y-102529619D01*
X185793142Y-102624857D01*
X185793142Y-102767714D01*
X185745523Y-102862952D01*
X185697904Y-102910571D01*
X185602666Y-102958190D01*
X185221714Y-102958190D01*
X186650285Y-102767714D02*
X186650285Y-103434380D01*
X186412190Y-102386761D02*
X186174095Y-103101047D01*
X186793142Y-103101047D01*
X187602666Y-102434380D02*
X187412190Y-102434380D01*
X187316952Y-102482000D01*
X187269333Y-102529619D01*
X187174095Y-102672476D01*
X187126476Y-102862952D01*
X187126476Y-103243904D01*
X187174095Y-103339142D01*
X187221714Y-103386761D01*
X187316952Y-103434380D01*
X187507428Y-103434380D01*
X187602666Y-103386761D01*
X187650285Y-103339142D01*
X187697904Y-103243904D01*
X187697904Y-103005809D01*
X187650285Y-102910571D01*
X187602666Y-102862952D01*
X187507428Y-102815333D01*
X187316952Y-102815333D01*
X187221714Y-102862952D01*
X187174095Y-102910571D01*
X187126476Y-103005809D01*
%TO.C,R44*%
X175633142Y-99624380D02*
X175299809Y-99148190D01*
X175061714Y-99624380D02*
X175061714Y-98624380D01*
X175442666Y-98624380D01*
X175537904Y-98672000D01*
X175585523Y-98719619D01*
X175633142Y-98814857D01*
X175633142Y-98957714D01*
X175585523Y-99052952D01*
X175537904Y-99100571D01*
X175442666Y-99148190D01*
X175061714Y-99148190D01*
X176490285Y-98957714D02*
X176490285Y-99624380D01*
X176252190Y-98576761D02*
X176014095Y-99291047D01*
X176633142Y-99291047D01*
X177442666Y-98957714D02*
X177442666Y-99624380D01*
X177204571Y-98576761D02*
X176966476Y-99291047D01*
X177585523Y-99291047D01*
%TO.C,R43*%
X175633142Y-107274380D02*
X175299809Y-106798190D01*
X175061714Y-107274380D02*
X175061714Y-106274380D01*
X175442666Y-106274380D01*
X175537904Y-106322000D01*
X175585523Y-106369619D01*
X175633142Y-106464857D01*
X175633142Y-106607714D01*
X175585523Y-106702952D01*
X175537904Y-106750571D01*
X175442666Y-106798190D01*
X175061714Y-106798190D01*
X176490285Y-106607714D02*
X176490285Y-107274380D01*
X176252190Y-106226761D02*
X176014095Y-106941047D01*
X176633142Y-106941047D01*
X176918857Y-106274380D02*
X177537904Y-106274380D01*
X177204571Y-106655333D01*
X177347428Y-106655333D01*
X177442666Y-106702952D01*
X177490285Y-106750571D01*
X177537904Y-106845809D01*
X177537904Y-107083904D01*
X177490285Y-107179142D01*
X177442666Y-107226761D01*
X177347428Y-107274380D01*
X177061714Y-107274380D01*
X176966476Y-107226761D01*
X176918857Y-107179142D01*
%TO.C,R42*%
X185793142Y-84384380D02*
X185459809Y-83908190D01*
X185221714Y-84384380D02*
X185221714Y-83384380D01*
X185602666Y-83384380D01*
X185697904Y-83432000D01*
X185745523Y-83479619D01*
X185793142Y-83574857D01*
X185793142Y-83717714D01*
X185745523Y-83812952D01*
X185697904Y-83860571D01*
X185602666Y-83908190D01*
X185221714Y-83908190D01*
X186650285Y-83717714D02*
X186650285Y-84384380D01*
X186412190Y-83336761D02*
X186174095Y-84051047D01*
X186793142Y-84051047D01*
X187126476Y-83479619D02*
X187174095Y-83432000D01*
X187269333Y-83384380D01*
X187507428Y-83384380D01*
X187602666Y-83432000D01*
X187650285Y-83479619D01*
X187697904Y-83574857D01*
X187697904Y-83670095D01*
X187650285Y-83812952D01*
X187078857Y-84384380D01*
X187697904Y-84384380D01*
%TO.C,R41*%
X185793142Y-76764380D02*
X185459809Y-76288190D01*
X185221714Y-76764380D02*
X185221714Y-75764380D01*
X185602666Y-75764380D01*
X185697904Y-75812000D01*
X185745523Y-75859619D01*
X185793142Y-75954857D01*
X185793142Y-76097714D01*
X185745523Y-76192952D01*
X185697904Y-76240571D01*
X185602666Y-76288190D01*
X185221714Y-76288190D01*
X186650285Y-76097714D02*
X186650285Y-76764380D01*
X186412190Y-75716761D02*
X186174095Y-76431047D01*
X186793142Y-76431047D01*
X187697904Y-76764380D02*
X187126476Y-76764380D01*
X187412190Y-76764380D02*
X187412190Y-75764380D01*
X187316952Y-75907238D01*
X187221714Y-76002476D01*
X187126476Y-76050095D01*
%TO.C,R40*%
X175379142Y-80604380D02*
X175045809Y-80128190D01*
X174807714Y-80604380D02*
X174807714Y-79604380D01*
X175188666Y-79604380D01*
X175283904Y-79652000D01*
X175331523Y-79699619D01*
X175379142Y-79794857D01*
X175379142Y-79937714D01*
X175331523Y-80032952D01*
X175283904Y-80080571D01*
X175188666Y-80128190D01*
X174807714Y-80128190D01*
X176236285Y-79937714D02*
X176236285Y-80604380D01*
X175998190Y-79556761D02*
X175760095Y-80271047D01*
X176379142Y-80271047D01*
X176950571Y-79604380D02*
X177045809Y-79604380D01*
X177141047Y-79652000D01*
X177188666Y-79699619D01*
X177236285Y-79794857D01*
X177283904Y-79985333D01*
X177283904Y-80223428D01*
X177236285Y-80413904D01*
X177188666Y-80509142D01*
X177141047Y-80556761D01*
X177045809Y-80604380D01*
X176950571Y-80604380D01*
X176855333Y-80556761D01*
X176807714Y-80509142D01*
X176760095Y-80413904D01*
X176712476Y-80223428D01*
X176712476Y-79985333D01*
X176760095Y-79794857D01*
X176807714Y-79699619D01*
X176855333Y-79652000D01*
X176950571Y-79604380D01*
%TO.C,R39*%
X185793142Y-80574380D02*
X185459809Y-80098190D01*
X185221714Y-80574380D02*
X185221714Y-79574380D01*
X185602666Y-79574380D01*
X185697904Y-79622000D01*
X185745523Y-79669619D01*
X185793142Y-79764857D01*
X185793142Y-79907714D01*
X185745523Y-80002952D01*
X185697904Y-80050571D01*
X185602666Y-80098190D01*
X185221714Y-80098190D01*
X186126476Y-79574380D02*
X186745523Y-79574380D01*
X186412190Y-79955333D01*
X186555047Y-79955333D01*
X186650285Y-80002952D01*
X186697904Y-80050571D01*
X186745523Y-80145809D01*
X186745523Y-80383904D01*
X186697904Y-80479142D01*
X186650285Y-80526761D01*
X186555047Y-80574380D01*
X186269333Y-80574380D01*
X186174095Y-80526761D01*
X186126476Y-80479142D01*
X187221714Y-80574380D02*
X187412190Y-80574380D01*
X187507428Y-80526761D01*
X187555047Y-80479142D01*
X187650285Y-80336285D01*
X187697904Y-80145809D01*
X187697904Y-79764857D01*
X187650285Y-79669619D01*
X187602666Y-79622000D01*
X187507428Y-79574380D01*
X187316952Y-79574380D01*
X187221714Y-79622000D01*
X187174095Y-79669619D01*
X187126476Y-79764857D01*
X187126476Y-80002952D01*
X187174095Y-80098190D01*
X187221714Y-80145809D01*
X187316952Y-80193428D01*
X187507428Y-80193428D01*
X187602666Y-80145809D01*
X187650285Y-80098190D01*
X187697904Y-80002952D01*
%TO.C,R37*%
X170299142Y-84272380D02*
X169965809Y-83796190D01*
X169727714Y-84272380D02*
X169727714Y-83272380D01*
X170108666Y-83272380D01*
X170203904Y-83320000D01*
X170251523Y-83367619D01*
X170299142Y-83462857D01*
X170299142Y-83605714D01*
X170251523Y-83700952D01*
X170203904Y-83748571D01*
X170108666Y-83796190D01*
X169727714Y-83796190D01*
X170632476Y-83272380D02*
X171251523Y-83272380D01*
X170918190Y-83653333D01*
X171061047Y-83653333D01*
X171156285Y-83700952D01*
X171203904Y-83748571D01*
X171251523Y-83843809D01*
X171251523Y-84081904D01*
X171203904Y-84177142D01*
X171156285Y-84224761D01*
X171061047Y-84272380D01*
X170775333Y-84272380D01*
X170680095Y-84224761D01*
X170632476Y-84177142D01*
X171584857Y-83272380D02*
X172251523Y-83272380D01*
X171822952Y-84272380D01*
%TO.C,R36*%
X175379142Y-84414380D02*
X175045809Y-83938190D01*
X174807714Y-84414380D02*
X174807714Y-83414380D01*
X175188666Y-83414380D01*
X175283904Y-83462000D01*
X175331523Y-83509619D01*
X175379142Y-83604857D01*
X175379142Y-83747714D01*
X175331523Y-83842952D01*
X175283904Y-83890571D01*
X175188666Y-83938190D01*
X174807714Y-83938190D01*
X175712476Y-83414380D02*
X176331523Y-83414380D01*
X175998190Y-83795333D01*
X176141047Y-83795333D01*
X176236285Y-83842952D01*
X176283904Y-83890571D01*
X176331523Y-83985809D01*
X176331523Y-84223904D01*
X176283904Y-84319142D01*
X176236285Y-84366761D01*
X176141047Y-84414380D01*
X175855333Y-84414380D01*
X175760095Y-84366761D01*
X175712476Y-84319142D01*
X177188666Y-83414380D02*
X176998190Y-83414380D01*
X176902952Y-83462000D01*
X176855333Y-83509619D01*
X176760095Y-83652476D01*
X176712476Y-83842952D01*
X176712476Y-84223904D01*
X176760095Y-84319142D01*
X176807714Y-84366761D01*
X176902952Y-84414380D01*
X177093428Y-84414380D01*
X177188666Y-84366761D01*
X177236285Y-84319142D01*
X177283904Y-84223904D01*
X177283904Y-83985809D01*
X177236285Y-83890571D01*
X177188666Y-83842952D01*
X177093428Y-83795333D01*
X176902952Y-83795333D01*
X176807714Y-83842952D01*
X176760095Y-83890571D01*
X176712476Y-83985809D01*
%TO.C,R35*%
X195953142Y-88224380D02*
X195619809Y-87748190D01*
X195381714Y-88224380D02*
X195381714Y-87224380D01*
X195762666Y-87224380D01*
X195857904Y-87272000D01*
X195905523Y-87319619D01*
X195953142Y-87414857D01*
X195953142Y-87557714D01*
X195905523Y-87652952D01*
X195857904Y-87700571D01*
X195762666Y-87748190D01*
X195381714Y-87748190D01*
X196286476Y-87224380D02*
X196905523Y-87224380D01*
X196572190Y-87605333D01*
X196715047Y-87605333D01*
X196810285Y-87652952D01*
X196857904Y-87700571D01*
X196905523Y-87795809D01*
X196905523Y-88033904D01*
X196857904Y-88129142D01*
X196810285Y-88176761D01*
X196715047Y-88224380D01*
X196429333Y-88224380D01*
X196334095Y-88176761D01*
X196286476Y-88129142D01*
X197810285Y-87224380D02*
X197334095Y-87224380D01*
X197286476Y-87700571D01*
X197334095Y-87652952D01*
X197429333Y-87605333D01*
X197667428Y-87605333D01*
X197762666Y-87652952D01*
X197810285Y-87700571D01*
X197857904Y-87795809D01*
X197857904Y-88033904D01*
X197810285Y-88129142D01*
X197762666Y-88176761D01*
X197667428Y-88224380D01*
X197429333Y-88224380D01*
X197334095Y-88176761D01*
X197286476Y-88129142D01*
%TO.C,R34*%
X195953142Y-80604380D02*
X195619809Y-80128190D01*
X195381714Y-80604380D02*
X195381714Y-79604380D01*
X195762666Y-79604380D01*
X195857904Y-79652000D01*
X195905523Y-79699619D01*
X195953142Y-79794857D01*
X195953142Y-79937714D01*
X195905523Y-80032952D01*
X195857904Y-80080571D01*
X195762666Y-80128190D01*
X195381714Y-80128190D01*
X196286476Y-79604380D02*
X196905523Y-79604380D01*
X196572190Y-79985333D01*
X196715047Y-79985333D01*
X196810285Y-80032952D01*
X196857904Y-80080571D01*
X196905523Y-80175809D01*
X196905523Y-80413904D01*
X196857904Y-80509142D01*
X196810285Y-80556761D01*
X196715047Y-80604380D01*
X196429333Y-80604380D01*
X196334095Y-80556761D01*
X196286476Y-80509142D01*
X197762666Y-79937714D02*
X197762666Y-80604380D01*
X197524571Y-79556761D02*
X197286476Y-80271047D01*
X197905523Y-80271047D01*
%TO.C,R33*%
X206113142Y-76764380D02*
X205779809Y-76288190D01*
X205541714Y-76764380D02*
X205541714Y-75764380D01*
X205922666Y-75764380D01*
X206017904Y-75812000D01*
X206065523Y-75859619D01*
X206113142Y-75954857D01*
X206113142Y-76097714D01*
X206065523Y-76192952D01*
X206017904Y-76240571D01*
X205922666Y-76288190D01*
X205541714Y-76288190D01*
X206446476Y-75764380D02*
X207065523Y-75764380D01*
X206732190Y-76145333D01*
X206875047Y-76145333D01*
X206970285Y-76192952D01*
X207017904Y-76240571D01*
X207065523Y-76335809D01*
X207065523Y-76573904D01*
X207017904Y-76669142D01*
X206970285Y-76716761D01*
X206875047Y-76764380D01*
X206589333Y-76764380D01*
X206494095Y-76716761D01*
X206446476Y-76669142D01*
X207398857Y-75764380D02*
X208017904Y-75764380D01*
X207684571Y-76145333D01*
X207827428Y-76145333D01*
X207922666Y-76192952D01*
X207970285Y-76240571D01*
X208017904Y-76335809D01*
X208017904Y-76573904D01*
X207970285Y-76669142D01*
X207922666Y-76716761D01*
X207827428Y-76764380D01*
X207541714Y-76764380D01*
X207446476Y-76716761D01*
X207398857Y-76669142D01*
%TO.C,R32*%
X195953142Y-84414380D02*
X195619809Y-83938190D01*
X195381714Y-84414380D02*
X195381714Y-83414380D01*
X195762666Y-83414380D01*
X195857904Y-83462000D01*
X195905523Y-83509619D01*
X195953142Y-83604857D01*
X195953142Y-83747714D01*
X195905523Y-83842952D01*
X195857904Y-83890571D01*
X195762666Y-83938190D01*
X195381714Y-83938190D01*
X196286476Y-83414380D02*
X196905523Y-83414380D01*
X196572190Y-83795333D01*
X196715047Y-83795333D01*
X196810285Y-83842952D01*
X196857904Y-83890571D01*
X196905523Y-83985809D01*
X196905523Y-84223904D01*
X196857904Y-84319142D01*
X196810285Y-84366761D01*
X196715047Y-84414380D01*
X196429333Y-84414380D01*
X196334095Y-84366761D01*
X196286476Y-84319142D01*
X197286476Y-83509619D02*
X197334095Y-83462000D01*
X197429333Y-83414380D01*
X197667428Y-83414380D01*
X197762666Y-83462000D01*
X197810285Y-83509619D01*
X197857904Y-83604857D01*
X197857904Y-83700095D01*
X197810285Y-83842952D01*
X197238857Y-84414380D01*
X197857904Y-84414380D01*
%TO.C,R30*%
X206113142Y-88224380D02*
X205779809Y-87748190D01*
X205541714Y-88224380D02*
X205541714Y-87224380D01*
X205922666Y-87224380D01*
X206017904Y-87272000D01*
X206065523Y-87319619D01*
X206113142Y-87414857D01*
X206113142Y-87557714D01*
X206065523Y-87652952D01*
X206017904Y-87700571D01*
X205922666Y-87748190D01*
X205541714Y-87748190D01*
X206446476Y-87224380D02*
X207065523Y-87224380D01*
X206732190Y-87605333D01*
X206875047Y-87605333D01*
X206970285Y-87652952D01*
X207017904Y-87700571D01*
X207065523Y-87795809D01*
X207065523Y-88033904D01*
X207017904Y-88129142D01*
X206970285Y-88176761D01*
X206875047Y-88224380D01*
X206589333Y-88224380D01*
X206494095Y-88176761D01*
X206446476Y-88129142D01*
X207684571Y-87224380D02*
X207779809Y-87224380D01*
X207875047Y-87272000D01*
X207922666Y-87319619D01*
X207970285Y-87414857D01*
X208017904Y-87605333D01*
X208017904Y-87843428D01*
X207970285Y-88033904D01*
X207922666Y-88129142D01*
X207875047Y-88176761D01*
X207779809Y-88224380D01*
X207684571Y-88224380D01*
X207589333Y-88176761D01*
X207541714Y-88129142D01*
X207494095Y-88033904D01*
X207446476Y-87843428D01*
X207446476Y-87605333D01*
X207494095Y-87414857D01*
X207541714Y-87319619D01*
X207589333Y-87272000D01*
X207684571Y-87224380D01*
%TO.C,R29*%
X206113142Y-80574380D02*
X205779809Y-80098190D01*
X205541714Y-80574380D02*
X205541714Y-79574380D01*
X205922666Y-79574380D01*
X206017904Y-79622000D01*
X206065523Y-79669619D01*
X206113142Y-79764857D01*
X206113142Y-79907714D01*
X206065523Y-80002952D01*
X206017904Y-80050571D01*
X205922666Y-80098190D01*
X205541714Y-80098190D01*
X206494095Y-79669619D02*
X206541714Y-79622000D01*
X206636952Y-79574380D01*
X206875047Y-79574380D01*
X206970285Y-79622000D01*
X207017904Y-79669619D01*
X207065523Y-79764857D01*
X207065523Y-79860095D01*
X207017904Y-80002952D01*
X206446476Y-80574380D01*
X207065523Y-80574380D01*
X207541714Y-80574380D02*
X207732190Y-80574380D01*
X207827428Y-80526761D01*
X207875047Y-80479142D01*
X207970285Y-80336285D01*
X208017904Y-80145809D01*
X208017904Y-79764857D01*
X207970285Y-79669619D01*
X207922666Y-79622000D01*
X207827428Y-79574380D01*
X207636952Y-79574380D01*
X207541714Y-79622000D01*
X207494095Y-79669619D01*
X207446476Y-79764857D01*
X207446476Y-80002952D01*
X207494095Y-80098190D01*
X207541714Y-80145809D01*
X207636952Y-80193428D01*
X207827428Y-80193428D01*
X207922666Y-80145809D01*
X207970285Y-80098190D01*
X208017904Y-80002952D01*
%TO.C,R28*%
X155313142Y-137500380D02*
X154979809Y-137024190D01*
X154741714Y-137500380D02*
X154741714Y-136500380D01*
X155122666Y-136500380D01*
X155217904Y-136548000D01*
X155265523Y-136595619D01*
X155313142Y-136690857D01*
X155313142Y-136833714D01*
X155265523Y-136928952D01*
X155217904Y-136976571D01*
X155122666Y-137024190D01*
X154741714Y-137024190D01*
X155694095Y-136595619D02*
X155741714Y-136548000D01*
X155836952Y-136500380D01*
X156075047Y-136500380D01*
X156170285Y-136548000D01*
X156217904Y-136595619D01*
X156265523Y-136690857D01*
X156265523Y-136786095D01*
X156217904Y-136928952D01*
X155646476Y-137500380D01*
X156265523Y-137500380D01*
X156836952Y-136928952D02*
X156741714Y-136881333D01*
X156694095Y-136833714D01*
X156646476Y-136738476D01*
X156646476Y-136690857D01*
X156694095Y-136595619D01*
X156741714Y-136548000D01*
X156836952Y-136500380D01*
X157027428Y-136500380D01*
X157122666Y-136548000D01*
X157170285Y-136595619D01*
X157217904Y-136690857D01*
X157217904Y-136738476D01*
X157170285Y-136833714D01*
X157122666Y-136881333D01*
X157027428Y-136928952D01*
X156836952Y-136928952D01*
X156741714Y-136976571D01*
X156694095Y-137024190D01*
X156646476Y-137119428D01*
X156646476Y-137309904D01*
X156694095Y-137405142D01*
X156741714Y-137452761D01*
X156836952Y-137500380D01*
X157027428Y-137500380D01*
X157122666Y-137452761D01*
X157170285Y-137405142D01*
X157217904Y-137309904D01*
X157217904Y-137119428D01*
X157170285Y-137024190D01*
X157122666Y-136976571D01*
X157027428Y-136928952D01*
%TO.C,R27*%
X155313142Y-145120380D02*
X154979809Y-144644190D01*
X154741714Y-145120380D02*
X154741714Y-144120380D01*
X155122666Y-144120380D01*
X155217904Y-144168000D01*
X155265523Y-144215619D01*
X155313142Y-144310857D01*
X155313142Y-144453714D01*
X155265523Y-144548952D01*
X155217904Y-144596571D01*
X155122666Y-144644190D01*
X154741714Y-144644190D01*
X155694095Y-144215619D02*
X155741714Y-144168000D01*
X155836952Y-144120380D01*
X156075047Y-144120380D01*
X156170285Y-144168000D01*
X156217904Y-144215619D01*
X156265523Y-144310857D01*
X156265523Y-144406095D01*
X156217904Y-144548952D01*
X155646476Y-145120380D01*
X156265523Y-145120380D01*
X156598857Y-144120380D02*
X157265523Y-144120380D01*
X156836952Y-145120380D01*
%TO.C,R26*%
X165219142Y-141280380D02*
X164885809Y-140804190D01*
X164647714Y-141280380D02*
X164647714Y-140280380D01*
X165028666Y-140280380D01*
X165123904Y-140328000D01*
X165171523Y-140375619D01*
X165219142Y-140470857D01*
X165219142Y-140613714D01*
X165171523Y-140708952D01*
X165123904Y-140756571D01*
X165028666Y-140804190D01*
X164647714Y-140804190D01*
X165600095Y-140375619D02*
X165647714Y-140328000D01*
X165742952Y-140280380D01*
X165981047Y-140280380D01*
X166076285Y-140328000D01*
X166123904Y-140375619D01*
X166171523Y-140470857D01*
X166171523Y-140566095D01*
X166123904Y-140708952D01*
X165552476Y-141280380D01*
X166171523Y-141280380D01*
X167028666Y-140280380D02*
X166838190Y-140280380D01*
X166742952Y-140328000D01*
X166695333Y-140375619D01*
X166600095Y-140518476D01*
X166552476Y-140708952D01*
X166552476Y-141089904D01*
X166600095Y-141185142D01*
X166647714Y-141232761D01*
X166742952Y-141280380D01*
X166933428Y-141280380D01*
X167028666Y-141232761D01*
X167076285Y-141185142D01*
X167123904Y-141089904D01*
X167123904Y-140851809D01*
X167076285Y-140756571D01*
X167028666Y-140708952D01*
X166933428Y-140661333D01*
X166742952Y-140661333D01*
X166647714Y-140708952D01*
X166600095Y-140756571D01*
X166552476Y-140851809D01*
%TO.C,R25*%
X155313142Y-141310380D02*
X154979809Y-140834190D01*
X154741714Y-141310380D02*
X154741714Y-140310380D01*
X155122666Y-140310380D01*
X155217904Y-140358000D01*
X155265523Y-140405619D01*
X155313142Y-140500857D01*
X155313142Y-140643714D01*
X155265523Y-140738952D01*
X155217904Y-140786571D01*
X155122666Y-140834190D01*
X154741714Y-140834190D01*
X155694095Y-140405619D02*
X155741714Y-140358000D01*
X155836952Y-140310380D01*
X156075047Y-140310380D01*
X156170285Y-140358000D01*
X156217904Y-140405619D01*
X156265523Y-140500857D01*
X156265523Y-140596095D01*
X156217904Y-140738952D01*
X155646476Y-141310380D01*
X156265523Y-141310380D01*
X157170285Y-140310380D02*
X156694095Y-140310380D01*
X156646476Y-140786571D01*
X156694095Y-140738952D01*
X156789333Y-140691333D01*
X157027428Y-140691333D01*
X157122666Y-140738952D01*
X157170285Y-140786571D01*
X157217904Y-140881809D01*
X157217904Y-141119904D01*
X157170285Y-141215142D01*
X157122666Y-141262761D01*
X157027428Y-141310380D01*
X156789333Y-141310380D01*
X156694095Y-141262761D01*
X156646476Y-141215142D01*
%TO.C,R23*%
X165219142Y-133548380D02*
X164885809Y-133072190D01*
X164647714Y-133548380D02*
X164647714Y-132548380D01*
X165028666Y-132548380D01*
X165123904Y-132596000D01*
X165171523Y-132643619D01*
X165219142Y-132738857D01*
X165219142Y-132881714D01*
X165171523Y-132976952D01*
X165123904Y-133024571D01*
X165028666Y-133072190D01*
X164647714Y-133072190D01*
X165600095Y-132643619D02*
X165647714Y-132596000D01*
X165742952Y-132548380D01*
X165981047Y-132548380D01*
X166076285Y-132596000D01*
X166123904Y-132643619D01*
X166171523Y-132738857D01*
X166171523Y-132834095D01*
X166123904Y-132976952D01*
X165552476Y-133548380D01*
X166171523Y-133548380D01*
X166504857Y-132548380D02*
X167123904Y-132548380D01*
X166790571Y-132929333D01*
X166933428Y-132929333D01*
X167028666Y-132976952D01*
X167076285Y-133024571D01*
X167123904Y-133119809D01*
X167123904Y-133357904D01*
X167076285Y-133453142D01*
X167028666Y-133500761D01*
X166933428Y-133548380D01*
X166647714Y-133548380D01*
X166552476Y-133500761D01*
X166504857Y-133453142D01*
%TO.C,R22*%
X165219142Y-137470380D02*
X164885809Y-136994190D01*
X164647714Y-137470380D02*
X164647714Y-136470380D01*
X165028666Y-136470380D01*
X165123904Y-136518000D01*
X165171523Y-136565619D01*
X165219142Y-136660857D01*
X165219142Y-136803714D01*
X165171523Y-136898952D01*
X165123904Y-136946571D01*
X165028666Y-136994190D01*
X164647714Y-136994190D01*
X165600095Y-136565619D02*
X165647714Y-136518000D01*
X165742952Y-136470380D01*
X165981047Y-136470380D01*
X166076285Y-136518000D01*
X166123904Y-136565619D01*
X166171523Y-136660857D01*
X166171523Y-136756095D01*
X166123904Y-136898952D01*
X165552476Y-137470380D01*
X166171523Y-137470380D01*
X166552476Y-136565619D02*
X166600095Y-136518000D01*
X166695333Y-136470380D01*
X166933428Y-136470380D01*
X167028666Y-136518000D01*
X167076285Y-136565619D01*
X167123904Y-136660857D01*
X167123904Y-136756095D01*
X167076285Y-136898952D01*
X166504857Y-137470380D01*
X167123904Y-137470380D01*
%TO.C,R21*%
X145153142Y-133660380D02*
X144819809Y-133184190D01*
X144581714Y-133660380D02*
X144581714Y-132660380D01*
X144962666Y-132660380D01*
X145057904Y-132708000D01*
X145105523Y-132755619D01*
X145153142Y-132850857D01*
X145153142Y-132993714D01*
X145105523Y-133088952D01*
X145057904Y-133136571D01*
X144962666Y-133184190D01*
X144581714Y-133184190D01*
X145534095Y-132755619D02*
X145581714Y-132708000D01*
X145676952Y-132660380D01*
X145915047Y-132660380D01*
X146010285Y-132708000D01*
X146057904Y-132755619D01*
X146105523Y-132850857D01*
X146105523Y-132946095D01*
X146057904Y-133088952D01*
X145486476Y-133660380D01*
X146105523Y-133660380D01*
X147057904Y-133660380D02*
X146486476Y-133660380D01*
X146772190Y-133660380D02*
X146772190Y-132660380D01*
X146676952Y-132803238D01*
X146581714Y-132898476D01*
X146486476Y-132946095D01*
%TO.C,R20*%
X145153142Y-141280380D02*
X144819809Y-140804190D01*
X144581714Y-141280380D02*
X144581714Y-140280380D01*
X144962666Y-140280380D01*
X145057904Y-140328000D01*
X145105523Y-140375619D01*
X145153142Y-140470857D01*
X145153142Y-140613714D01*
X145105523Y-140708952D01*
X145057904Y-140756571D01*
X144962666Y-140804190D01*
X144581714Y-140804190D01*
X145534095Y-140375619D02*
X145581714Y-140328000D01*
X145676952Y-140280380D01*
X145915047Y-140280380D01*
X146010285Y-140328000D01*
X146057904Y-140375619D01*
X146105523Y-140470857D01*
X146105523Y-140566095D01*
X146057904Y-140708952D01*
X145486476Y-141280380D01*
X146105523Y-141280380D01*
X146724571Y-140280380D02*
X146819809Y-140280380D01*
X146915047Y-140328000D01*
X146962666Y-140375619D01*
X147010285Y-140470857D01*
X147057904Y-140661333D01*
X147057904Y-140899428D01*
X147010285Y-141089904D01*
X146962666Y-141185142D01*
X146915047Y-141232761D01*
X146819809Y-141280380D01*
X146724571Y-141280380D01*
X146629333Y-141232761D01*
X146581714Y-141185142D01*
X146534095Y-141089904D01*
X146486476Y-140899428D01*
X146486476Y-140661333D01*
X146534095Y-140470857D01*
X146581714Y-140375619D01*
X146629333Y-140328000D01*
X146724571Y-140280380D01*
%TO.C,R19*%
X134993142Y-145120380D02*
X134659809Y-144644190D01*
X134421714Y-145120380D02*
X134421714Y-144120380D01*
X134802666Y-144120380D01*
X134897904Y-144168000D01*
X134945523Y-144215619D01*
X134993142Y-144310857D01*
X134993142Y-144453714D01*
X134945523Y-144548952D01*
X134897904Y-144596571D01*
X134802666Y-144644190D01*
X134421714Y-144644190D01*
X135945523Y-145120380D02*
X135374095Y-145120380D01*
X135659809Y-145120380D02*
X135659809Y-144120380D01*
X135564571Y-144263238D01*
X135469333Y-144358476D01*
X135374095Y-144406095D01*
X136421714Y-145120380D02*
X136612190Y-145120380D01*
X136707428Y-145072761D01*
X136755047Y-145025142D01*
X136850285Y-144882285D01*
X136897904Y-144691809D01*
X136897904Y-144310857D01*
X136850285Y-144215619D01*
X136802666Y-144168000D01*
X136707428Y-144120380D01*
X136516952Y-144120380D01*
X136421714Y-144168000D01*
X136374095Y-144215619D01*
X136326476Y-144310857D01*
X136326476Y-144548952D01*
X136374095Y-144644190D01*
X136421714Y-144691809D01*
X136516952Y-144739428D01*
X136707428Y-144739428D01*
X136802666Y-144691809D01*
X136850285Y-144644190D01*
X136897904Y-144548952D01*
%TO.C,R18*%
X145153142Y-137470380D02*
X144819809Y-136994190D01*
X144581714Y-137470380D02*
X144581714Y-136470380D01*
X144962666Y-136470380D01*
X145057904Y-136518000D01*
X145105523Y-136565619D01*
X145153142Y-136660857D01*
X145153142Y-136803714D01*
X145105523Y-136898952D01*
X145057904Y-136946571D01*
X144962666Y-136994190D01*
X144581714Y-136994190D01*
X146105523Y-137470380D02*
X145534095Y-137470380D01*
X145819809Y-137470380D02*
X145819809Y-136470380D01*
X145724571Y-136613238D01*
X145629333Y-136708476D01*
X145534095Y-136756095D01*
X146676952Y-136898952D02*
X146581714Y-136851333D01*
X146534095Y-136803714D01*
X146486476Y-136708476D01*
X146486476Y-136660857D01*
X146534095Y-136565619D01*
X146581714Y-136518000D01*
X146676952Y-136470380D01*
X146867428Y-136470380D01*
X146962666Y-136518000D01*
X147010285Y-136565619D01*
X147057904Y-136660857D01*
X147057904Y-136708476D01*
X147010285Y-136803714D01*
X146962666Y-136851333D01*
X146867428Y-136898952D01*
X146676952Y-136898952D01*
X146581714Y-136946571D01*
X146534095Y-136994190D01*
X146486476Y-137089428D01*
X146486476Y-137279904D01*
X146534095Y-137375142D01*
X146581714Y-137422761D01*
X146676952Y-137470380D01*
X146867428Y-137470380D01*
X146962666Y-137422761D01*
X147010285Y-137375142D01*
X147057904Y-137279904D01*
X147057904Y-137089428D01*
X147010285Y-136994190D01*
X146962666Y-136946571D01*
X146867428Y-136898952D01*
%TO.C,R16*%
X134993142Y-133660380D02*
X134659809Y-133184190D01*
X134421714Y-133660380D02*
X134421714Y-132660380D01*
X134802666Y-132660380D01*
X134897904Y-132708000D01*
X134945523Y-132755619D01*
X134993142Y-132850857D01*
X134993142Y-132993714D01*
X134945523Y-133088952D01*
X134897904Y-133136571D01*
X134802666Y-133184190D01*
X134421714Y-133184190D01*
X135945523Y-133660380D02*
X135374095Y-133660380D01*
X135659809Y-133660380D02*
X135659809Y-132660380D01*
X135564571Y-132803238D01*
X135469333Y-132898476D01*
X135374095Y-132946095D01*
X136802666Y-132660380D02*
X136612190Y-132660380D01*
X136516952Y-132708000D01*
X136469333Y-132755619D01*
X136374095Y-132898476D01*
X136326476Y-133088952D01*
X136326476Y-133469904D01*
X136374095Y-133565142D01*
X136421714Y-133612761D01*
X136516952Y-133660380D01*
X136707428Y-133660380D01*
X136802666Y-133612761D01*
X136850285Y-133565142D01*
X136897904Y-133469904D01*
X136897904Y-133231809D01*
X136850285Y-133136571D01*
X136802666Y-133088952D01*
X136707428Y-133041333D01*
X136516952Y-133041333D01*
X136421714Y-133088952D01*
X136374095Y-133136571D01*
X136326476Y-133231809D01*
%TO.C,R15*%
X134993142Y-141310380D02*
X134659809Y-140834190D01*
X134421714Y-141310380D02*
X134421714Y-140310380D01*
X134802666Y-140310380D01*
X134897904Y-140358000D01*
X134945523Y-140405619D01*
X134993142Y-140500857D01*
X134993142Y-140643714D01*
X134945523Y-140738952D01*
X134897904Y-140786571D01*
X134802666Y-140834190D01*
X134421714Y-140834190D01*
X135945523Y-141310380D02*
X135374095Y-141310380D01*
X135659809Y-141310380D02*
X135659809Y-140310380D01*
X135564571Y-140453238D01*
X135469333Y-140548476D01*
X135374095Y-140596095D01*
X136850285Y-140310380D02*
X136374095Y-140310380D01*
X136326476Y-140786571D01*
X136374095Y-140738952D01*
X136469333Y-140691333D01*
X136707428Y-140691333D01*
X136802666Y-140738952D01*
X136850285Y-140786571D01*
X136897904Y-140881809D01*
X136897904Y-141119904D01*
X136850285Y-141215142D01*
X136802666Y-141262761D01*
X136707428Y-141310380D01*
X136469333Y-141310380D01*
X136374095Y-141262761D01*
X136326476Y-141215142D01*
%TO.C,R14*%
X145153142Y-118420380D02*
X144819809Y-117944190D01*
X144581714Y-118420380D02*
X144581714Y-117420380D01*
X144962666Y-117420380D01*
X145057904Y-117468000D01*
X145105523Y-117515619D01*
X145153142Y-117610857D01*
X145153142Y-117753714D01*
X145105523Y-117848952D01*
X145057904Y-117896571D01*
X144962666Y-117944190D01*
X144581714Y-117944190D01*
X146105523Y-118420380D02*
X145534095Y-118420380D01*
X145819809Y-118420380D02*
X145819809Y-117420380D01*
X145724571Y-117563238D01*
X145629333Y-117658476D01*
X145534095Y-117706095D01*
X146962666Y-117753714D02*
X146962666Y-118420380D01*
X146724571Y-117372761D02*
X146486476Y-118087047D01*
X147105523Y-118087047D01*
%TO.C,R13*%
X145153142Y-110800380D02*
X144819809Y-110324190D01*
X144581714Y-110800380D02*
X144581714Y-109800380D01*
X144962666Y-109800380D01*
X145057904Y-109848000D01*
X145105523Y-109895619D01*
X145153142Y-109990857D01*
X145153142Y-110133714D01*
X145105523Y-110228952D01*
X145057904Y-110276571D01*
X144962666Y-110324190D01*
X144581714Y-110324190D01*
X146105523Y-110800380D02*
X145534095Y-110800380D01*
X145819809Y-110800380D02*
X145819809Y-109800380D01*
X145724571Y-109943238D01*
X145629333Y-110038476D01*
X145534095Y-110086095D01*
X146438857Y-109800380D02*
X147057904Y-109800380D01*
X146724571Y-110181333D01*
X146867428Y-110181333D01*
X146962666Y-110228952D01*
X147010285Y-110276571D01*
X147057904Y-110371809D01*
X147057904Y-110609904D01*
X147010285Y-110705142D01*
X146962666Y-110752761D01*
X146867428Y-110800380D01*
X146581714Y-110800380D01*
X146486476Y-110752761D01*
X146438857Y-110705142D01*
%TO.C,R12*%
X134993142Y-114640380D02*
X134659809Y-114164190D01*
X134421714Y-114640380D02*
X134421714Y-113640380D01*
X134802666Y-113640380D01*
X134897904Y-113688000D01*
X134945523Y-113735619D01*
X134993142Y-113830857D01*
X134993142Y-113973714D01*
X134945523Y-114068952D01*
X134897904Y-114116571D01*
X134802666Y-114164190D01*
X134421714Y-114164190D01*
X135945523Y-114640380D02*
X135374095Y-114640380D01*
X135659809Y-114640380D02*
X135659809Y-113640380D01*
X135564571Y-113783238D01*
X135469333Y-113878476D01*
X135374095Y-113926095D01*
X136326476Y-113735619D02*
X136374095Y-113688000D01*
X136469333Y-113640380D01*
X136707428Y-113640380D01*
X136802666Y-113688000D01*
X136850285Y-113735619D01*
X136897904Y-113830857D01*
X136897904Y-113926095D01*
X136850285Y-114068952D01*
X136278857Y-114640380D01*
X136897904Y-114640380D01*
%TO.C,R11*%
X145153142Y-114610380D02*
X144819809Y-114134190D01*
X144581714Y-114610380D02*
X144581714Y-113610380D01*
X144962666Y-113610380D01*
X145057904Y-113658000D01*
X145105523Y-113705619D01*
X145153142Y-113800857D01*
X145153142Y-113943714D01*
X145105523Y-114038952D01*
X145057904Y-114086571D01*
X144962666Y-114134190D01*
X144581714Y-114134190D01*
X146105523Y-114610380D02*
X145534095Y-114610380D01*
X145819809Y-114610380D02*
X145819809Y-113610380D01*
X145724571Y-113753238D01*
X145629333Y-113848476D01*
X145534095Y-113896095D01*
X147057904Y-114610380D02*
X146486476Y-114610380D01*
X146772190Y-114610380D02*
X146772190Y-113610380D01*
X146676952Y-113753238D01*
X146581714Y-113848476D01*
X146486476Y-113896095D01*
%TO.C,R9*%
X135469333Y-122372380D02*
X135136000Y-121896190D01*
X134897904Y-122372380D02*
X134897904Y-121372380D01*
X135278857Y-121372380D01*
X135374095Y-121420000D01*
X135421714Y-121467619D01*
X135469333Y-121562857D01*
X135469333Y-121705714D01*
X135421714Y-121800952D01*
X135374095Y-121848571D01*
X135278857Y-121896190D01*
X134897904Y-121896190D01*
X135945523Y-122372380D02*
X136136000Y-122372380D01*
X136231238Y-122324761D01*
X136278857Y-122277142D01*
X136374095Y-122134285D01*
X136421714Y-121943809D01*
X136421714Y-121562857D01*
X136374095Y-121467619D01*
X136326476Y-121420000D01*
X136231238Y-121372380D01*
X136040761Y-121372380D01*
X135945523Y-121420000D01*
X135897904Y-121467619D01*
X135850285Y-121562857D01*
X135850285Y-121800952D01*
X135897904Y-121896190D01*
X135945523Y-121943809D01*
X136040761Y-121991428D01*
X136231238Y-121991428D01*
X136326476Y-121943809D01*
X136374095Y-121896190D01*
X136421714Y-121800952D01*
%TO.C,R8*%
X135469333Y-118450380D02*
X135136000Y-117974190D01*
X134897904Y-118450380D02*
X134897904Y-117450380D01*
X135278857Y-117450380D01*
X135374095Y-117498000D01*
X135421714Y-117545619D01*
X135469333Y-117640857D01*
X135469333Y-117783714D01*
X135421714Y-117878952D01*
X135374095Y-117926571D01*
X135278857Y-117974190D01*
X134897904Y-117974190D01*
X136040761Y-117878952D02*
X135945523Y-117831333D01*
X135897904Y-117783714D01*
X135850285Y-117688476D01*
X135850285Y-117640857D01*
X135897904Y-117545619D01*
X135945523Y-117498000D01*
X136040761Y-117450380D01*
X136231238Y-117450380D01*
X136326476Y-117498000D01*
X136374095Y-117545619D01*
X136421714Y-117640857D01*
X136421714Y-117688476D01*
X136374095Y-117783714D01*
X136326476Y-117831333D01*
X136231238Y-117878952D01*
X136040761Y-117878952D01*
X135945523Y-117926571D01*
X135897904Y-117974190D01*
X135850285Y-118069428D01*
X135850285Y-118259904D01*
X135897904Y-118355142D01*
X135945523Y-118402761D01*
X136040761Y-118450380D01*
X136231238Y-118450380D01*
X136326476Y-118402761D01*
X136374095Y-118355142D01*
X136421714Y-118259904D01*
X136421714Y-118069428D01*
X136374095Y-117974190D01*
X136326476Y-117926571D01*
X136231238Y-117878952D01*
%TO.C,R7*%
X155789333Y-122260380D02*
X155456000Y-121784190D01*
X155217904Y-122260380D02*
X155217904Y-121260380D01*
X155598857Y-121260380D01*
X155694095Y-121308000D01*
X155741714Y-121355619D01*
X155789333Y-121450857D01*
X155789333Y-121593714D01*
X155741714Y-121688952D01*
X155694095Y-121736571D01*
X155598857Y-121784190D01*
X155217904Y-121784190D01*
X156122666Y-121260380D02*
X156789333Y-121260380D01*
X156360761Y-122260380D01*
%TO.C,R6*%
X155789333Y-114640380D02*
X155456000Y-114164190D01*
X155217904Y-114640380D02*
X155217904Y-113640380D01*
X155598857Y-113640380D01*
X155694095Y-113688000D01*
X155741714Y-113735619D01*
X155789333Y-113830857D01*
X155789333Y-113973714D01*
X155741714Y-114068952D01*
X155694095Y-114116571D01*
X155598857Y-114164190D01*
X155217904Y-114164190D01*
X156646476Y-113640380D02*
X156456000Y-113640380D01*
X156360761Y-113688000D01*
X156313142Y-113735619D01*
X156217904Y-113878476D01*
X156170285Y-114068952D01*
X156170285Y-114449904D01*
X156217904Y-114545142D01*
X156265523Y-114592761D01*
X156360761Y-114640380D01*
X156551238Y-114640380D01*
X156646476Y-114592761D01*
X156694095Y-114545142D01*
X156741714Y-114449904D01*
X156741714Y-114211809D01*
X156694095Y-114116571D01*
X156646476Y-114068952D01*
X156551238Y-114021333D01*
X156360761Y-114021333D01*
X156265523Y-114068952D01*
X156217904Y-114116571D01*
X156170285Y-114211809D01*
%TO.C,R5*%
X165949333Y-110800380D02*
X165616000Y-110324190D01*
X165377904Y-110800380D02*
X165377904Y-109800380D01*
X165758857Y-109800380D01*
X165854095Y-109848000D01*
X165901714Y-109895619D01*
X165949333Y-109990857D01*
X165949333Y-110133714D01*
X165901714Y-110228952D01*
X165854095Y-110276571D01*
X165758857Y-110324190D01*
X165377904Y-110324190D01*
X166854095Y-109800380D02*
X166377904Y-109800380D01*
X166330285Y-110276571D01*
X166377904Y-110228952D01*
X166473142Y-110181333D01*
X166711238Y-110181333D01*
X166806476Y-110228952D01*
X166854095Y-110276571D01*
X166901714Y-110371809D01*
X166901714Y-110609904D01*
X166854095Y-110705142D01*
X166806476Y-110752761D01*
X166711238Y-110800380D01*
X166473142Y-110800380D01*
X166377904Y-110752761D01*
X166330285Y-110705142D01*
%TO.C,R4*%
X155789333Y-118450380D02*
X155456000Y-117974190D01*
X155217904Y-118450380D02*
X155217904Y-117450380D01*
X155598857Y-117450380D01*
X155694095Y-117498000D01*
X155741714Y-117545619D01*
X155789333Y-117640857D01*
X155789333Y-117783714D01*
X155741714Y-117878952D01*
X155694095Y-117926571D01*
X155598857Y-117974190D01*
X155217904Y-117974190D01*
X156646476Y-117783714D02*
X156646476Y-118450380D01*
X156408380Y-117402761D02*
X156170285Y-118117047D01*
X156789333Y-118117047D01*
%TO.C,R2*%
X165949333Y-122260380D02*
X165616000Y-121784190D01*
X165377904Y-122260380D02*
X165377904Y-121260380D01*
X165758857Y-121260380D01*
X165854095Y-121308000D01*
X165901714Y-121355619D01*
X165949333Y-121450857D01*
X165949333Y-121593714D01*
X165901714Y-121688952D01*
X165854095Y-121736571D01*
X165758857Y-121784190D01*
X165377904Y-121784190D01*
X166330285Y-121355619D02*
X166377904Y-121308000D01*
X166473142Y-121260380D01*
X166711238Y-121260380D01*
X166806476Y-121308000D01*
X166854095Y-121355619D01*
X166901714Y-121450857D01*
X166901714Y-121546095D01*
X166854095Y-121688952D01*
X166282666Y-122260380D01*
X166901714Y-122260380D01*
%TO.C,R1*%
X171029333Y-118450380D02*
X170696000Y-117974190D01*
X170457904Y-118450380D02*
X170457904Y-117450380D01*
X170838857Y-117450380D01*
X170934095Y-117498000D01*
X170981714Y-117545619D01*
X171029333Y-117640857D01*
X171029333Y-117783714D01*
X170981714Y-117878952D01*
X170934095Y-117926571D01*
X170838857Y-117974190D01*
X170457904Y-117974190D01*
X171981714Y-118450380D02*
X171410285Y-118450380D01*
X171696000Y-118450380D02*
X171696000Y-117450380D01*
X171600761Y-117593238D01*
X171505523Y-117688476D01*
X171410285Y-117736095D01*
%TD*%
M02*
